<svg width="135" height="38" viewBox="0 0 135 38" fill="none" xmlns="http://www.w3.org/2000/svg">
<g clip-path="url(#clip0_981_9291)">
<path d="M130 0.149902H5C2.23858 0.149902 0 2.26183 0 4.86703V33.1698C0 35.775 2.23858 37.8869 5 37.8869H130C132.761 37.8869 135 35.775 135 33.1698V4.86703C135 2.26183 132.761 0.149902 130 0.149902Z" fill="black"/>
<path d="M130 0.904455C131.114 0.905668 132.181 1.32355 132.968 2.06642C133.756 2.8093 134.199 3.81649 134.2 4.86703V33.1698C134.199 34.2203 133.756 35.2275 132.968 35.9704C132.181 36.7133 131.114 37.1312 130 37.1324H5C3.88645 37.1312 2.81888 36.7133 2.0315 35.9704C1.24412 35.2276 0.801231 34.2204 0.8 33.1698V4.86703C0.801212 3.81648 1.24409 2.80927 2.03148 2.0664C2.81886 1.32352 3.88644 0.905648 5 0.904455H130ZM130 0.149902H5C3.67511 0.153561 2.40559 0.651718 1.46875 1.53556C0.531908 2.4194 0.0038781 3.6171 0 4.86703L0 33.1698C0.0038781 34.4197 0.531908 35.6174 1.46875 36.5013C2.40559 37.3851 3.67511 37.8833 5 37.8869H130C131.325 37.8833 132.594 37.3851 133.531 36.5013C134.468 35.6174 134.996 34.4197 135 33.1698V4.86703C134.996 3.6171 134.468 2.4194 133.531 1.53556C132.594 0.651718 131.325 0.153561 130 0.149902Z" fill="#A6A6A6"/>
<path d="M47.4183 9.81348C47.4365 10.1597 47.3798 10.5057 47.2516 10.8306C47.1235 11.1554 46.9267 11.4523 46.6731 11.7031C46.3889 11.9812 46.0456 12.1995 45.6658 12.3438C45.286 12.4881 44.8782 12.5552 44.469 12.5406C44.0572 12.544 43.6488 12.4698 43.2679 12.3223C42.8869 12.1747 42.5411 11.9568 42.2507 11.6814C41.9603 11.4059 41.7312 11.0785 41.5768 10.7183C41.4225 10.3582 41.346 9.9725 41.3519 9.58404C41.346 9.19557 41.4225 8.80992 41.5769 8.44973C41.7313 8.08955 41.9604 7.76211 42.2508 7.48663C42.5412 7.21116 42.887 6.99321 43.2679 6.8456C43.6488 6.69799 44.0572 6.62369 44.469 6.62706C44.8924 6.62586 45.3115 6.70661 45.7005 6.86433C46.0617 7.00249 46.3833 7.2192 46.639 7.49681L46.1116 7.99475C45.9106 7.77158 45.658 7.59496 45.3732 7.47851C45.0884 7.36206 44.779 7.3089 44.469 7.32312C44.1569 7.3216 43.8477 7.37951 43.5599 7.4934C43.2721 7.60728 43.0116 7.77479 42.7941 7.98589C42.5765 8.19699 42.4064 8.44734 42.2938 8.72195C42.1812 8.99656 42.1286 9.28978 42.139 9.58404C42.1315 10.0248 42.263 10.4577 42.5167 10.8279C42.7704 11.1981 43.1349 11.4889 43.564 11.6634C43.9931 11.8378 44.4674 11.8882 44.9269 11.808C45.3864 11.7278 45.8102 11.5207 46.1448 11.213C46.4527 10.9 46.6311 10.493 46.6477 10.0663H44.469V9.38639H47.3763C47.4038 9.52729 47.4178 9.67022 47.4183 9.81348Z" fill="white" stroke="white" stroke-width="0.2" stroke-miterlimit="10"/>
<path d="M52.0273 7.44949H49.2949V9.24417H51.7588V9.92419H49.2949V11.7189H52.0273V12.4145H48.5244V6.75391H52.0273V7.44949Z" fill="white" stroke="white" stroke-width="0.2" stroke-miterlimit="10"/>
<path d="M55.2784 12.4145H54.5069V7.44949H52.8311V6.75391H56.9542V7.44949H55.2784V12.4145Z" fill="white" stroke="white" stroke-width="0.2" stroke-miterlimit="10"/>
<path d="M59.9375 12.4145V6.75391H60.708V12.4145H59.9375Z" fill="white" stroke="white" stroke-width="0.2" stroke-miterlimit="10"/>
<path d="M64.1279 12.4145H63.3564V7.44949H61.6807V6.75391H65.8037V7.44949H64.1279V12.4145Z" fill="white" stroke="white" stroke-width="0.2" stroke-miterlimit="10"/>
<path d="M73.6092 11.6832C73.0252 12.2325 72.2341 12.5409 71.4095 12.5409C70.5848 12.5409 69.7938 12.2325 69.2098 11.6832C68.9209 11.4071 68.6937 11.079 68.5419 10.7185C68.3901 10.3579 68.3167 9.97228 68.326 9.58442C68.3167 9.19657 68.3901 8.8109 68.5419 8.45035C68.6937 8.08981 68.9209 7.76175 69.2098 7.48568C69.4984 7.21328 69.8412 6.99726 70.2185 6.84999C70.5957 6.70273 71.0001 6.6271 71.4083 6.62744C71.8166 6.62778 72.2208 6.70409 72.5978 6.85199C72.9748 6.99989 73.3171 7.21647 73.6053 7.48936C73.8944 7.7647 74.122 8.09203 74.2744 8.45192C74.4269 8.8118 74.5012 9.19692 74.493 9.58442C74.5021 9.97225 74.4285 10.3578 74.2767 10.7184C74.1249 11.0789 73.8979 11.407 73.6092 11.6832ZM69.7791 11.2092C70.2116 11.6166 70.7978 11.8454 71.409 11.8454C72.0202 11.8454 72.6063 11.6166 73.0389 11.2092C73.2607 10.995 73.4341 10.7405 73.5488 10.4613C73.6634 10.182 73.7169 9.88371 73.7059 9.58442C73.7169 9.28513 73.6634 8.98684 73.5488 8.70758C73.4341 8.42832 73.2607 8.17389 73.0389 7.95965C72.6063 7.55229 72.0202 7.32349 71.409 7.32349C70.7978 7.32349 70.2116 7.55229 69.7791 7.95965C69.5576 8.17406 69.3844 8.42854 69.2699 8.70778C69.1555 8.98701 69.1021 9.28521 69.1131 9.58442C69.1021 9.88363 69.1555 10.1818 69.2699 10.4611C69.3844 10.7403 69.5576 10.9948 69.7791 11.2092Z" fill="white" stroke="white" stroke-width="0.2" stroke-miterlimit="10"/>
<path d="M75.5752 12.4145V6.75391H76.5137L79.4297 11.1573H79.4629L79.4297 10.0665V6.75391H80.2012V12.4145H79.3965L76.3457 7.79771H76.3125L76.3457 8.8886V12.4145H75.5752Z" fill="white" stroke="white" stroke-width="0.2" stroke-miterlimit="10"/>
<path d="M68.1354 20.6708C67.2949 20.6738 66.4741 20.9117 65.7768 21.3544C65.0795 21.7972 64.5369 22.4249 64.2175 23.1584C63.898 23.8918 63.8161 24.6981 63.982 25.4755C64.148 26.2529 64.5543 26.9664 65.1498 27.5261C65.7452 28.0857 66.5031 28.4663 67.3277 28.6199C68.1523 28.7735 69.0066 28.6932 69.7829 28.389C70.5591 28.0849 71.2224 27.5705 71.689 26.911C72.1557 26.2515 72.4047 25.4763 72.4047 24.6833C72.4129 24.1529 72.308 23.6264 72.0962 23.1351C71.8844 22.6437 71.5699 22.1976 71.1716 21.8232C70.7733 21.4489 70.2992 21.1539 69.7776 20.956C69.256 20.758 68.6975 20.661 68.1354 20.6708ZM68.1354 27.1152C67.6178 27.15 67.101 27.037 66.6524 26.7909C66.2038 26.5447 65.8442 26.1769 65.6203 25.7352C65.3964 25.2935 65.3186 24.7985 65.3971 24.3146C65.4756 23.8306 65.7068 23.3802 66.0604 23.0219C66.4141 22.6636 66.8739 22.4141 67.3799 22.3058C67.886 22.1975 68.4149 22.2354 68.8978 22.4147C69.3807 22.594 69.7952 22.9062 70.0874 23.3109C70.3795 23.7155 70.5358 24.1937 70.5358 24.6833C70.5515 24.9926 70.5015 25.3017 70.3886 25.5925C70.2758 25.8833 70.1024 26.1498 69.8787 26.3764C69.6551 26.603 69.3856 26.7851 69.0862 26.912C68.7868 27.0389 68.4635 27.108 68.1354 27.1152ZM58.822 20.6708C57.9815 20.6738 57.1607 20.9117 56.4634 21.3544C55.7661 21.7971 55.2234 22.4248 54.904 23.1583C54.5845 23.8918 54.5026 24.6981 54.6685 25.4754C54.8344 26.2528 55.2408 26.9664 55.8362 27.526C56.4317 28.0857 57.1896 28.4663 58.0142 28.6199C58.8388 28.7735 59.6931 28.6932 60.4694 28.389C61.2456 28.0849 61.9089 27.5706 62.3755 26.911C62.8422 26.2515 63.0912 25.4763 63.0912 24.6833C63.0994 24.1529 62.9945 23.6264 62.7827 23.1351C62.5709 22.6438 62.2565 22.1976 61.8582 21.8233C61.4598 21.4489 60.9858 21.154 60.4642 20.956C59.9426 20.758 59.3841 20.661 58.822 20.6708ZM58.822 27.1152C58.3044 27.15 57.7876 27.037 57.339 26.7909C56.8904 26.5447 56.5308 26.1769 56.3069 25.7352C56.083 25.2935 56.0052 24.7985 56.0837 24.3146C56.1622 23.8306 56.3934 23.3802 56.747 23.0219C57.1007 22.6636 57.5605 22.4141 58.0665 22.3058C58.5726 22.1975 59.1015 22.2354 59.5844 22.4147C60.0673 22.594 60.4818 22.9062 60.774 23.3109C61.0661 23.7155 61.2224 24.1937 61.2224 24.6833C61.2381 24.9926 61.1881 25.3017 61.0752 25.5925C60.9624 25.8833 60.789 26.1498 60.5654 26.3764C60.3417 26.603 60.0722 26.7852 59.7728 26.912C59.4734 27.0389 59.1501 27.108 58.822 27.1152ZM47.7432 21.902V23.6042H52.0609C51.9986 24.4026 51.6523 25.1578 51.0781 25.7473C50.6454 26.1634 50.1251 26.4893 49.5507 26.7039C48.9762 26.9186 48.3605 27.0173 47.7432 26.9936C46.4812 26.9775 45.2766 26.4932 44.3902 25.6455C43.5038 24.7979 43.0068 23.655 43.0068 22.4643C43.0068 21.2735 43.5038 20.1307 44.3902 19.283C45.2766 18.4354 46.4812 17.9511 47.7432 17.935C48.9554 17.92 50.1249 18.357 50.9976 19.1509L52.2703 17.9502C51.6748 17.394 50.9677 16.9556 50.1903 16.6607C49.4129 16.3658 48.581 16.2203 47.7432 16.2327C46.8677 16.2206 45.9984 16.3729 45.1858 16.6807C44.3732 16.9885 43.6336 17.4456 43.01 18.0254C42.3864 18.6053 41.8911 19.2963 41.5531 20.0583C41.2151 20.8204 41.041 21.6382 41.041 22.4643C41.041 23.2903 41.2151 24.1082 41.5531 24.8702C41.8911 25.6322 42.3864 26.3233 43.01 26.9031C43.6336 27.483 44.3732 27.9401 45.1858 28.2478C45.9984 28.5556 46.8677 28.7079 47.7432 28.6959C48.5986 28.7294 49.4519 28.5908 50.2462 28.2895C51.0406 27.9881 51.758 27.5309 52.3508 26.948C53.4032 25.8643 53.9641 24.4349 53.9136 22.9659C53.9177 22.6091 53.8853 22.2529 53.8168 21.902H47.7432ZM93.0515 23.2242C92.7959 22.4974 92.3093 21.8625 91.6579 21.4057C91.0065 20.9488 90.2218 20.6923 89.4105 20.6708C88.864 20.674 88.3239 20.7817 87.8228 20.9874C87.3217 21.1931 86.8701 21.4926 86.4951 21.8676C86.1201 22.2427 85.8297 22.6856 85.6413 23.1695C85.4529 23.6535 85.3705 24.1685 85.3991 24.6833C85.3868 25.2109 85.4873 25.7353 85.6946 26.2254C85.902 26.7155 86.2119 27.1611 86.6059 27.5356C86.9999 27.9102 87.4698 28.206 87.9877 28.4053C88.5056 28.6047 89.0607 28.7035 89.62 28.6959C90.3206 28.6995 91.0113 28.539 91.6299 28.2286C92.2485 27.9182 92.7757 27.4677 93.1642 26.9176L91.7143 26.0057C91.4971 26.346 91.1898 26.6272 90.8227 26.8217C90.4555 27.0162 90.0411 27.1174 89.62 27.1152C89.1867 27.1308 88.7584 27.0232 88.3907 26.8064C88.023 26.5896 87.7328 26.2736 87.5578 25.8993L93.2449 23.6803L93.0515 23.2242ZM87.2518 24.5618C87.2317 24.2698 87.2737 23.9769 87.3751 23.7003C87.4765 23.4237 87.6353 23.169 87.8423 22.951C88.0493 22.7331 88.3003 22.5563 88.5807 22.4309C88.861 22.3056 89.165 22.2343 89.4749 22.2212C89.7976 22.2011 90.1194 22.2712 90.4001 22.4225C90.6809 22.5739 90.9082 22.7999 91.0538 23.0723L87.2518 24.5618ZM82.628 28.4527H84.4968V16.6583H82.628V28.4527ZM79.567 21.5676H79.5026C79.2185 21.2763 78.8717 21.0457 78.4855 20.891C78.0993 20.7364 77.6826 20.6613 77.2632 20.6708C76.1665 20.7149 75.1302 21.1569 74.3707 21.9045C73.6112 22.6522 73.1872 23.6478 73.1872 24.6834C73.1872 25.7189 73.6112 26.7145 74.3707 27.4622C75.1302 28.2099 76.1665 28.6519 77.2632 28.6959C77.6843 28.7065 78.1027 28.6304 78.4895 28.4729C78.8762 28.3154 79.2219 28.0803 79.5026 27.784H79.567V28.3615C79.567 29.8967 78.6971 30.7174 77.2954 30.7174C76.8282 30.7068 76.375 30.5653 75.9934 30.3109C75.6119 30.0564 75.3192 29.7006 75.1528 29.2886L73.5256 29.9271C73.8323 30.6315 74.3549 31.2335 75.0265 31.6559C75.6982 32.0783 76.4882 32.3019 77.2954 32.2981C79.4865 32.2981 81.3392 31.0822 81.3392 28.1183V20.9139H79.567V21.5676ZM77.4244 27.1152C76.7784 27.0635 76.1766 26.7849 75.738 26.3346C75.2994 25.8842 75.056 25.2949 75.056 24.6834C75.056 24.0718 75.2994 23.4825 75.738 23.0321C76.1766 22.5818 76.7784 22.3032 77.4244 22.2515C77.7457 22.2663 78.0606 22.342 78.3503 22.4741C78.64 22.6062 78.8986 22.7919 79.1105 23.0203C79.3225 23.2486 79.4836 23.5149 79.5841 23.8032C79.6847 24.0915 79.7227 24.396 79.6959 24.6985C79.721 24.9991 79.6816 25.3014 79.58 25.5873C79.4785 25.8732 79.3168 26.1369 79.1048 26.3625C78.8927 26.5881 78.6346 26.771 78.3459 26.9004C78.0571 27.0297 77.7437 27.1028 77.4244 27.1152ZM101.805 16.6585H97.3342V28.4527H99.1999V23.9842H101.805C102.333 24.0115 102.861 23.937 103.357 23.7653C103.854 23.5935 104.308 23.3282 104.691 22.9853C105.075 22.6425 105.381 22.2295 105.59 21.7715C105.799 21.3134 105.907 20.82 105.907 20.3214C105.907 19.8227 105.799 19.3293 105.59 18.8713C105.381 18.4133 105.075 18.0002 104.691 17.6574C104.308 17.3146 103.854 17.0492 103.357 16.8775C102.861 16.7057 102.333 16.6312 101.805 16.6585ZM101.854 22.3429H99.1999V18.3H101.854C102.139 18.2944 102.422 18.3426 102.687 18.4417C102.952 18.5408 103.194 18.6888 103.398 18.877C103.601 19.0653 103.763 19.29 103.874 19.538C103.984 19.7861 104.041 20.0524 104.041 20.3214C104.041 20.5905 103.984 20.8568 103.874 21.1048C103.763 21.3528 103.601 21.5776 103.398 21.7658C103.194 21.9541 102.952 22.1021 102.687 22.2012C102.422 22.3003 102.139 22.3484 101.854 22.3429ZM113.385 20.6491C112.704 20.6116 112.026 20.7625 111.435 21.0832C110.844 21.404 110.364 21.8807 110.056 22.4547L111.713 23.1072C111.877 22.8223 112.126 22.5887 112.428 22.4351C112.731 22.2815 113.075 22.2145 113.417 22.2423C113.891 22.1987 114.363 22.3339 114.731 22.6184C115.099 22.9028 115.332 23.3132 115.38 23.7596V23.881C114.78 23.5807 114.112 23.4244 113.433 23.4258C111.648 23.4258 109.831 24.3514 109.831 26.0812C109.848 26.4457 109.943 26.8033 110.11 27.1326C110.276 27.4619 110.511 27.7563 110.801 27.9983C111.09 28.2403 111.428 28.425 111.795 28.5414C112.162 28.6577 112.549 28.7035 112.935 28.6758C113.405 28.7019 113.873 28.6087 114.292 28.4059C114.711 28.203 115.064 27.8981 115.315 27.5226H115.38V28.4331H117.181V23.9114C117.181 21.8175 115.524 20.6491 113.385 20.6491ZM113.16 27.1129C112.549 27.1129 111.696 26.8247 111.696 26.1115C111.696 25.2012 112.758 24.8521 113.675 24.8521C114.27 24.8371 114.859 24.9734 115.38 25.2466C115.311 25.7582 115.049 26.229 114.64 26.5721C114.232 26.9152 113.707 27.1073 113.16 27.1129ZM123.743 20.9071L121.604 26.0204H121.539L119.32 20.9071H117.31L120.639 28.0537L118.741 32.0291H120.687L125.818 20.9071H123.743ZM106.936 28.4527H108.801V16.6585H106.936V28.4527Z" fill="white"/>
<path d="M10.4352 7.26136C10.1073 7.63126 9.9417 8.10544 9.97238 8.58678V29.4517C9.94161 29.933 10.1072 30.4073 10.4352 30.7771L10.5092 30.8451L22.8982 19.1571V18.8814L10.5092 7.19287L10.4352 7.26136Z" fill="url(#paint0_linear_981_9291)"/>
<path d="M27.0278 23.055L22.8984 19.1574V18.8816L27.0288 14.9849L27.1219 15.035L32.0147 17.6578C33.4123 18.4069 33.4123 19.6326 32.0147 20.3821L27.1219 23.0049L27.0278 23.055Z" fill="url(#paint1_linear_981_9291)"/>
<path d="M27.122 23.0045L22.8985 19.0195L10.4355 30.7774C10.7203 31.0143 11.084 31.1498 11.4635 31.1604C11.843 31.171 12.2145 31.056 12.5136 30.8353L27.122 23.0045Z" fill="url(#paint2_linear_981_9291)"/>
<path d="M27.122 15.0345L12.5136 7.2037C12.2145 6.98303 11.843 6.86802 11.4635 6.8786C11.084 6.88918 10.7203 7.02468 10.4355 7.26163L22.8985 19.0195L27.122 15.0345Z" fill="url(#paint3_linear_981_9291)"/>
<path opacity="0.2" d="M27.0289 22.9165L12.5136 30.6972C12.2261 30.9038 11.8751 31.0165 11.5136 31.0183C11.1522 31.0201 10.8 30.911 10.51 30.7073L10.4355 30.7776L10.5095 30.8456L10.51 30.8452C10.7999 31.0489 11.1522 31.1581 11.5136 31.1563C11.8751 31.1545 12.2261 31.0417 12.5136 30.8351L27.122 23.0042L27.0289 22.9165Z" fill="black"/>
<path opacity="0.12" d="M10.4352 30.6391C10.1073 30.2694 9.94171 29.7955 9.97236 29.3145V29.4522C9.94169 29.9333 10.1073 30.4072 10.4352 30.7769L10.5097 30.7066L10.4352 30.6391Z" fill="black"/>
<path opacity="0.12" d="M32.0142 20.2439L27.0283 22.9168L27.1214 23.0046L32.0142 20.3818C32.302 20.2639 32.5511 20.0754 32.7355 19.8359C32.9198 19.5964 33.0328 19.3147 33.0625 19.02C33.0007 19.2869 32.8737 19.5364 32.6917 19.7489C32.5098 19.9613 32.2778 20.1308 32.0142 20.2439Z" fill="black"/>
<path opacity="0.25" d="M12.5136 7.34213L32.0148 17.7953C32.2784 17.9084 32.5105 18.0779 32.6925 18.2905C32.8744 18.503 33.0013 18.7527 33.0631 19.0197C33.0335 18.7249 32.9207 18.443 32.7363 18.2034C32.5519 17.9638 32.3027 17.7752 32.0148 17.6575L12.5136 7.20429C11.116 6.45512 9.97266 7.0774 9.97266 8.58764V8.72547C9.97266 7.21533 11.116 6.59305 12.5136 7.34213Z" fill="white"/>
</g>
<defs>
<linearGradient id="paint0_linear_981_9291" x1="21.7995" y1="8.36679" x2="5.99337" y2="25.1208" gradientUnits="userSpaceOnUse">
<stop stop-color="#00A0FF"/>
<stop offset="0.00657" stop-color="#00A1FF"/>
<stop offset="0.2601" stop-color="#00BEFF"/>
<stop offset="0.5122" stop-color="#00D2FF"/>
<stop offset="0.7604" stop-color="#00DFFF"/>
<stop offset="1" stop-color="#00E3FF"/>
</linearGradient>
<linearGradient id="paint1_linear_981_9291" x1="33.8344" y1="19.0199" x2="9.63752" y2="19.0199" gradientUnits="userSpaceOnUse">
<stop stop-color="#FFE000"/>
<stop offset="0.4087" stop-color="#FFBD00"/>
<stop offset="0.7754" stop-color="#FFA500"/>
<stop offset="1" stop-color="#FF9C00"/>
</linearGradient>
<linearGradient id="paint2_linear_981_9291" x1="24.8271" y1="21.1848" x2="3.3927" y2="43.9045" gradientUnits="userSpaceOnUse">
<stop stop-color="#FF3A44"/>
<stop offset="1" stop-color="#C31162"/>
</linearGradient>
<linearGradient id="paint3_linear_981_9291" x1="7.29748" y1="0.316298" x2="16.8688" y2="10.4616" gradientUnits="userSpaceOnUse">
<stop stop-color="#32A071"/>
<stop offset="0.0685" stop-color="#2DA771"/>
<stop offset="0.4762" stop-color="#15CF74"/>
<stop offset="0.8009" stop-color="#06E775"/>
<stop offset="1" stop-color="#00F076"/>
</linearGradient>
<clipPath id="clip0_981_9291">
<rect width="135" height="37.7372" fill="white"/>
</clipPath>
</defs>
</svg>
