<svg width="1440" height="758" viewBox="0 0 1440 758" fill="none" xmlns="http://www.w3.org/2000/svg">
<path d="M0 0H1440V458C1440 623.685 1305.69 758 1140 758H0V0Z" fill="url(#paint0_linear_981_7336)"/>
<mask id="mask0_981_7336" style="mask-type:alpha" maskUnits="userSpaceOnUse" x="0" y="0" width="1440" height="758">
<path d="M0 0H1440V758H0V0Z" fill="url(#paint1_linear_981_7336)"/>
</mask>
<g mask="url(#mask0_981_7336)">
<path d="M-96 365.25C-96 256.312 -7.68817 168 101.25 168V168C210.188 168 298.5 257.358 298.5 366.296V366.296C298.5 476.397 209.246 566.708 99.146 566.708H-96V365.25Z" fill="white" fill-opacity="0.07"/>
</g>
<g opacity="0.4">
<path d="M1433.63 246.873V248.121H1432.17V249.994H1431.19V248.121H1429.72V246.873H1431.19V245H1432.17V246.873H1433.63Z" fill="white"/>
<path d="M1433.63 261.853V263.101H1432.17V264.974H1431.19V263.101H1429.72V261.853H1431.19V259.98H1432.17V261.853H1433.63Z" fill="white"/>
<path d="M1433.63 276.834V278.082H1432.17V279.955H1431.19V278.082H1429.72V276.834H1431.19V274.961H1432.17V276.834H1433.63Z" fill="white"/>
<path d="M1433.63 291.814V293.063H1432.17V294.935H1431.19V293.063H1429.72V291.814H1431.19V289.942H1432.17V291.814H1433.63Z" fill="white"/>
<path d="M1433.63 306.795V308.043H1432.17V309.916H1431.19V308.043H1429.72V306.795H1431.19V304.922H1432.17V306.795H1433.63Z" fill="white"/>
<path d="M1433.63 321.775V323.024H1432.17V324.896H1431.19V323.024H1429.72V321.775H1431.19V319.903H1432.17V321.775H1433.63Z" fill="white"/>
<path d="M1433.63 336.756V338.005H1432.17V339.877H1431.19V338.005H1429.72V336.756H1431.19V334.884H1432.17V336.756H1433.63Z" fill="white"/>
<path d="M1433.63 351.737V352.985H1432.17V354.858H1431.19V352.985H1429.72V351.737H1431.19V349.864H1432.17V351.737H1433.63Z" fill="white"/>
<path d="M1433.63 366.718V367.966H1432.17V369.839H1431.19V367.966H1429.72V366.718H1431.19V364.845H1432.17V366.718H1433.63Z" fill="white"/>
<path d="M1433.63 381.698V382.947H1432.17V384.819H1431.19V382.947H1429.72V381.698H1431.19V379.826H1432.17V381.698H1433.63Z" fill="white"/>
<path d="M1433.63 396.679V397.928H1432.17V399.8H1431.19V397.928H1429.72V396.679H1431.19V394.807H1432.17V396.679H1433.63Z" fill="white"/>
<path d="M1433.63 411.659V412.908H1432.17V414.78H1431.19V412.908H1429.72V411.659H1431.19V409.787H1432.17V411.659H1433.63Z" fill="white"/>
<path d="M1433.63 426.64V427.889H1432.17V429.761H1431.19V427.889H1429.72V426.64H1431.19V424.768H1432.17V426.64H1433.63Z" fill="white"/>
<path d="M1433.63 441.621V442.869H1432.17V444.742H1431.19V442.869H1429.72V441.621H1431.19V439.748H1432.17V441.621H1433.63Z" fill="white"/>
<path d="M1433.63 456.601V457.849H1432.17V459.722H1431.19V457.849H1429.72V456.601H1431.19V454.729H1432.17V456.601H1433.63Z" fill="white"/>
<path d="M1433.63 471.582V472.83H1432.17V474.703H1431.19V472.83H1429.72V471.582H1431.19V469.709H1432.17V471.582H1433.63Z" fill="white"/>
<path d="M1433.63 486.563V487.811H1432.17V489.684H1431.19V487.811H1429.72V486.563H1431.19V484.69H1432.17V486.563H1433.63Z" fill="white"/>
<path d="M1433.63 501.543V502.792H1432.17V504.664H1431.19V502.792H1429.72V501.543H1431.19V499.671H1432.17V501.543H1433.63Z" fill="white"/>
<path d="M1433.63 516.524V517.772H1432.17V519.645H1431.19V517.772H1429.72V516.524H1431.19V514.651H1432.17V516.524H1433.63Z" fill="white"/>
<path d="M1433.63 531.504V532.753H1432.17V534.625H1431.19V532.753H1429.72V531.504H1431.19V529.632H1432.17V531.504H1433.63Z" fill="white"/>
<path d="M1421.91 246.873V248.121H1420.45V249.994H1419.47V248.121H1418.01V246.873H1419.47V245H1420.45V246.873H1421.91Z" fill="white"/>
<path d="M1421.91 261.853V263.101H1420.45V264.974H1419.47V263.101H1418.01V261.853H1419.47V259.98H1420.45V261.853H1421.91Z" fill="white"/>
<path d="M1421.91 276.834V278.082H1420.45V279.955H1419.47V278.082H1418.01V276.834H1419.47V274.961H1420.45V276.834H1421.91Z" fill="white"/>
<path d="M1421.91 291.814V293.063H1420.45V294.935H1419.47V293.063H1418.01V291.814H1419.47V289.942H1420.45V291.814H1421.91Z" fill="white"/>
<path d="M1421.91 306.795V308.043H1420.45V309.916H1419.47V308.043H1418.01V306.795H1419.47V304.922H1420.45V306.795H1421.91Z" fill="white"/>
<path d="M1421.91 321.775V323.024H1420.45V324.896H1419.47V323.024H1418.01V321.775H1419.47V319.903H1420.45V321.775H1421.91Z" fill="white"/>
<path d="M1421.91 336.756V338.005H1420.45V339.877H1419.47V338.005H1418.01V336.756H1419.47V334.884H1420.45V336.756H1421.91Z" fill="white"/>
<path d="M1421.91 351.737V352.985H1420.45V354.858H1419.47V352.985H1418.01V351.737H1419.47V349.864H1420.45V351.737H1421.91Z" fill="white"/>
<path d="M1421.91 366.718V367.966H1420.45V369.839H1419.47V367.966H1418.01V366.718H1419.47V364.845H1420.45V366.718H1421.91Z" fill="white"/>
<path d="M1421.91 381.698V382.947H1420.45V384.819H1419.47V382.947H1418.01V381.698H1419.47V379.826H1420.45V381.698H1421.91Z" fill="white"/>
<path d="M1421.91 396.679V397.928H1420.45V399.8H1419.47V397.928H1418.01V396.679H1419.47V394.807H1420.45V396.679H1421.91Z" fill="white"/>
<path d="M1421.91 411.659V412.908H1420.45V414.78H1419.47V412.908H1418.01V411.659H1419.47V409.787H1420.45V411.659H1421.91Z" fill="white"/>
<path d="M1421.91 426.64V427.889H1420.45V429.761H1419.47V427.889H1418.01V426.64H1419.47V424.768H1420.45V426.64H1421.91Z" fill="white"/>
<path d="M1421.91 441.621V442.869H1420.45V444.742H1419.47V442.869H1418.01V441.621H1419.47V439.748H1420.45V441.621H1421.91Z" fill="white"/>
<path d="M1421.91 456.601V457.849H1420.45V459.722H1419.47V457.849H1418.01V456.601H1419.47V454.729H1420.45V456.601H1421.91Z" fill="white"/>
<path d="M1421.91 471.582V472.83H1420.45V474.703H1419.47V472.83H1418.01V471.582H1419.47V469.709H1420.45V471.582H1421.91Z" fill="white"/>
<path d="M1421.91 486.563V487.811H1420.45V489.684H1419.47V487.811H1418.01V486.563H1419.47V484.69H1420.45V486.563H1421.91Z" fill="white"/>
<path d="M1421.91 501.543V502.792H1420.45V504.664H1419.47V502.792H1418.01V501.543H1419.47V499.671H1420.45V501.543H1421.91Z" fill="white"/>
<path d="M1421.91 516.524V517.772H1420.45V519.645H1419.47V517.772H1418.01V516.524H1419.47V514.651H1420.45V516.524H1421.91Z" fill="white"/>
<path d="M1421.91 531.504V532.753H1420.45V534.625H1419.47V532.753H1418.01V531.504H1419.47V529.632H1420.45V531.504H1421.91Z" fill="white"/>
<path d="M1410.2 246.873V248.121H1408.73V249.994H1407.76V248.121H1406.29V246.873H1407.76V245H1408.73V246.873H1410.2Z" fill="white"/>
<path d="M1410.2 261.853V263.101H1408.73V264.974H1407.76V263.101H1406.29V261.853H1407.76V259.98H1408.73V261.853H1410.2Z" fill="white"/>
<path d="M1410.2 276.834V278.082H1408.73V279.955H1407.76V278.082H1406.29V276.834H1407.76V274.961H1408.73V276.834H1410.2Z" fill="white"/>
<path d="M1410.2 291.814V293.063H1408.73V294.935H1407.76V293.063H1406.29V291.814H1407.76V289.942H1408.73V291.814H1410.2Z" fill="white"/>
<path d="M1410.2 306.795V308.043H1408.73V309.916H1407.76V308.043H1406.29V306.795H1407.76V304.922H1408.73V306.795H1410.2Z" fill="white"/>
<path d="M1410.2 321.775V323.024H1408.73V324.896H1407.76V323.024H1406.29V321.775H1407.76V319.903H1408.73V321.775H1410.2Z" fill="white"/>
<path d="M1410.2 336.756V338.005H1408.73V339.877H1407.76V338.005H1406.29V336.756H1407.76V334.884H1408.73V336.756H1410.2Z" fill="white"/>
<path d="M1410.2 351.737V352.985H1408.73V354.858H1407.76V352.985H1406.29V351.737H1407.76V349.864H1408.73V351.737H1410.2Z" fill="white"/>
<path d="M1410.2 366.718V367.966H1408.73V369.839H1407.76V367.966H1406.29V366.718H1407.76V364.845H1408.73V366.718H1410.2Z" fill="white"/>
<path d="M1410.2 381.698V382.947H1408.73V384.819H1407.76V382.947H1406.29V381.698H1407.76V379.826H1408.73V381.698H1410.2Z" fill="white"/>
<path d="M1410.2 396.679V397.928H1408.73V399.8H1407.76V397.928H1406.29V396.679H1407.76V394.807H1408.73V396.679H1410.2Z" fill="white"/>
<path d="M1410.2 411.659V412.908H1408.73V414.78H1407.76V412.908H1406.29V411.659H1407.76V409.787H1408.73V411.659H1410.2Z" fill="white"/>
<path d="M1410.2 426.64V427.889H1408.73V429.761H1407.76V427.889H1406.29V426.64H1407.76V424.768H1408.73V426.64H1410.2Z" fill="white"/>
<path d="M1410.2 441.621V442.869H1408.73V444.742H1407.76V442.869H1406.29V441.621H1407.76V439.748H1408.73V441.621H1410.2Z" fill="white"/>
<path d="M1410.2 456.601V457.849H1408.73V459.722H1407.76V457.849H1406.29V456.601H1407.76V454.729H1408.73V456.601H1410.2Z" fill="white"/>
<path d="M1410.2 471.582V472.83H1408.73V474.703H1407.76V472.83H1406.29V471.582H1407.76V469.709H1408.73V471.582H1410.2Z" fill="white"/>
<path d="M1410.2 486.563V487.811H1408.73V489.684H1407.76V487.811H1406.29V486.563H1407.76V484.69H1408.73V486.563H1410.2Z" fill="white"/>
<path d="M1410.2 501.543V502.792H1408.73V504.664H1407.76V502.792H1406.29V501.543H1407.76V499.671H1408.73V501.543H1410.2Z" fill="white"/>
<path d="M1410.2 516.524V517.772H1408.73V519.645H1407.76V517.772H1406.29V516.524H1407.76V514.651H1408.73V516.524H1410.2Z" fill="white"/>
<path d="M1410.2 531.504V532.753H1408.73V534.625H1407.76V532.753H1406.29V531.504H1407.76V529.632H1408.73V531.504H1410.2Z" fill="white"/>
<path d="M1398.48 246.873V248.121H1397.02V249.994H1396.04V248.121H1394.58V246.873H1396.04V245H1397.02V246.873H1398.48Z" fill="white"/>
<path d="M1398.48 261.853V263.101H1397.02V264.974H1396.04V263.101H1394.58V261.853H1396.04V259.98H1397.02V261.853H1398.48Z" fill="white"/>
<path d="M1398.48 276.834V278.082H1397.02V279.955H1396.04V278.082H1394.58V276.834H1396.04V274.961H1397.02V276.834H1398.48Z" fill="white"/>
<path d="M1398.48 291.814V293.063H1397.02V294.935H1396.04V293.063H1394.58V291.814H1396.04V289.942H1397.02V291.814H1398.48Z" fill="white"/>
<path d="M1398.48 306.795V308.043H1397.02V309.916H1396.04V308.043H1394.58V306.795H1396.04V304.922H1397.02V306.795H1398.48Z" fill="white"/>
<path d="M1398.48 321.775V323.024H1397.02V324.896H1396.04V323.024H1394.58V321.775H1396.04V319.903H1397.02V321.775H1398.48Z" fill="white"/>
<path d="M1398.48 336.756V338.005H1397.02V339.877H1396.04V338.005H1394.58V336.756H1396.04V334.884H1397.02V336.756H1398.48Z" fill="white"/>
<path d="M1398.48 351.737V352.985H1397.02V354.858H1396.04V352.985H1394.58V351.737H1396.04V349.864H1397.02V351.737H1398.48Z" fill="white"/>
<path d="M1398.48 366.718V367.966H1397.02V369.839H1396.04V367.966H1394.58V366.718H1396.04V364.845H1397.02V366.718H1398.48Z" fill="white"/>
<path d="M1398.48 381.698V382.947H1397.02V384.819H1396.04V382.947H1394.58V381.698H1396.04V379.826H1397.02V381.698H1398.48Z" fill="white"/>
<path d="M1398.48 396.679V397.928H1397.02V399.8H1396.04V397.928H1394.58V396.679H1396.04V394.807H1397.02V396.679H1398.48Z" fill="white"/>
<path d="M1398.48 411.659V412.908H1397.02V414.78H1396.04V412.908H1394.58V411.659H1396.04V409.787H1397.02V411.659H1398.48Z" fill="white"/>
<path d="M1398.48 426.64V427.889H1397.02V429.761H1396.04V427.889H1394.58V426.64H1396.04V424.768H1397.02V426.64H1398.48Z" fill="white"/>
<path d="M1398.48 441.621V442.869H1397.02V444.742H1396.04V442.869H1394.58V441.621H1396.04V439.748H1397.02V441.621H1398.48Z" fill="white"/>
<path d="M1398.48 456.601V457.849H1397.02V459.722H1396.04V457.849H1394.58V456.601H1396.04V454.729H1397.02V456.601H1398.48Z" fill="white"/>
<path d="M1398.48 471.582V472.83H1397.02V474.703H1396.04V472.83H1394.58V471.582H1396.04V469.709H1397.02V471.582H1398.48Z" fill="white"/>
<path d="M1398.48 486.563V487.811H1397.02V489.684H1396.04V487.811H1394.58V486.563H1396.04V484.69H1397.02V486.563H1398.48Z" fill="white"/>
<path d="M1398.48 501.543V502.792H1397.02V504.664H1396.04V502.792H1394.58V501.543H1396.04V499.671H1397.02V501.543H1398.48Z" fill="white"/>
<path d="M1398.48 516.524V517.772H1397.02V519.645H1396.04V517.772H1394.58V516.524H1396.04V514.651H1397.02V516.524H1398.48Z" fill="white"/>
<path d="M1398.48 531.504V532.753H1397.02V534.625H1396.04V532.753H1394.58V531.504H1396.04V529.632H1397.02V531.504H1398.48Z" fill="white"/>
<path d="M1386.77 246.873V248.121H1385.3V249.994H1384.33V248.121H1382.86V246.873H1384.33V245H1385.3V246.873H1386.77Z" fill="white"/>
<path d="M1386.77 261.853V263.101H1385.3V264.974H1384.33V263.101H1382.86V261.853H1384.33V259.98H1385.3V261.853H1386.77Z" fill="white"/>
<path d="M1386.77 276.834V278.082H1385.3V279.955H1384.33V278.082H1382.86V276.834H1384.33V274.961H1385.3V276.834H1386.77Z" fill="white"/>
<path d="M1386.77 291.814V293.063H1385.3V294.935H1384.33V293.063H1382.86V291.814H1384.33V289.942H1385.3V291.814H1386.77Z" fill="white"/>
<path d="M1386.77 306.795V308.043H1385.3V309.916H1384.33V308.043H1382.86V306.795H1384.33V304.922H1385.3V306.795H1386.77Z" fill="white"/>
<path d="M1386.77 321.775V323.024H1385.3V324.896H1384.33V323.024H1382.86V321.775H1384.33V319.903H1385.3V321.775H1386.77Z" fill="white"/>
<path d="M1386.77 336.756V338.005H1385.3V339.877H1384.33V338.005H1382.86V336.756H1384.33V334.884H1385.3V336.756H1386.77Z" fill="white"/>
<path d="M1386.77 351.737V352.985H1385.3V354.858H1384.33V352.985H1382.86V351.737H1384.33V349.864H1385.3V351.737H1386.77Z" fill="white"/>
<path d="M1386.77 366.718V367.966H1385.3V369.839H1384.33V367.966H1382.86V366.718H1384.33V364.845H1385.3V366.718H1386.77Z" fill="white"/>
<path d="M1386.77 381.698V382.947H1385.3V384.819H1384.33V382.947H1382.86V381.698H1384.33V379.826H1385.3V381.698H1386.77Z" fill="white"/>
<path d="M1386.77 396.679V397.928H1385.3V399.8H1384.33V397.928H1382.86V396.679H1384.33V394.807H1385.3V396.679H1386.77Z" fill="white"/>
<path d="M1386.77 411.659V412.908H1385.3V414.78H1384.33V412.908H1382.86V411.659H1384.33V409.787H1385.3V411.659H1386.77Z" fill="white"/>
<path d="M1386.77 426.64V427.889H1385.3V429.761H1384.33V427.889H1382.86V426.64H1384.33V424.768H1385.3V426.64H1386.77Z" fill="white"/>
<path d="M1386.77 441.621V442.869H1385.3V444.742H1384.33V442.869H1382.86V441.621H1384.33V439.748H1385.3V441.621H1386.77Z" fill="white"/>
<path d="M1386.77 456.601V457.849H1385.3V459.722H1384.33V457.849H1382.86V456.601H1384.33V454.729H1385.3V456.601H1386.77Z" fill="white"/>
<path d="M1386.77 471.582V472.83H1385.3V474.703H1384.33V472.83H1382.86V471.582H1384.33V469.709H1385.3V471.582H1386.77Z" fill="white"/>
<path d="M1386.77 486.563V487.811H1385.3V489.684H1384.33V487.811H1382.86V486.563H1384.33V484.69H1385.3V486.563H1386.77Z" fill="white"/>
<path d="M1386.77 501.543V502.792H1385.3V504.664H1384.33V502.792H1382.86V501.543H1384.33V499.671H1385.3V501.543H1386.77Z" fill="white"/>
<path d="M1386.77 516.524V517.772H1385.3V519.645H1384.33V517.772H1382.86V516.524H1384.33V514.651H1385.3V516.524H1386.77Z" fill="white"/>
<path d="M1386.77 531.504V532.753H1385.3V534.625H1384.33V532.753H1382.86V531.504H1384.33V529.632H1385.3V531.504H1386.77Z" fill="white"/>
<path d="M1375.05 246.873V248.121H1373.59V249.994H1372.61V248.121H1371.15V246.873H1372.61V245H1373.59V246.873H1375.05Z" fill="white"/>
<path d="M1375.05 261.853V263.101H1373.59V264.974H1372.61V263.101H1371.15V261.853H1372.61V259.98H1373.59V261.853H1375.05Z" fill="white"/>
<path d="M1375.05 276.834V278.082H1373.59V279.955H1372.61V278.082H1371.15V276.834H1372.61V274.961H1373.59V276.834H1375.05Z" fill="white"/>
<path d="M1375.05 291.814V293.063H1373.59V294.935H1372.61V293.063H1371.15V291.814H1372.61V289.942H1373.59V291.814H1375.05Z" fill="white"/>
<path d="M1375.05 306.795V308.043H1373.59V309.916H1372.61V308.043H1371.15V306.795H1372.61V304.922H1373.59V306.795H1375.05Z" fill="white"/>
<path d="M1375.05 321.775V323.024H1373.59V324.896H1372.61V323.024H1371.15V321.775H1372.61V319.903H1373.59V321.775H1375.05Z" fill="white"/>
<path d="M1375.05 336.756V338.005H1373.59V339.877H1372.61V338.005H1371.15V336.756H1372.61V334.884H1373.59V336.756H1375.05Z" fill="white"/>
<path d="M1375.05 351.737V352.985H1373.59V354.858H1372.61V352.985H1371.15V351.737H1372.61V349.864H1373.59V351.737H1375.05Z" fill="white"/>
<path d="M1375.05 366.718V367.966H1373.59V369.839H1372.61V367.966H1371.15V366.718H1372.61V364.845H1373.59V366.718H1375.05Z" fill="white"/>
<path d="M1375.05 381.698V382.947H1373.59V384.819H1372.61V382.947H1371.15V381.698H1372.61V379.826H1373.59V381.698H1375.05Z" fill="white"/>
<path d="M1375.05 396.679V397.928H1373.59V399.8H1372.61V397.928H1371.15V396.679H1372.61V394.807H1373.59V396.679H1375.05Z" fill="white"/>
<path d="M1375.05 411.659V412.908H1373.59V414.78H1372.61V412.908H1371.15V411.659H1372.61V409.787H1373.59V411.659H1375.05Z" fill="white"/>
<path d="M1375.05 426.64V427.889H1373.59V429.761H1372.61V427.889H1371.15V426.64H1372.61V424.768H1373.59V426.64H1375.05Z" fill="white"/>
<path d="M1375.05 441.621V442.869H1373.59V444.742H1372.61V442.869H1371.15V441.621H1372.61V439.748H1373.59V441.621H1375.05Z" fill="white"/>
<path d="M1375.05 456.601V457.849H1373.59V459.722H1372.61V457.849H1371.15V456.601H1372.61V454.729H1373.59V456.601H1375.05Z" fill="white"/>
<path d="M1375.05 471.582V472.83H1373.59V474.703H1372.61V472.83H1371.15V471.582H1372.61V469.709H1373.59V471.582H1375.05Z" fill="white"/>
<path d="M1375.05 486.563V487.811H1373.59V489.684H1372.61V487.811H1371.15V486.563H1372.61V484.69H1373.59V486.563H1375.05Z" fill="white"/>
<path d="M1375.05 501.543V502.792H1373.59V504.664H1372.61V502.792H1371.15V501.543H1372.61V499.671H1373.59V501.543H1375.05Z" fill="white"/>
<path d="M1375.05 516.524V517.772H1373.59V519.645H1372.61V517.772H1371.15V516.524H1372.61V514.651H1373.59V516.524H1375.05Z" fill="white"/>
<path d="M1375.05 531.504V532.753H1373.59V534.625H1372.61V532.753H1371.15V531.504H1372.61V529.632H1373.59V531.504H1375.05Z" fill="white"/>
<path d="M1363.34 246.873V248.121H1361.87V249.994H1360.9V248.121H1359.43V246.873H1360.9V245H1361.87V246.873H1363.34Z" fill="white"/>
<path d="M1363.34 261.853V263.101H1361.87V264.974H1360.9V263.101H1359.43V261.853H1360.9V259.98H1361.87V261.853H1363.34Z" fill="white"/>
<path d="M1363.34 276.834V278.082H1361.87V279.955H1360.9V278.082H1359.43V276.834H1360.9V274.961H1361.87V276.834H1363.34Z" fill="white"/>
<path d="M1363.34 291.814V293.063H1361.87V294.935H1360.9V293.063H1359.43V291.814H1360.9V289.942H1361.87V291.814H1363.34Z" fill="white"/>
<path d="M1363.34 306.795V308.043H1361.87V309.916H1360.9V308.043H1359.43V306.795H1360.9V304.922H1361.87V306.795H1363.34Z" fill="white"/>
<path d="M1363.34 321.775V323.024H1361.87V324.896H1360.9V323.024H1359.43V321.775H1360.9V319.903H1361.87V321.775H1363.34Z" fill="white"/>
<path d="M1363.34 336.756V338.005H1361.87V339.877H1360.9V338.005H1359.43V336.756H1360.9V334.884H1361.87V336.756H1363.34Z" fill="white"/>
<path d="M1363.34 351.737V352.985H1361.87V354.858H1360.9V352.985H1359.43V351.737H1360.9V349.864H1361.87V351.737H1363.34Z" fill="white"/>
<path d="M1363.34 366.718V367.966H1361.87V369.839H1360.9V367.966H1359.43V366.718H1360.9V364.845H1361.87V366.718H1363.34Z" fill="white"/>
<path d="M1363.34 381.698V382.947H1361.87V384.819H1360.9V382.947H1359.43V381.698H1360.9V379.826H1361.87V381.698H1363.34Z" fill="white"/>
<path d="M1363.34 396.679V397.928H1361.87V399.8H1360.9V397.928H1359.43V396.679H1360.9V394.807H1361.87V396.679H1363.34Z" fill="white"/>
<path d="M1363.34 411.659V412.908H1361.87V414.78H1360.9V412.908H1359.43V411.659H1360.9V409.787H1361.87V411.659H1363.34Z" fill="white"/>
<path d="M1363.34 426.64V427.889H1361.87V429.761H1360.9V427.889H1359.43V426.64H1360.9V424.768H1361.87V426.64H1363.34Z" fill="white"/>
<path d="M1363.34 441.621V442.869H1361.87V444.742H1360.9V442.869H1359.43V441.621H1360.9V439.748H1361.87V441.621H1363.34Z" fill="white"/>
<path d="M1363.34 456.601V457.849H1361.87V459.722H1360.9V457.849H1359.43V456.601H1360.9V454.729H1361.87V456.601H1363.34Z" fill="white"/>
<path d="M1363.34 471.582V472.83H1361.87V474.703H1360.9V472.83H1359.43V471.582H1360.9V469.709H1361.87V471.582H1363.34Z" fill="white"/>
<path d="M1363.34 486.563V487.811H1361.87V489.684H1360.9V487.811H1359.43V486.563H1360.9V484.69H1361.87V486.563H1363.34Z" fill="white"/>
<path d="M1363.34 501.543V502.792H1361.87V504.664H1360.9V502.792H1359.43V501.543H1360.9V499.671H1361.87V501.543H1363.34Z" fill="white"/>
<path d="M1363.34 516.524V517.772H1361.87V519.645H1360.9V517.772H1359.43V516.524H1360.9V514.651H1361.87V516.524H1363.34Z" fill="white"/>
<path d="M1363.34 531.504V532.753H1361.87V534.625H1360.9V532.753H1359.43V531.504H1360.9V529.632H1361.87V531.504H1363.34Z" fill="white"/>
<path d="M1351.62 246.873V248.121H1350.16V249.994H1349.18V248.121H1347.72V246.873H1349.18V245H1350.16V246.873H1351.62Z" fill="white"/>
<path d="M1351.62 261.853V263.101H1350.16V264.974H1349.18V263.101H1347.71V261.853H1349.18V259.98H1350.16V261.853H1351.62Z" fill="white"/>
<path d="M1351.62 276.834V278.082H1350.16V279.955H1349.18V278.082H1347.71V276.834H1349.18V274.961H1350.16V276.834H1351.62Z" fill="white"/>
<path d="M1351.62 291.814V293.063H1350.16V294.935H1349.18V293.063H1347.71V291.814H1349.18V289.942H1350.16V291.814H1351.62Z" fill="white"/>
<path d="M1351.62 306.795V308.043H1350.16V309.916H1349.18V308.043H1347.71V306.795H1349.18V304.922H1350.16V306.795H1351.62Z" fill="white"/>
<path d="M1351.62 321.775V323.024H1350.16V324.896H1349.18V323.024H1347.71V321.775H1349.18V319.903H1350.16V321.775H1351.62Z" fill="white"/>
<path d="M1351.62 336.756V338.005H1350.16V339.877H1349.18V338.005H1347.71V336.756H1349.18V334.884H1350.16V336.756H1351.62Z" fill="white"/>
<path d="M1351.62 351.737V352.985H1350.16V354.858H1349.18V352.985H1347.71V351.737H1349.18V349.864H1350.16V351.737H1351.62Z" fill="white"/>
<path d="M1351.62 366.718V367.966H1350.16V369.839H1349.18V367.966H1347.71V366.718H1349.18V364.845H1350.16V366.718H1351.62Z" fill="white"/>
<path d="M1351.62 381.698V382.947H1350.16V384.819H1349.18V382.947H1347.71V381.698H1349.18V379.826H1350.16V381.698H1351.62Z" fill="white"/>
<path d="M1351.62 396.679V397.928H1350.16V399.8H1349.18V397.928H1347.71V396.679H1349.18V394.807H1350.16V396.679H1351.62Z" fill="white"/>
<path d="M1351.62 411.659V412.908H1350.16V414.78H1349.18V412.908H1347.71V411.659H1349.18V409.787H1350.16V411.659H1351.62Z" fill="white"/>
<path d="M1351.62 426.64V427.889H1350.16V429.761H1349.18V427.889H1347.71V426.64H1349.18V424.768H1350.16V426.64H1351.62Z" fill="white"/>
<path d="M1351.62 441.621V442.869H1350.16V444.742H1349.18V442.869H1347.71V441.621H1349.18V439.748H1350.16V441.621H1351.62Z" fill="white"/>
<path d="M1351.62 456.601V457.849H1350.16V459.722H1349.18V457.849H1347.71V456.601H1349.18V454.729H1350.16V456.601H1351.62Z" fill="white"/>
<path d="M1351.62 471.582V472.83H1350.16V474.703H1349.18V472.83H1347.71V471.582H1349.18V469.709H1350.16V471.582H1351.62Z" fill="white"/>
<path d="M1351.62 486.563V487.811H1350.16V489.684H1349.18V487.811H1347.71V486.563H1349.18V484.69H1350.16V486.563H1351.62Z" fill="white"/>
<path d="M1351.62 501.543V502.792H1350.16V504.664H1349.18V502.792H1347.71V501.543H1349.18V499.671H1350.16V501.543H1351.62Z" fill="white"/>
<path d="M1351.62 516.524V517.772H1350.16V519.645H1349.18V517.772H1347.71V516.524H1349.18V514.651H1350.16V516.524H1351.62Z" fill="white"/>
<path d="M1351.62 531.504V532.753H1350.16V534.625H1349.18V532.753H1347.71V531.504H1349.18V529.632H1350.16V531.504H1351.62Z" fill="white"/>
<path d="M1339.91 246.873V248.121H1338.44V249.994H1337.46V248.121H1336V246.873H1337.46V245H1338.44V246.873H1339.91Z" fill="white"/>
<path d="M1339.91 261.853V263.101H1338.44V264.974H1337.46V263.101H1336V261.853H1337.46V259.98H1338.44V261.853H1339.91Z" fill="white"/>
<path d="M1339.91 276.834V278.082H1338.44V279.955H1337.46V278.082H1336V276.834H1337.46V274.961H1338.44V276.834H1339.91Z" fill="white"/>
<path d="M1339.91 291.814V293.063H1338.44V294.935H1337.46V293.063H1336V291.814H1337.46V289.942H1338.44V291.814H1339.91Z" fill="white"/>
<path d="M1339.91 306.795V308.043H1338.44V309.916H1337.46V308.043H1336V306.795H1337.46V304.922H1338.44V306.795H1339.91Z" fill="white"/>
<path d="M1339.91 321.775V323.024H1338.44V324.896H1337.46V323.024H1336V321.775H1337.46V319.903H1338.44V321.775H1339.91Z" fill="white"/>
<path d="M1339.91 336.756V338.005H1338.44V339.877H1337.46V338.005H1336V336.756H1337.46V334.884H1338.44V336.756H1339.91Z" fill="white"/>
<path d="M1339.91 351.737V352.985H1338.44V354.858H1337.46V352.985H1336V351.737H1337.46V349.864H1338.44V351.737H1339.91Z" fill="white"/>
<path d="M1339.91 366.718V367.966H1338.44V369.839H1337.46V367.966H1336V366.718H1337.46V364.845H1338.44V366.718H1339.91Z" fill="white"/>
<path d="M1339.91 381.698V382.947H1338.44V384.819H1337.46V382.947H1336V381.698H1337.46V379.826H1338.44V381.698H1339.91Z" fill="white"/>
<path d="M1339.91 396.679V397.928H1338.44V399.8H1337.46V397.928H1336V396.679H1337.46V394.807H1338.44V396.679H1339.91Z" fill="white"/>
<path d="M1339.91 411.659V412.908H1338.44V414.78H1337.46V412.908H1336V411.659H1337.46V409.787H1338.44V411.659H1339.91Z" fill="white"/>
<path d="M1339.91 426.64V427.889H1338.44V429.761H1337.46V427.889H1336V426.64H1337.46V424.768H1338.44V426.64H1339.91Z" fill="white"/>
<path d="M1339.91 441.621V442.869H1338.44V444.742H1337.46V442.869H1336V441.621H1337.46V439.748H1338.44V441.621H1339.91Z" fill="white"/>
<path d="M1339.91 456.601V457.849H1338.44V459.722H1337.46V457.849H1336V456.601H1337.46V454.729H1338.44V456.601H1339.91Z" fill="white"/>
<path d="M1339.91 471.582V472.83H1338.44V474.703H1337.46V472.83H1336V471.582H1337.46V469.709H1338.44V471.582H1339.91Z" fill="white"/>
<path d="M1339.91 486.563V487.811H1338.44V489.684H1337.46V487.811H1336V486.563H1337.46V484.69H1338.44V486.563H1339.91Z" fill="white"/>
<path d="M1339.91 501.543V502.792H1338.44V504.664H1337.46V502.792H1336V501.543H1337.46V499.671H1338.44V501.543H1339.91Z" fill="white"/>
<path d="M1339.91 516.524V517.772H1338.44V519.645H1337.46V517.772H1336V516.524H1337.46V514.651H1338.44V516.524H1339.91Z" fill="white"/>
<path d="M1339.91 531.504V532.753H1338.44V534.625H1337.46V532.753H1336V531.504H1337.46V529.632H1338.44V531.504H1339.91Z" fill="white"/>
</g>
<defs>
<linearGradient id="paint0_linear_981_7336" x1="-24.375" y1="-25.0139" x2="1558.84" y2="790.853" gradientUnits="userSpaceOnUse">
<stop/>
<stop offset="1"/>
</linearGradient>
<linearGradient id="paint1_linear_981_7336" x1="-24.375" y1="-25.0139" x2="1558.84" y2="790.853" gradientUnits="userSpaceOnUse">
<stop stop-color="#1E3C72"/>
<stop offset="1" stop-color="#2A5298"/>
</linearGradient>
</defs>
</svg>
