<svg width="348" height="340" viewBox="0 0 348 340" fill="none" xmlns="http://www.w3.org/2000/svg">
<path d="M24 13.3333H32L28 8L24 13.3333ZM24 18.6667H32L28 24L24 18.6667Z" fill="#D6B1FF"/>
<path d="M1.33333 0H9.33333V32H1.33333C0.979711 32 0.640572 31.8595 0.390523 31.6095C0.140475 31.3594 0 31.0203 0 30.6667V1.33333C0 0.979711 0.140475 0.640572 0.390523 0.390523C0.640572 0.140475 0.979711 0 1.33333 0Z" fill="#9A05EB"/>
<path d="M12 0H20C20.3536 0 20.6928 0.140475 20.9428 0.390523C21.1929 0.640572 21.3333 0.979711 21.3333 1.33333V30.6667C21.3333 31.0203 21.1929 31.3594 20.9428 31.6095C20.6928 31.8595 20.3536 32 20 32H12V0Z" fill="#2EC5CE"/>
<g opacity="0.4">
<path d="M352.518 244.238V245.73H350.565V247.969H349.263V245.73H347.311V244.238H349.263V242H350.565V244.238H352.518Z" fill="white"/>
<path d="M352.518 262.144V263.636H350.565V265.874H349.263V263.636H347.311V262.144H349.263V259.906H350.565V262.144H352.518Z" fill="white"/>
<path d="M352.518 280.049V281.541H350.565V283.78H349.263V281.541H347.311V280.049H349.263V277.811H350.565V280.049H352.518Z" fill="white"/>
<path d="M352.518 297.955V299.447H350.565V301.685H349.263V299.447H347.311V297.955H349.263V295.717H350.565V297.955H352.518Z" fill="white"/>
<path d="M352.518 315.861V317.353H350.565V319.591H349.263V317.353H347.311V315.861H349.263V313.623H350.565V315.861H352.518Z" fill="white"/>
<path d="M352.518 333.766V335.258H350.565V337.496H349.263V335.258H347.311V333.766H349.263V331.528H350.565V333.766H352.518Z" fill="white"/>
<path d="M336.896 244.238V245.73H334.944V247.969H333.642V245.73H331.689V244.238H333.642V242H334.944V244.238H336.896Z" fill="white"/>
<path d="M336.896 262.144V263.636H334.944V265.874H333.642V263.636H331.689V262.144H333.642V259.906H334.944V262.144H336.896Z" fill="white"/>
<path d="M336.896 280.049V281.541H334.944V283.78H333.642V281.541H331.689V280.049H333.642V277.811H334.944V280.049H336.896Z" fill="white"/>
<path d="M336.896 297.955V299.447H334.944V301.685H333.642V299.447H331.689V297.955H333.642V295.717H334.944V297.955H336.896Z" fill="white"/>
<path d="M336.896 315.861V317.353H334.944V319.591H333.642V317.353H331.689V315.861H333.642V313.623H334.944V315.861H336.896Z" fill="white"/>
<path d="M336.896 333.766V335.258H334.944V337.496H333.642V335.258H331.689V333.766H333.642V331.528H334.944V333.766H336.896Z" fill="white"/>
<path d="M321.276 244.238V245.73H319.324V247.969H318.022V245.73H316.069V244.238H318.022V242H319.324V244.238H321.276Z" fill="white"/>
<path d="M321.276 262.144V263.636H319.324V265.874H318.022V263.636H316.069V262.144H318.022V259.906H319.324V262.144H321.276Z" fill="white"/>
<path d="M321.276 280.049V281.541H319.324V283.78H318.022V281.541H316.069V280.049H318.022V277.811H319.324V280.049H321.276Z" fill="white"/>
<path d="M321.276 297.955V299.447H319.324V301.685H318.022V299.447H316.069V297.955H318.022V295.717H319.324V297.955H321.276Z" fill="white"/>
<path d="M321.276 315.861V317.353H319.324V319.591H318.022V317.353H316.069V315.861H318.022V313.623H319.324V315.861H321.276Z" fill="white"/>
<path d="M321.276 333.766V335.258H319.324V337.496H318.022V335.258H316.069V333.766H318.022V331.528H319.324V333.766H321.276Z" fill="white"/>
<path d="M305.655 244.238V245.73H303.703V247.969H302.401V245.73H300.448V244.238H302.401V242H303.703V244.238H305.655Z" fill="white"/>
<path d="M305.655 262.144V263.636H303.703V265.874H302.401V263.636H300.448V262.144H302.401V259.906H303.703V262.144H305.655Z" fill="white"/>
<path d="M305.655 280.049V281.541H303.703V283.78H302.401V281.541H300.448V280.049H302.401V277.811H303.703V280.049H305.655Z" fill="white"/>
<path d="M305.655 297.955V299.447H303.703V301.685H302.401V299.447H300.448V297.955H302.401V295.717H303.703V297.955H305.655Z" fill="white"/>
<path d="M305.655 315.861V317.353H303.703V319.591H302.401V317.353H300.448V315.861H302.401V313.623H303.703V315.861H305.655Z" fill="white"/>
<path d="M305.655 333.766V335.258H303.703V337.496H302.401V335.258H300.448V333.766H302.401V331.528H303.703V333.766H305.655Z" fill="white"/>
<path d="M290.035 244.238V245.73H288.082V247.969H286.781V245.73H284.828V244.238H286.781V242H288.082V244.238H290.035Z" fill="white"/>
<path d="M290.035 262.144V263.636H288.082V265.874H286.781V263.636H284.828V262.144H286.781V259.906H288.082V262.144H290.035Z" fill="white"/>
<path d="M290.035 280.049V281.541H288.082V283.78H286.781V281.541H284.828V280.049H286.781V277.811H288.082V280.049H290.035Z" fill="white"/>
<path d="M290.035 297.955V299.447H288.082V301.685H286.781V299.447H284.828V297.955H286.781V295.717H288.082V297.955H290.035Z" fill="white"/>
<path d="M290.035 315.861V317.353H288.082V319.591H286.781V317.353H284.828V315.861H286.781V313.623H288.082V315.861H290.035Z" fill="white"/>
<path d="M290.035 333.766V335.258H288.082V337.496H286.781V335.258H284.828V333.766H286.781V331.528H288.082V333.766H290.035Z" fill="white"/>
<path d="M274.414 244.238V245.73H272.461V247.969H271.16V245.73H269.207V244.238H271.16V242H272.461V244.238H274.414Z" fill="white"/>
<path d="M274.414 262.144V263.636H272.461V265.874H271.16V263.636H269.207V262.144H271.16V259.906H272.461V262.144H274.414Z" fill="white"/>
<path d="M274.414 280.049V281.541H272.461V283.78H271.16V281.541H269.207V280.049H271.16V277.811H272.461V280.049H274.414Z" fill="white"/>
<path d="M274.414 297.955V299.447H272.461V301.685H271.16V299.447H269.207V297.955H271.16V295.717H272.461V297.955H274.414Z" fill="white"/>
<path d="M274.414 315.861V317.353H272.461V319.591H271.16V317.353H269.207V315.861H271.16V313.623H272.461V315.861H274.414Z" fill="white"/>
<path d="M274.414 333.766V335.258H272.461V337.496H271.16V335.258H269.207V333.766H271.16V331.528H272.461V333.766H274.414Z" fill="white"/>
<path d="M258.793 244.238V245.73H256.84V247.969H255.539V245.73H253.586V244.238H255.539V242H256.84V244.238H258.793Z" fill="white"/>
<path d="M258.793 262.144V263.636H256.84V265.874H255.539V263.636H253.586V262.144H255.539V259.906H256.84V262.144H258.793Z" fill="white"/>
<path d="M258.793 280.049V281.541H256.84V283.78H255.539V281.541H253.586V280.049H255.539V277.811H256.84V280.049H258.793Z" fill="white"/>
<path d="M258.793 297.955V299.447H256.84V301.685H255.539V299.447H253.586V297.955H255.539V295.717H256.84V297.955H258.793Z" fill="white"/>
<path d="M258.793 315.861V317.353H256.84V319.591H255.539V317.353H253.586V315.861H255.539V313.623H256.84V315.861H258.793Z" fill="white"/>
<path d="M258.793 333.766V335.258H256.84V337.496H255.539V335.258H253.586V333.766H255.539V331.528H256.84V333.766H258.793Z" fill="white"/>
<path d="M243.173 244.238V245.73H241.22V247.969H239.918V245.73H237.966V244.238H239.918V242H241.22V244.238H243.173Z" fill="white"/>
<path d="M243.173 262.144V263.636H241.22V265.874H239.918V263.636H237.966V262.144H239.918V259.906H241.22V262.144H243.173Z" fill="white"/>
<path d="M243.173 280.049V281.541H241.22V283.78H239.918V281.541H237.966V280.049H239.918V277.811H241.22V280.049H243.173Z" fill="white"/>
<path d="M243.173 297.955V299.447H241.22V301.685H239.918V299.447H237.966V297.955H239.918V295.717H241.22V297.955H243.173Z" fill="white"/>
<path d="M243.173 315.861V317.353H241.22V319.591H239.918V317.353H237.966V315.861H239.918V313.623H241.22V315.861H243.173Z" fill="white"/>
<path d="M243.173 333.766V335.258H241.22V337.496H239.918V335.258H237.966V333.766H239.918V331.528H241.22V333.766H243.173Z" fill="white"/>
<path d="M227.552 244.238V245.73H225.599V247.969H224.297V245.73H222.345V244.238H224.297V242H225.599V244.238H227.552Z" fill="white"/>
<path d="M227.552 262.144V263.636H225.599V265.874H224.297V263.636H222.345V262.144H224.297V259.906H225.599V262.144H227.552Z" fill="white"/>
<path d="M227.552 280.049V281.541H225.599V283.78H224.297V281.541H222.345V280.049H224.297V277.811H225.599V280.049H227.552Z" fill="white"/>
<path d="M227.552 297.955V299.447H225.599V301.685H224.297V299.447H222.345V297.955H224.297V295.717H225.599V297.955H227.552Z" fill="white"/>
<path d="M227.552 315.861V317.353H225.599V319.591H224.297V317.353H222.345V315.861H224.297V313.623H225.599V315.861H227.552Z" fill="white"/>
<path d="M227.552 333.766V335.258H225.599V337.496H224.297V335.258H222.345V333.766H224.297V331.528H225.599V333.766H227.552Z" fill="white"/>
<path d="M211.931 244.238V245.73H209.978V247.969H208.676V245.73H206.724V244.238H208.676V242H209.978V244.238H211.931Z" fill="white"/>
<path d="M211.931 262.144V263.636H209.978V265.874H208.676V263.636H206.724V262.144H208.676V259.906H209.978V262.144H211.931Z" fill="white"/>
<path d="M211.931 280.049V281.541H209.978V283.78H208.676V281.541H206.724V280.049H208.676V277.811H209.978V280.049H211.931Z" fill="white"/>
<path d="M211.931 297.955V299.447H209.978V301.685H208.676V299.447H206.724V297.955H208.676V295.717H209.978V297.955H211.931Z" fill="white"/>
<path d="M211.931 315.861V317.353H209.978V319.591H208.676V317.353H206.724V315.861H208.676V313.623H209.978V315.861H211.931Z" fill="white"/>
<path d="M211.931 333.766V335.258H209.978V337.496H208.676V335.258H206.724V333.766H208.676V331.528H209.978V333.766H211.931Z" fill="white"/>
<path d="M196.31 244.238V245.73H194.358V247.969H193.056V245.73H191.104V244.238H193.056V242H194.358V244.238H196.31Z" fill="white"/>
<path d="M196.31 262.144V263.636H194.358V265.874H193.056V263.636H191.104V262.144H193.056V259.906H194.358V262.144H196.31Z" fill="white"/>
<path d="M196.31 280.049V281.541H194.358V283.78H193.056V281.541H191.104V280.049H193.056V277.811H194.358V280.049H196.31Z" fill="white"/>
<path d="M196.31 297.955V299.447H194.358V301.685H193.056V299.447H191.104V297.955H193.056V295.717H194.358V297.955H196.31Z" fill="white"/>
<path d="M196.31 315.861V317.353H194.358V319.591H193.056V317.353H191.104V315.861H193.056V313.623H194.358V315.861H196.31Z" fill="white"/>
<path d="M196.31 333.766V335.258H194.358V337.496H193.056V335.258H191.104V333.766H193.056V331.528H194.358V333.766H196.31Z" fill="white"/>
<path d="M180.689 244.238V245.73H178.737V247.969H177.435V245.73H175.482V244.238H177.435V242H178.737V244.238H180.689Z" fill="white"/>
<path d="M180.689 262.144V263.636H178.737V265.874H177.435V263.636H175.482V262.144H177.435V259.906H178.737V262.144H180.689Z" fill="white"/>
<path d="M180.689 280.049V281.541H178.737V283.78H177.435V281.541H175.482V280.049H177.435V277.811H178.737V280.049H180.689Z" fill="white"/>
<path d="M180.689 297.955V299.447H178.737V301.685H177.435V299.447H175.482V297.955H177.435V295.717H178.737V297.955H180.689Z" fill="white"/>
<path d="M180.689 315.861V317.353H178.737V319.591H177.435V317.353H175.482V315.861H177.435V313.623H178.737V315.861H180.689Z" fill="white"/>
<path d="M180.689 333.766V335.258H178.737V337.496H177.435V335.258H175.482V333.766H177.435V331.528H178.737V333.766H180.689Z" fill="white"/>
<path d="M165.069 244.238V245.73H163.117V247.969H161.815V245.73H159.862V244.238H161.815V242H163.117V244.238H165.069Z" fill="white"/>
<path d="M165.069 262.144V263.636H163.117V265.874H161.815V263.636H159.862V262.144H161.815V259.906H163.117V262.144H165.069Z" fill="white"/>
<path d="M165.069 280.049V281.541H163.117V283.78H161.815V281.541H159.862V280.049H161.815V277.811H163.117V280.049H165.069Z" fill="white"/>
<path d="M165.069 297.955V299.447H163.117V301.685H161.815V299.447H159.862V297.955H161.815V295.717H163.117V297.955H165.069Z" fill="white"/>
<path d="M165.069 315.861V317.353H163.117V319.591H161.815V317.353H159.862V315.861H161.815V313.623H163.117V315.861H165.069Z" fill="white"/>
<path d="M165.069 333.766V335.258H163.117V337.496H161.815V335.258H159.862V333.766H161.815V331.528H163.117V333.766H165.069Z" fill="white"/>
<path d="M149.448 244.238V245.73H147.496V247.969H146.194V245.73H144.241V244.238H146.194V242H147.496V244.238H149.448Z" fill="white"/>
<path d="M149.448 262.144V263.636H147.496V265.874H146.194V263.636H144.241V262.144H146.194V259.906H147.496V262.144H149.448Z" fill="white"/>
<path d="M149.448 280.049V281.541H147.496V283.78H146.194V281.541H144.241V280.049H146.194V277.811H147.496V280.049H149.448Z" fill="white"/>
<path d="M149.448 297.955V299.447H147.496V301.685H146.194V299.447H144.241V297.955H146.194V295.717H147.496V297.955H149.448Z" fill="white"/>
<path d="M149.448 315.861V317.353H147.496V319.591H146.194V317.353H144.241V315.861H146.194V313.623H147.496V315.861H149.448Z" fill="white"/>
<path d="M149.448 333.766V335.258H147.496V337.496H146.194V335.258H144.241V333.766H146.194V331.528H147.496V333.766H149.448Z" fill="white"/>
<path d="M133.828 244.238V245.73H131.875V247.969H130.574V245.73H128.621V244.238H130.574V242H131.875V244.238H133.828Z" fill="white"/>
<path d="M133.828 262.144V263.636H131.875V265.874H130.574V263.636H128.621V262.144H130.574V259.906H131.875V262.144H133.828Z" fill="white"/>
<path d="M133.828 280.049V281.541H131.875V283.78H130.574V281.541H128.621V280.049H130.574V277.811H131.875V280.049H133.828Z" fill="white"/>
<path d="M133.828 297.955V299.447H131.875V301.685H130.574V299.447H128.621V297.955H130.574V295.717H131.875V297.955H133.828Z" fill="white"/>
<path d="M133.828 315.861V317.353H131.875V319.591H130.574V317.353H128.621V315.861H130.574V313.623H131.875V315.861H133.828Z" fill="white"/>
<path d="M133.828 333.766V335.258H131.875V337.496H130.574V335.258H128.621V333.766H130.574V331.528H131.875V333.766H133.828Z" fill="white"/>
<path d="M118.207 244.238V245.73H116.254V247.969H114.953V245.73H113V244.238H114.953V242H116.254V244.238H118.207Z" fill="white"/>
<path d="M118.207 262.144V263.636H116.254V265.874H114.953V263.636H113V262.144H114.953V259.906H116.254V262.144H118.207Z" fill="white"/>
<path d="M118.207 280.049V281.541H116.254V283.78H114.953V281.541H113V280.049H114.953V277.811H116.254V280.049H118.207Z" fill="white"/>
<path d="M118.207 297.955V299.447H116.254V301.685H114.953V299.447H113V297.955H114.953V295.717H116.254V297.955H118.207Z" fill="white"/>
<path d="M118.207 315.861V317.353H116.254V319.591H114.953V317.353H113V315.861H114.953V313.623H116.254V315.861H118.207Z" fill="white"/>
<path d="M118.207 333.766V335.258H116.254V337.496H114.953V335.258H113V333.766H114.953V331.528H116.254V333.766H118.207Z" fill="white"/>
</g>
</svg>
