<svg width="348" height="104" viewBox="0 0 348 104" fill="none" xmlns="http://www.w3.org/2000/svg">
<path d="M30.6663 48.0002V42.6668C30.6663 42.3132 30.5259 41.9741 30.2758 41.724C30.0258 41.474 29.6866 41.3335 29.333 41.3335H2.66634C2.31272 41.3335 1.97358 41.474 1.72353 41.724C1.47348 41.9741 1.33301 42.3132 1.33301 42.6668V48.0002H30.6663Z" fill="#2EC5CE"/>
<path d="M1.33301 50.667V69.3337C1.33301 69.6873 1.47348 70.0264 1.72353 70.2765C1.97358 70.5265 2.31272 70.667 2.66634 70.667H9.33301V50.667H1.33301Z" fill="#D6B1FF"/>
<path d="M12 70.667H29.3333C29.687 70.667 30.0261 70.5265 30.2761 70.2765C30.5262 70.0264 30.6667 69.6873 30.6667 69.3337V50.667H12V70.667Z" fill="#9A05EB"/>
<g opacity="0.4">
<path d="M344.139 9.91644V11.4086H342.186V13.6468H340.884V11.4086H338.932V9.91644H340.884V7.67822H342.186V9.91644H344.139Z" fill="white"/>
<path d="M344.139 27.8222V29.3144H342.186V31.5526H340.884V29.3144H338.932V27.8222H340.884V25.584H342.186V27.8222H344.139Z" fill="white"/>
<path d="M344.139 45.7275V47.2197H342.186V49.4579H340.884V47.2197H338.932V45.7275H340.884V43.4893H342.186V45.7275H344.139Z" fill="white"/>
<path d="M344.139 63.6332V65.1254H342.186V67.3636H340.884V65.1254H338.932V63.6332H340.884V61.395H342.186V63.6332H344.139Z" fill="white"/>
<path d="M344.139 81.539V83.0311H342.186V85.2693H340.884V83.0311H338.932V81.539H340.884V79.3008H342.186V81.539H344.139Z" fill="white"/>
<path d="M344.139 99.4442V100.936H342.186V103.175H340.884V100.936H338.932V99.4442H340.884V97.2061H342.186V99.4442H344.139Z" fill="white"/>
<path d="M328.518 9.91644V11.4086H326.565V13.6468H325.263V11.4086H323.311V9.91644H325.263V7.67822H326.565V9.91644H328.518Z" fill="white"/>
<path d="M328.518 27.8222V29.3144H326.565V31.5526H325.263V29.3144H323.311V27.8222H325.263V25.584H326.565V27.8222H328.518Z" fill="white"/>
<path d="M328.518 45.7275V47.2197H326.565V49.4579H325.263V47.2197H323.311V45.7275H325.263V43.4893H326.565V45.7275H328.518Z" fill="white"/>
<path d="M328.518 63.6332V65.1254H326.565V67.3636H325.263V65.1254H323.311V63.6332H325.263V61.395H326.565V63.6332H328.518Z" fill="white"/>
<path d="M328.518 81.539V83.0311H326.565V85.2693H325.263V83.0311H323.311V81.539H325.263V79.3008H326.565V81.539H328.518Z" fill="white"/>
<path d="M328.518 99.4442V100.936H326.565V103.175H325.263V100.936H323.311V99.4442H325.263V97.2061H326.565V99.4442H328.518Z" fill="white"/>
<path d="M312.896 9.91644V11.4086H310.944V13.6468H309.642V11.4086H307.689V9.91644H309.642V7.67822H310.944V9.91644H312.896Z" fill="white"/>
<path d="M312.896 27.8222V29.3144H310.944V31.5526H309.642V29.3144H307.689V27.8222H309.642V25.584H310.944V27.8222H312.896Z" fill="white"/>
<path d="M312.896 45.7275V47.2197H310.944V49.4579H309.642V47.2197H307.689V45.7275H309.642V43.4893H310.944V45.7275H312.896Z" fill="white"/>
<path d="M312.896 63.6332V65.1254H310.944V67.3636H309.642V65.1254H307.689V63.6332H309.642V61.395H310.944V63.6332H312.896Z" fill="white"/>
<path d="M312.896 81.539V83.0311H310.944V85.2693H309.642V83.0311H307.689V81.539H309.642V79.3008H310.944V81.539H312.896Z" fill="white"/>
<path d="M312.896 99.4442V100.936H310.944V103.175H309.642V100.936H307.689V99.4442H309.642V97.2061H310.944V99.4442H312.896Z" fill="white"/>
<path d="M297.276 9.91644V11.4086H295.324V13.6468H294.022V11.4086H292.069V9.91644H294.022V7.67822H295.324V9.91644H297.276Z" fill="white"/>
<path d="M297.276 27.8222V29.3144H295.324V31.5526H294.022V29.3144H292.069V27.8222H294.022V25.584H295.324V27.8222H297.276Z" fill="white"/>
<path d="M297.276 45.7275V47.2197H295.324V49.4579H294.022V47.2197H292.069V45.7275H294.022V43.4893H295.324V45.7275H297.276Z" fill="white"/>
<path d="M297.276 63.6332V65.1254H295.324V67.3636H294.022V65.1254H292.069V63.6332H294.022V61.395H295.324V63.6332H297.276Z" fill="white"/>
<path d="M297.276 81.539V83.0311H295.324V85.2693H294.022V83.0311H292.069V81.539H294.022V79.3008H295.324V81.539H297.276Z" fill="white"/>
<path d="M297.276 99.4442V100.936H295.324V103.175H294.022V100.936H292.069V99.4442H294.022V97.2061H295.324V99.4442H297.276Z" fill="white"/>
<path d="M281.655 9.91644V11.4086H279.703V13.6468H278.401V11.4086H276.448V9.91644H278.401V7.67822H279.703V9.91644H281.655Z" fill="white"/>
<path d="M281.655 27.8222V29.3144H279.703V31.5526H278.401V29.3144H276.448V27.8222H278.401V25.584H279.703V27.8222H281.655Z" fill="white"/>
<path d="M281.655 45.7275V47.2197H279.703V49.4579H278.401V47.2197H276.448V45.7275H278.401V43.4893H279.703V45.7275H281.655Z" fill="white"/>
<path d="M281.655 63.6332V65.1254H279.703V67.3636H278.401V65.1254H276.448V63.6332H278.401V61.395H279.703V63.6332H281.655Z" fill="white"/>
<path d="M281.655 81.539V83.0311H279.703V85.2693H278.401V83.0311H276.448V81.539H278.401V79.3008H279.703V81.539H281.655Z" fill="white"/>
<path d="M281.655 99.4442V100.936H279.703V103.175H278.401V100.936H276.448V99.4442H278.401V97.2061H279.703V99.4442H281.655Z" fill="white"/>
<path d="M266.035 9.91644V11.4086H264.082V13.6468H262.781V11.4086H260.828V9.91644H262.781V7.67822H264.082V9.91644H266.035Z" fill="white"/>
<path d="M266.035 27.8222V29.3144H264.082V31.5526H262.781V29.3144H260.828V27.8222H262.781V25.584H264.082V27.8222H266.035Z" fill="white"/>
<path d="M266.035 45.7275V47.2197H264.082V49.4579H262.781V47.2197H260.828V45.7275H262.781V43.4893H264.082V45.7275H266.035Z" fill="white"/>
<path d="M266.035 63.6332V65.1254H264.082V67.3636H262.781V65.1254H260.828V63.6332H262.781V61.395H264.082V63.6332H266.035Z" fill="white"/>
<path d="M266.035 81.539V83.0311H264.082V85.2693H262.781V83.0311H260.828V81.539H262.781V79.3008H264.082V81.539H266.035Z" fill="white"/>
<path d="M266.035 99.4442V100.936H264.082V103.175H262.781V100.936H260.828V99.4442H262.781V97.2061H264.082V99.4442H266.035Z" fill="white"/>
<path d="M250.414 9.91644V11.4086H248.461V13.6468H247.16V11.4086H245.207V9.91644H247.16V7.67822H248.461V9.91644H250.414Z" fill="white"/>
<path d="M250.414 27.8222V29.3144H248.461V31.5526H247.16V29.3144H245.207V27.8222H247.16V25.584H248.461V27.8222H250.414Z" fill="white"/>
<path d="M250.414 45.7275V47.2197H248.461V49.4579H247.16V47.2197H245.207V45.7275H247.16V43.4893H248.461V45.7275H250.414Z" fill="white"/>
<path d="M250.414 63.6332V65.1254H248.461V67.3636H247.16V65.1254H245.207V63.6332H247.16V61.395H248.461V63.6332H250.414Z" fill="white"/>
<path d="M250.414 81.539V83.0311H248.461V85.2693H247.16V83.0311H245.207V81.539H247.16V79.3008H248.461V81.539H250.414Z" fill="white"/>
<path d="M250.414 99.4442V100.936H248.461V103.175H247.16V100.936H245.207V99.4442H247.16V97.2061H248.461V99.4442H250.414Z" fill="white"/>
<path d="M234.793 9.91644V11.4086H232.84V13.6468H231.539V11.4086H229.586V9.91644H231.539V7.67822H232.84V9.91644H234.793Z" fill="white"/>
<path d="M234.793 27.8222V29.3144H232.84V31.5526H231.539V29.3144H229.586V27.8222H231.539V25.584H232.84V27.8222H234.793Z" fill="white"/>
<path d="M234.793 45.7275V47.2197H232.84V49.4579H231.539V47.2197H229.586V45.7275H231.539V43.4893H232.84V45.7275H234.793Z" fill="white"/>
<path d="M234.793 63.6332V65.1254H232.84V67.3636H231.539V65.1254H229.586V63.6332H231.539V61.395H232.84V63.6332H234.793Z" fill="white"/>
<path d="M234.793 81.539V83.0311H232.84V85.2693H231.539V83.0311H229.586V81.539H231.539V79.3008H232.84V81.539H234.793Z" fill="white"/>
<path d="M234.793 99.4442V100.936H232.84V103.175H231.539V100.936H229.586V99.4442H231.539V97.2061H232.84V99.4442H234.793Z" fill="white"/>
<path d="M219.173 9.91644V11.4086H217.22V13.6468H215.918V11.4086H213.966V9.91644H215.918V7.67822H217.22V9.91644H219.173Z" fill="white"/>
<path d="M219.173 27.8222V29.3144H217.22V31.5526H215.918V29.3144H213.966V27.8222H215.918V25.584H217.22V27.8222H219.173Z" fill="white"/>
<path d="M219.173 45.7275V47.2197H217.22V49.4579H215.918V47.2197H213.966V45.7275H215.918V43.4893H217.22V45.7275H219.173Z" fill="white"/>
<path d="M219.173 63.6332V65.1254H217.22V67.3636H215.918V65.1254H213.966V63.6332H215.918V61.395H217.22V63.6332H219.173Z" fill="white"/>
<path d="M219.173 81.539V83.0311H217.22V85.2693H215.918V83.0311H213.966V81.539H215.918V79.3008H217.22V81.539H219.173Z" fill="white"/>
<path d="M219.173 99.4442V100.936H217.22V103.175H215.918V100.936H213.966V99.4442H215.918V97.2061H217.22V99.4442H219.173Z" fill="white"/>
<path d="M203.552 9.91644V11.4086H201.599V13.6468H200.297V11.4086H198.345V9.91644H200.297V7.67822H201.599V9.91644H203.552Z" fill="white"/>
<path d="M203.552 27.8222V29.3144H201.599V31.5526H200.297V29.3144H198.345V27.8222H200.297V25.584H201.599V27.8222H203.552Z" fill="white"/>
<path d="M203.552 45.7275V47.2197H201.599V49.4579H200.297V47.2197H198.345V45.7275H200.297V43.4893H201.599V45.7275H203.552Z" fill="white"/>
<path d="M203.552 63.6332V65.1254H201.599V67.3636H200.297V65.1254H198.345V63.6332H200.297V61.395H201.599V63.6332H203.552Z" fill="white"/>
<path d="M203.552 81.539V83.0311H201.599V85.2693H200.297V83.0311H198.345V81.539H200.297V79.3008H201.599V81.539H203.552Z" fill="white"/>
<path d="M203.552 99.4442V100.936H201.599V103.175H200.297V100.936H198.345V99.4442H200.297V97.2061H201.599V99.4442H203.552Z" fill="white"/>
<path d="M187.931 9.91644V11.4086H185.978V13.6468H184.676V11.4086H182.724V9.91644H184.676V7.67822H185.978V9.91644H187.931Z" fill="white"/>
<path d="M187.931 27.8222V29.3144H185.978V31.5526H184.676V29.3144H182.724V27.8222H184.676V25.584H185.978V27.8222H187.931Z" fill="white"/>
<path d="M187.931 45.7275V47.2197H185.978V49.4579H184.676V47.2197H182.724V45.7275H184.676V43.4893H185.978V45.7275H187.931Z" fill="white"/>
<path d="M187.931 63.6332V65.1254H185.978V67.3636H184.676V65.1254H182.724V63.6332H184.676V61.395H185.978V63.6332H187.931Z" fill="white"/>
<path d="M187.931 81.539V83.0311H185.978V85.2693H184.676V83.0311H182.724V81.539H184.676V79.3008H185.978V81.539H187.931Z" fill="white"/>
<path d="M187.931 99.4442V100.936H185.978V103.175H184.676V100.936H182.724V99.4442H184.676V97.2061H185.978V99.4442H187.931Z" fill="white"/>
<path d="M172.31 9.91644V11.4086H170.358V13.6468H169.056V11.4086H167.104V9.91644H169.056V7.67822H170.358V9.91644H172.31Z" fill="white"/>
<path d="M172.31 27.8222V29.3144H170.358V31.5526H169.056V29.3144H167.104V27.8222H169.056V25.584H170.358V27.8222H172.31Z" fill="white"/>
<path d="M172.31 45.7275V47.2197H170.358V49.4579H169.056V47.2197H167.104V45.7275H169.056V43.4893H170.358V45.7275H172.31Z" fill="white"/>
<path d="M172.31 63.6332V65.1254H170.358V67.3636H169.056V65.1254H167.104V63.6332H169.056V61.395H170.358V63.6332H172.31Z" fill="white"/>
<path d="M172.31 81.539V83.0311H170.358V85.2693H169.056V83.0311H167.104V81.539H169.056V79.3008H170.358V81.539H172.31Z" fill="white"/>
<path d="M172.31 99.4442V100.936H170.358V103.175H169.056V100.936H167.104V99.4442H169.056V97.2061H170.358V99.4442H172.31Z" fill="white"/>
<path d="M156.689 9.91644V11.4086H154.737V13.6468H153.435V11.4086H151.482V9.91644H153.435V7.67822H154.737V9.91644H156.689Z" fill="white"/>
<path d="M156.689 27.8222V29.3144H154.737V31.5526H153.435V29.3144H151.482V27.8222H153.435V25.584H154.737V27.8222H156.689Z" fill="white"/>
<path d="M156.689 45.7275V47.2197H154.737V49.4579H153.435V47.2197H151.482V45.7275H153.435V43.4893H154.737V45.7275H156.689Z" fill="white"/>
<path d="M156.689 63.6332V65.1254H154.737V67.3636H153.435V65.1254H151.482V63.6332H153.435V61.395H154.737V63.6332H156.689Z" fill="white"/>
<path d="M156.689 81.539V83.0311H154.737V85.2693H153.435V83.0311H151.482V81.539H153.435V79.3008H154.737V81.539H156.689Z" fill="white"/>
<path d="M156.689 99.4442V100.936H154.737V103.175H153.435V100.936H151.482V99.4442H153.435V97.2061H154.737V99.4442H156.689Z" fill="white"/>
<path d="M141.069 9.91644V11.4086H139.117V13.6468H137.815V11.4086H135.862V9.91644H137.815V7.67822H139.117V9.91644H141.069Z" fill="white"/>
<path d="M141.069 27.8222V29.3144H139.117V31.5526H137.815V29.3144H135.862V27.8222H137.815V25.584H139.117V27.8222H141.069Z" fill="white"/>
<path d="M141.069 45.7275V47.2197H139.117V49.4579H137.815V47.2197H135.862V45.7275H137.815V43.4893H139.117V45.7275H141.069Z" fill="white"/>
<path d="M141.069 63.6332V65.1254H139.117V67.3636H137.815V65.1254H135.862V63.6332H137.815V61.395H139.117V63.6332H141.069Z" fill="white"/>
<path d="M141.069 81.539V83.0311H139.117V85.2693H137.815V83.0311H135.862V81.539H137.815V79.3008H139.117V81.539H141.069Z" fill="white"/>
<path d="M141.069 99.4442V100.936H139.117V103.175H137.815V100.936H135.862V99.4442H137.815V97.2061H139.117V99.4442H141.069Z" fill="white"/>
<path d="M125.448 9.91644V11.4086H123.496V13.6468H122.194V11.4086H120.241V9.91644H122.194V7.67822H123.496V9.91644H125.448Z" fill="white"/>
<path d="M125.448 27.8222V29.3144H123.496V31.5526H122.194V29.3144H120.241V27.8222H122.194V25.584H123.496V27.8222H125.448Z" fill="white"/>
<path d="M125.448 45.7275V47.2197H123.496V49.4579H122.194V47.2197H120.241V45.7275H122.194V43.4893H123.496V45.7275H125.448Z" fill="white"/>
<path d="M125.448 63.6332V65.1254H123.496V67.3636H122.194V65.1254H120.241V63.6332H122.194V61.395H123.496V63.6332H125.448Z" fill="white"/>
<path d="M125.448 81.539V83.0311H123.496V85.2693H122.194V83.0311H120.241V81.539H122.194V79.3008H123.496V81.539H125.448Z" fill="white"/>
<path d="M125.448 99.4442V100.936H123.496V103.175H122.194V100.936H120.241V99.4442H122.194V97.2061H123.496V99.4442H125.448Z" fill="white"/>
<path d="M109.828 9.91644V11.4086H107.875V13.6468H106.574V11.4086H104.621V9.91644H106.574V7.67822H107.875V9.91644H109.828Z" fill="white"/>
<path d="M109.828 27.8222V29.3144H107.875V31.5526H106.574V29.3144H104.621V27.8222H106.574V25.584H107.875V27.8222H109.828Z" fill="white"/>
<path d="M109.828 45.7275V47.2197H107.875V49.4579H106.574V47.2197H104.621V45.7275H106.574V43.4893H107.875V45.7275H109.828Z" fill="white"/>
<path d="M109.828 63.6332V65.1254H107.875V67.3636H106.574V65.1254H104.621V63.6332H106.574V61.395H107.875V63.6332H109.828Z" fill="white"/>
<path d="M109.828 81.539V83.0311H107.875V85.2693H106.574V83.0311H104.621V81.539H106.574V79.3008H107.875V81.539H109.828Z" fill="white"/>
<path d="M109.828 99.4442V100.936H107.875V103.175H106.574V100.936H104.621V99.4442H106.574V97.2061H107.875V99.4442H109.828Z" fill="white"/>
<path d="M94.2069 9.91644V11.4086H92.2543V13.6468H90.9526V11.4086H89V9.91644H90.9526V7.67822H92.2543V9.91644H94.2069Z" fill="white"/>
<path d="M94.2069 27.8222V29.3144H92.2543V31.5526H90.9526V29.3144H89V27.8222H90.9526V25.584H92.2543V27.8222H94.2069Z" fill="white"/>
<path d="M94.2069 45.7275V47.2197H92.2543V49.4579H90.9526V47.2197H89V45.7275H90.9526V43.4893H92.2543V45.7275H94.2069Z" fill="white"/>
<path d="M94.2069 63.6332V65.1254H92.2543V67.3636H90.9526V65.1254H89V63.6332H90.9526V61.395H92.2543V63.6332H94.2069Z" fill="white"/>
<path d="M94.2069 81.539V83.0311H92.2543V85.2693H90.9526V83.0311H89V81.539H90.9526V79.3008H92.2543V81.539H94.2069Z" fill="white"/>
<path d="M94.2069 99.4442V100.936H92.2543V103.175H90.9526V100.936H89V99.4442H90.9526V97.2061H92.2543V99.4442H94.2069Z" fill="white"/>
</g>
</svg>
