<svg width="348" height="347" viewBox="0 0 348 347" fill="none" xmlns="http://www.w3.org/2000/svg">
<path d="M28.0003 48.9998H16.0003C15.6467 48.9998 15.3076 48.8594 15.0575 48.6093C14.8075 48.3593 14.667 48.0201 14.667 47.6665V44.9998C14.667 44.6462 14.8075 44.3071 15.0575 44.057C15.3076 43.807 15.6467 43.6665 16.0003 43.6665H28.0003C28.3539 43.6665 28.6931 43.807 28.9431 44.057C29.1932 44.3071 29.3337 44.6462 29.3337 44.9998V47.6665C29.3337 48.0201 29.1932 48.3593 28.9431 48.6093C28.6931 48.8594 28.3539 48.9998 28.0003 48.9998Z" fill="#D6B1FF"/>
<path d="M28.0003 17H4.00033C3.6467 17 3.30756 17.1405 3.05752 17.3905C2.80747 17.6406 2.66699 17.9797 2.66699 18.3333V21C2.66699 21.3536 2.80747 21.6928 3.05752 21.9428C3.30756 22.1929 3.6467 22.3333 4.00033 22.3333H28.0003C28.3539 22.3333 28.6931 22.1929 28.9431 21.9428C29.1932 21.6928 29.3337 21.3536 29.3337 21V18.3333C29.3337 17.9797 29.1932 17.6406 28.9431 17.3905C28.6931 17.1405 28.3539 17 28.0003 17Z" fill="#2EC5CE"/>
<path d="M28.0003 25H4.00033C3.6467 25 3.30756 25.1405 3.05752 25.3905C2.80747 25.6406 2.66699 25.9797 2.66699 26.3333V39.6667C2.66699 40.0203 2.80747 40.3594 3.05752 40.6095C3.30756 40.8595 3.6467 41 4.00033 41H28.0003C28.3539 41 28.6931 40.8595 28.9431 40.6095C29.1932 40.3594 29.3337 40.0203 29.3337 39.6667V26.3333C29.3337 25.9797 29.1932 25.6406 28.9431 25.3905C28.6931 25.1405 28.3539 25 28.0003 25Z" fill="#9A05EB"/>
<g opacity="0.4">
<path d="M342.828 2.2382V3.73033H340.875V5.96854H339.574V3.73033H337.621V2.2382H339.574V0H340.875V2.2382H342.828Z" fill="white"/>
<path d="M342.828 20.144V21.6361H340.875V23.8743H339.574V21.6361H337.621V20.144H339.574V17.9058H340.875V20.144H342.828Z" fill="white"/>
<path d="M342.828 38.0492V39.5414H340.875V41.7796H339.574V39.5414H337.621V38.0492H339.574V35.811H340.875V38.0492H342.828Z" fill="white"/>
<path d="M342.828 55.955V57.4471H340.875V59.6853H339.574V57.4471H337.621V55.955H339.574V53.7168H340.875V55.955H342.828Z" fill="white"/>
<path d="M342.828 73.8608V75.3529H340.875V77.5911H339.574V75.3529H337.621V73.8608H339.574V71.6226H340.875V73.8608H342.828Z" fill="white"/>
<path d="M342.828 91.766V93.2582H340.875V95.4964H339.574V93.2582H337.621V91.766H339.574V89.5278H340.875V91.766H342.828Z" fill="white"/>
<path d="M342.828 109.672V111.164H340.875V113.402H339.574V111.164H337.621V109.672H339.574V107.434H340.875V109.672H342.828Z" fill="white"/>
<path d="M342.828 127.578V129.07H340.875V131.308H339.574V129.07H337.621V127.578H339.574V125.339H340.875V127.578H342.828Z" fill="white"/>
<path d="M342.828 145.483V146.975H340.875V149.213H339.574V146.975H337.621V145.483H339.574V143.245H340.875V145.483H342.828Z" fill="white"/>
<path d="M342.828 163.389V164.881H340.875V167.119H339.574V164.881H337.621V163.389H339.574V161.15H340.875V163.389H342.828Z" fill="white"/>
<path d="M342.828 181.294V182.786H340.875V185.024H339.574V182.786H337.621V181.294H339.574V179.056H340.875V181.294H342.828Z" fill="white"/>
<path d="M342.828 199.2V200.692H340.875V202.93H339.574V200.692H337.621V199.2H339.574V196.961H340.875V199.2H342.828Z" fill="white"/>
<path d="M342.828 217.105V218.598H340.875V220.836H339.574V218.598H337.621V217.105H339.574V214.867H340.875V217.105H342.828Z" fill="white"/>
<path d="M342.828 235.011V236.503H340.875V238.741H339.574V236.503H337.621V235.011H339.574V232.773H340.875V235.011H342.828Z" fill="white"/>
<path d="M342.828 252.916V254.409H340.875V256.647H339.574V254.409H337.621V252.916H339.574V250.678H340.875V252.916H342.828Z" fill="white"/>
<path d="M342.828 270.822V272.314H340.875V274.553H339.574V272.314H337.621V270.822H339.574V268.584H340.875V270.822H342.828Z" fill="white"/>
<path d="M342.828 288.727V290.22H340.875V292.458H339.574V290.22H337.621V288.727H339.574V286.489H340.875V288.727H342.828Z" fill="white"/>
<path d="M342.828 306.633V308.125H340.875V310.364H339.574V308.125H337.621V306.633H339.574V304.395H340.875V306.633H342.828Z" fill="white"/>
<path d="M342.828 324.539V326.031H340.875V328.269H339.574V326.031H337.621V324.539H339.574V322.301H340.875V324.539H342.828Z" fill="white"/>
<path d="M342.828 342.444V343.936H340.875V346.175H339.574V343.936H337.621V342.444H339.574V340.206H340.875V342.444H342.828Z" fill="white"/>
<path d="M327.207 2.2382V3.73033H325.254V5.96854H323.953V3.73033H322V2.2382H323.953V0H325.254V2.2382H327.207Z" fill="white"/>
<path d="M327.207 20.144V21.6361H325.254V23.8743H323.953V21.6361H322V20.144H323.953V17.9058H325.254V20.144H327.207Z" fill="white"/>
<path d="M327.207 38.0492V39.5414H325.254V41.7796H323.953V39.5414H322V38.0492H323.953V35.811H325.254V38.0492H327.207Z" fill="white"/>
<path d="M327.207 55.955V57.4471H325.254V59.6853H323.953V57.4471H322V55.955H323.953V53.7168H325.254V55.955H327.207Z" fill="white"/>
<path d="M327.207 73.8608V75.3529H325.254V77.5911H323.953V75.3529H322V73.8608H323.953V71.6226H325.254V73.8608H327.207Z" fill="white"/>
<path d="M327.207 91.766V93.2582H325.254V95.4964H323.953V93.2582H322V91.766H323.953V89.5278H325.254V91.766H327.207Z" fill="white"/>
<path d="M327.207 109.672V111.164H325.254V113.402H323.953V111.164H322V109.672H323.953V107.434H325.254V109.672H327.207Z" fill="white"/>
<path d="M327.207 127.578V129.07H325.254V131.308H323.953V129.07H322V127.578H323.953V125.339H325.254V127.578H327.207Z" fill="white"/>
<path d="M327.207 145.483V146.975H325.254V149.213H323.953V146.975H322V145.483H323.953V143.245H325.254V145.483H327.207Z" fill="white"/>
<path d="M327.207 163.389V164.881H325.254V167.119H323.953V164.881H322V163.389H323.953V161.15H325.254V163.389H327.207Z" fill="white"/>
<path d="M327.207 181.294V182.786H325.254V185.024H323.953V182.786H322V181.294H323.953V179.056H325.254V181.294H327.207Z" fill="white"/>
<path d="M327.207 199.2V200.692H325.254V202.93H323.953V200.692H322V199.2H323.953V196.961H325.254V199.2H327.207Z" fill="white"/>
<path d="M327.207 217.105V218.598H325.254V220.836H323.953V218.598H322V217.105H323.953V214.867H325.254V217.105H327.207Z" fill="white"/>
<path d="M327.207 235.011V236.503H325.254V238.741H323.953V236.503H322V235.011H323.953V232.773H325.254V235.011H327.207Z" fill="white"/>
<path d="M327.207 252.916V254.409H325.254V256.647H323.953V254.409H322V252.916H323.953V250.678H325.254V252.916H327.207Z" fill="white"/>
<path d="M327.207 270.822V272.314H325.254V274.553H323.953V272.314H322V270.822H323.953V268.584H325.254V270.822H327.207Z" fill="white"/>
<path d="M327.207 288.727V290.22H325.254V292.458H323.953V290.22H322V288.727H323.953V286.489H325.254V288.727H327.207Z" fill="white"/>
<path d="M327.207 306.633V308.125H325.254V310.364H323.953V308.125H322V306.633H323.953V304.395H325.254V306.633H327.207Z" fill="white"/>
<path d="M327.207 324.539V326.031H325.254V328.269H323.953V326.031H322V324.539H323.953V322.301H325.254V324.539H327.207Z" fill="white"/>
<path d="M327.207 342.444V343.936H325.254V346.175H323.953V343.936H322V342.444H323.953V340.206H325.254V342.444H327.207Z" fill="white"/>
</g>
</svg>
