<svg width="375" height="940" viewBox="0 0 375 940" fill="none" xmlns="http://www.w3.org/2000/svg">
<path d="M0 0H375V890C375 917.614 352.614 940 325 940H0V0Z" fill="url(#paint0_linear_952_8302)"/>
<mask id="mask0_952_8302" style="mask-type:alpha" maskUnits="userSpaceOnUse" x="0" y="0" width="375" height="940">
<path d="M0 0H375V940H0V0Z" fill="url(#paint1_linear_952_8302)"/>
</mask>
<g mask="url(#mask0_952_8302)">
<path d="M383 953L-29 953L-29 471C-29 277.7 127.7 121 321 121H383L383 953Z" fill="white" fill-opacity="0.07"/>
<g opacity="0.4">
<path d="M374.353 599.561V600.805H372.889V602.671H371.913V600.805H370.448V599.561H371.913V597.694H372.889V599.561H374.353Z" fill="white"/>
<path d="M374.353 614.491V615.735H372.889V617.601H371.913V615.735H370.448V614.491H371.913V612.625H372.889V614.491H374.353Z" fill="white"/>
<path d="M374.353 629.421V630.666H372.889V632.532H371.913V630.666H370.448V629.421H371.913V627.555H372.889V629.421H374.353Z" fill="white"/>
<path d="M374.353 644.352V645.596H372.889V647.462H371.913V645.596H370.448V644.352H371.913V642.485H372.889V644.352H374.353Z" fill="white"/>
<path d="M374.353 659.282V660.526H372.889V662.392H371.913V660.526H370.448V659.282H371.913V657.416H372.889V659.282H374.353Z" fill="white"/>
<path d="M374.353 674.212V675.456H372.889V677.322H371.913V675.456H370.448V674.212H371.913V672.346H372.889V674.212H374.353Z" fill="white"/>
<path d="M374.353 689.143V690.387H372.889V692.253H371.913V690.387H370.448V689.143H371.913V687.276H372.889V689.143H374.353Z" fill="white"/>
<path d="M374.353 704.073V705.317H372.889V707.183H371.913V705.317H370.448V704.073H371.913V702.207H372.889V704.073H374.353Z" fill="white"/>
<path d="M374.353 719.003V720.247H372.889V722.114H371.913V720.247H370.448V719.003H371.913V717.137H372.889V719.003H374.353Z" fill="white"/>
<path d="M374.353 733.934V735.178H372.889V737.044H371.913V735.178H370.448V733.934H371.913V732.067H372.889V733.934H374.353Z" fill="white"/>
<path d="M374.353 748.864V750.108H372.889V751.974H371.913V750.108H370.448V748.864H371.913V746.998H372.889V748.864H374.353Z" fill="white"/>
<path d="M374.353 763.795V765.039H372.889V766.905H371.913V765.039H370.448V763.795H371.913V761.928H372.889V763.795H374.353Z" fill="white"/>
<path d="M374.353 778.725V779.969H372.889V781.835H371.913V779.969H370.448V778.725H371.913V776.858H372.889V778.725H374.353Z" fill="white"/>
<path d="M374.353 793.655V794.899H372.889V796.765H371.913V794.899H370.448V793.655H371.913V791.789H372.889V793.655H374.353Z" fill="white"/>
<path d="M374.353 808.585V809.829H372.889V811.696H371.913V809.829H370.448V808.585H371.913V806.719H372.889V808.585H374.353Z" fill="white"/>
<path d="M374.353 823.516V824.76H372.889V826.626H371.913V824.76H370.448V823.516H371.913V821.649H372.889V823.516H374.353Z" fill="white"/>
<path d="M374.353 838.446V839.69H372.889V841.556H371.913V839.69H370.448V838.446H371.913V836.58H372.889V838.446H374.353Z" fill="white"/>
<path d="M374.353 853.377V854.621H372.889V856.487H371.913V854.621H370.448V853.377H371.913V851.51H372.889V853.377H374.353Z" fill="white"/>
<path d="M374.353 868.307V869.551H372.889V871.417H371.913V869.551H370.448V868.307H371.913V866.44H372.889V868.307H374.353Z" fill="white"/>
<path d="M374.353 883.237V884.481H372.889V886.347H371.913V884.481H370.448V883.237H371.913V881.371H372.889V883.237H374.353Z" fill="white"/>
<path d="M362.638 599.561V600.805H361.173V602.671H360.197V600.805H358.732V599.561H360.197V597.694H361.173V599.561H362.638Z" fill="white"/>
<path d="M362.638 614.491V615.735H361.173V617.601H360.197V615.735H358.732V614.491H360.197V612.625H361.173V614.491H362.638Z" fill="white"/>
<path d="M362.638 629.421V630.666H361.173V632.532H360.197V630.666H358.732V629.421H360.197V627.555H361.173V629.421H362.638Z" fill="white"/>
<path d="M362.638 644.352V645.596H361.173V647.462H360.197V645.596H358.732V644.352H360.197V642.485H361.173V644.352H362.638Z" fill="white"/>
<path d="M362.638 659.282V660.526H361.173V662.392H360.197V660.526H358.732V659.282H360.197V657.416H361.173V659.282H362.638Z" fill="white"/>
<path d="M362.638 674.212V675.456H361.173V677.322H360.197V675.456H358.732V674.212H360.197V672.346H361.173V674.212H362.638Z" fill="white"/>
<path d="M362.638 689.143V690.387H361.173V692.253H360.197V690.387H358.732V689.143H360.197V687.276H361.173V689.143H362.638Z" fill="white"/>
<path d="M362.638 704.073V705.317H361.173V707.183H360.197V705.317H358.732V704.073H360.197V702.207H361.173V704.073H362.638Z" fill="white"/>
<path d="M362.638 719.003V720.247H361.173V722.114H360.197V720.247H358.732V719.003H360.197V717.137H361.173V719.003H362.638Z" fill="white"/>
<path d="M362.638 733.934V735.178H361.173V737.044H360.197V735.178H358.732V733.934H360.197V732.067H361.173V733.934H362.638Z" fill="white"/>
<path d="M362.638 748.864V750.108H361.173V751.974H360.197V750.108H358.732V748.864H360.197V746.998H361.173V748.864H362.638Z" fill="white"/>
<path d="M362.638 763.795V765.039H361.173V766.905H360.197V765.039H358.732V763.795H360.197V761.928H361.173V763.795H362.638Z" fill="white"/>
<path d="M362.638 778.725V779.969H361.173V781.835H360.197V779.969H358.732V778.725H360.197V776.858H361.173V778.725H362.638Z" fill="white"/>
<path d="M362.638 793.655V794.899H361.173V796.765H360.197V794.899H358.732V793.655H360.197V791.789H361.173V793.655H362.638Z" fill="white"/>
<path d="M362.638 808.585V809.829H361.173V811.696H360.197V809.829H358.732V808.585H360.197V806.719H361.173V808.585H362.638Z" fill="white"/>
<path d="M362.638 823.516V824.76H361.173V826.626H360.197V824.76H358.732V823.516H360.197V821.649H361.173V823.516H362.638Z" fill="white"/>
<path d="M362.638 838.446V839.69H361.173V841.556H360.197V839.69H358.732V838.446H360.197V836.58H361.173V838.446H362.638Z" fill="white"/>
<path d="M362.638 853.377V854.621H361.173V856.487H360.197V854.621H358.732V853.377H360.197V851.51H361.173V853.377H362.638Z" fill="white"/>
<path d="M362.638 868.307V869.551H361.173V871.417H360.197V869.551H358.732V868.307H360.197V866.44H361.173V868.307H362.638Z" fill="white"/>
<path d="M362.638 883.237V884.481H361.173V886.347H360.197V884.481H358.732V883.237H360.197V881.371H361.173V883.237H362.638Z" fill="white"/>
<path d="M350.923 599.561V600.805H349.458V602.671H348.482V600.805H347.018V599.561H348.482V597.694H349.458V599.561H350.923Z" fill="white"/>
<path d="M350.923 614.491V615.735H349.458V617.601H348.482V615.735H347.018V614.491H348.482V612.625H349.458V614.491H350.923Z" fill="white"/>
<path d="M350.923 629.421V630.666H349.458V632.532H348.482V630.666H347.018V629.421H348.482V627.555H349.458V629.421H350.923Z" fill="white"/>
<path d="M350.923 644.352V645.596H349.458V647.462H348.482V645.596H347.018V644.352H348.482V642.485H349.458V644.352H350.923Z" fill="white"/>
<path d="M350.923 659.282V660.526H349.458V662.392H348.482V660.526H347.018V659.282H348.482V657.416H349.458V659.282H350.923Z" fill="white"/>
<path d="M350.923 674.212V675.456H349.458V677.322H348.482V675.456H347.018V674.212H348.482V672.346H349.458V674.212H350.923Z" fill="white"/>
<path d="M350.923 689.143V690.387H349.458V692.253H348.482V690.387H347.018V689.143H348.482V687.276H349.458V689.143H350.923Z" fill="white"/>
<path d="M350.923 704.073V705.317H349.458V707.183H348.482V705.317H347.018V704.073H348.482V702.207H349.458V704.073H350.923Z" fill="white"/>
<path d="M350.923 719.003V720.247H349.458V722.114H348.482V720.247H347.018V719.003H348.482V717.137H349.458V719.003H350.923Z" fill="white"/>
<path d="M350.923 733.934V735.178H349.458V737.044H348.482V735.178H347.018V733.934H348.482V732.067H349.458V733.934H350.923Z" fill="white"/>
<path d="M350.923 748.864V750.108H349.458V751.974H348.482V750.108H347.018V748.864H348.482V746.998H349.458V748.864H350.923Z" fill="white"/>
<path d="M350.923 763.795V765.039H349.458V766.905H348.482V765.039H347.018V763.795H348.482V761.928H349.458V763.795H350.923Z" fill="white"/>
<path d="M350.923 778.725V779.969H349.458V781.835H348.482V779.969H347.018V778.725H348.482V776.858H349.458V778.725H350.923Z" fill="white"/>
<path d="M350.923 793.655V794.899H349.458V796.765H348.482V794.899H347.018V793.655H348.482V791.789H349.458V793.655H350.923Z" fill="white"/>
<path d="M350.923 808.585V809.829H349.458V811.696H348.482V809.829H347.018V808.585H348.482V806.719H349.458V808.585H350.923Z" fill="white"/>
<path d="M350.923 823.516V824.76H349.458V826.626H348.482V824.76H347.018V823.516H348.482V821.649H349.458V823.516H350.923Z" fill="white"/>
<path d="M350.923 838.446V839.69H349.458V841.556H348.482V839.69H347.018V838.446H348.482V836.58H349.458V838.446H350.923Z" fill="white"/>
<path d="M350.923 853.377V854.621H349.458V856.487H348.482V854.621H347.018V853.377H348.482V851.51H349.458V853.377H350.923Z" fill="white"/>
<path d="M350.923 868.307V869.551H349.458V871.417H348.482V869.551H347.018V868.307H348.482V866.44H349.458V868.307H350.923Z" fill="white"/>
<path d="M350.923 883.237V884.481H349.458V886.347H348.482V884.481H347.018V883.237H348.482V881.371H349.458V883.237H350.923Z" fill="white"/>
<path d="M339.207 599.561V600.805H337.742V602.671H336.766V600.805H335.302V599.561H336.766V597.694H337.742V599.561H339.207Z" fill="white"/>
<path d="M339.207 614.491V615.735H337.742V617.601H336.766V615.735H335.302V614.491H336.766V612.625H337.742V614.491H339.207Z" fill="white"/>
<path d="M339.207 629.421V630.666H337.742V632.532H336.766V630.666H335.302V629.421H336.766V627.555H337.742V629.421H339.207Z" fill="white"/>
<path d="M339.207 644.352V645.596H337.742V647.462H336.766V645.596H335.302V644.352H336.766V642.485H337.742V644.352H339.207Z" fill="white"/>
<path d="M339.207 659.282V660.526H337.742V662.392H336.766V660.526H335.302V659.282H336.766V657.416H337.742V659.282H339.207Z" fill="white"/>
<path d="M339.207 674.212V675.456H337.742V677.322H336.766V675.456H335.302V674.212H336.766V672.346H337.742V674.212H339.207Z" fill="white"/>
<path d="M339.207 689.143V690.387H337.742V692.253H336.766V690.387H335.302V689.143H336.766V687.276H337.742V689.143H339.207Z" fill="white"/>
<path d="M339.207 704.073V705.317H337.742V707.183H336.766V705.317H335.302V704.073H336.766V702.207H337.742V704.073H339.207Z" fill="white"/>
<path d="M339.207 719.003V720.247H337.742V722.114H336.766V720.247H335.302V719.003H336.766V717.137H337.742V719.003H339.207Z" fill="white"/>
<path d="M339.207 733.934V735.178H337.742V737.044H336.766V735.178H335.302V733.934H336.766V732.067H337.742V733.934H339.207Z" fill="white"/>
<path d="M339.207 748.864V750.108H337.742V751.974H336.766V750.108H335.302V748.864H336.766V746.998H337.742V748.864H339.207Z" fill="white"/>
<path d="M339.207 763.795V765.039H337.742V766.905H336.766V765.039H335.302V763.795H336.766V761.928H337.742V763.795H339.207Z" fill="white"/>
<path d="M339.207 778.725V779.969H337.742V781.835H336.766V779.969H335.302V778.725H336.766V776.858H337.742V778.725H339.207Z" fill="white"/>
<path d="M339.207 793.655V794.899H337.742V796.765H336.766V794.899H335.302V793.655H336.766V791.789H337.742V793.655H339.207Z" fill="white"/>
<path d="M339.207 808.585V809.829H337.742V811.696H336.766V809.829H335.302V808.585H336.766V806.719H337.742V808.585H339.207Z" fill="white"/>
<path d="M339.207 823.516V824.76H337.742V826.626H336.766V824.76H335.302V823.516H336.766V821.649H337.742V823.516H339.207Z" fill="white"/>
<path d="M339.207 838.446V839.69H337.742V841.556H336.766V839.69H335.302V838.446H336.766V836.58H337.742V838.446H339.207Z" fill="white"/>
<path d="M339.207 853.377V854.621H337.742V856.487H336.766V854.621H335.302V853.377H336.766V851.51H337.742V853.377H339.207Z" fill="white"/>
<path d="M339.207 868.307V869.551H337.742V871.417H336.766V869.551H335.302V868.307H336.766V866.44H337.742V868.307H339.207Z" fill="white"/>
<path d="M339.207 883.237V884.481H337.742V886.347H336.766V884.481H335.302V883.237H336.766V881.371H337.742V883.237H339.207Z" fill="white"/>
<path d="M327.491 599.561V600.805H326.027V602.671H325.05V600.805H323.586V599.561H325.05V597.694H326.027V599.561H327.491Z" fill="white"/>
<path d="M327.491 614.491V615.735H326.027V617.601H325.05V615.735H323.586V614.491H325.05V612.625H326.027V614.491H327.491Z" fill="white"/>
<path d="M327.491 629.421V630.666H326.027V632.532H325.05V630.666H323.586V629.421H325.05V627.555H326.027V629.421H327.491Z" fill="white"/>
<path d="M327.491 644.352V645.596H326.027V647.462H325.05V645.596H323.586V644.352H325.05V642.485H326.027V644.352H327.491Z" fill="white"/>
<path d="M327.491 659.282V660.526H326.027V662.392H325.05V660.526H323.586V659.282H325.05V657.416H326.027V659.282H327.491Z" fill="white"/>
<path d="M327.491 674.212V675.456H326.027V677.322H325.05V675.456H323.586V674.212H325.05V672.346H326.027V674.212H327.491Z" fill="white"/>
<path d="M327.491 689.143V690.387H326.027V692.253H325.05V690.387H323.586V689.143H325.05V687.276H326.027V689.143H327.491Z" fill="white"/>
<path d="M327.491 704.073V705.317H326.027V707.183H325.05V705.317H323.586V704.073H325.05V702.207H326.027V704.073H327.491Z" fill="white"/>
<path d="M327.491 719.003V720.247H326.027V722.114H325.05V720.247H323.586V719.003H325.05V717.137H326.027V719.003H327.491Z" fill="white"/>
<path d="M327.491 733.934V735.178H326.027V737.044H325.05V735.178H323.586V733.934H325.05V732.067H326.027V733.934H327.491Z" fill="white"/>
<path d="M327.491 748.864V750.108H326.027V751.974H325.05V750.108H323.586V748.864H325.05V746.998H326.027V748.864H327.491Z" fill="white"/>
<path d="M327.491 763.795V765.039H326.027V766.905H325.05V765.039H323.586V763.795H325.05V761.928H326.027V763.795H327.491Z" fill="white"/>
<path d="M327.491 778.725V779.969H326.027V781.835H325.05V779.969H323.586V778.725H325.05V776.858H326.027V778.725H327.491Z" fill="white"/>
<path d="M327.491 793.655V794.899H326.027V796.765H325.05V794.899H323.586V793.655H325.05V791.789H326.027V793.655H327.491Z" fill="white"/>
<path d="M327.491 808.585V809.829H326.027V811.696H325.05V809.829H323.586V808.585H325.05V806.719H326.027V808.585H327.491Z" fill="white"/>
<path d="M327.491 823.516V824.76H326.027V826.626H325.05V824.76H323.586V823.516H325.05V821.649H326.027V823.516H327.491Z" fill="white"/>
<path d="M327.491 838.446V839.69H326.027V841.556H325.05V839.69H323.586V838.446H325.05V836.58H326.027V838.446H327.491Z" fill="white"/>
<path d="M327.491 853.377V854.621H326.027V856.487H325.05V854.621H323.586V853.377H325.05V851.51H326.027V853.377H327.491Z" fill="white"/>
<path d="M327.491 868.307V869.551H326.027V871.417H325.05V869.551H323.586V868.307H325.05V866.44H326.027V868.307H327.491Z" fill="white"/>
<path d="M327.491 883.237V884.481H326.027V886.347H325.05V884.481H323.586V883.237H325.05V881.371H326.027V883.237H327.491Z" fill="white"/>
<path d="M315.776 599.561V600.805H314.312V602.671H313.336V600.805H311.871V599.561H313.336V597.694H314.312V599.561H315.776Z" fill="white"/>
<path d="M315.776 614.491V615.735H314.312V617.601H313.336V615.735H311.871V614.491H313.336V612.625H314.312V614.491H315.776Z" fill="white"/>
<path d="M315.776 629.421V630.666H314.312V632.532H313.336V630.666H311.871V629.421H313.336V627.555H314.312V629.421H315.776Z" fill="white"/>
<path d="M315.776 644.352V645.596H314.312V647.462H313.336V645.596H311.871V644.352H313.336V642.485H314.312V644.352H315.776Z" fill="white"/>
<path d="M315.776 659.282V660.526H314.312V662.392H313.336V660.526H311.871V659.282H313.336V657.416H314.312V659.282H315.776Z" fill="white"/>
<path d="M315.776 674.212V675.456H314.312V677.322H313.336V675.456H311.871V674.212H313.336V672.346H314.312V674.212H315.776Z" fill="white"/>
<path d="M315.776 689.143V690.387H314.312V692.253H313.336V690.387H311.871V689.143H313.336V687.276H314.312V689.143H315.776Z" fill="white"/>
<path d="M315.776 704.073V705.317H314.312V707.183H313.336V705.317H311.871V704.073H313.336V702.207H314.312V704.073H315.776Z" fill="white"/>
<path d="M315.776 719.003V720.247H314.312V722.114H313.336V720.247H311.871V719.003H313.336V717.137H314.312V719.003H315.776Z" fill="white"/>
<path d="M315.776 733.934V735.178H314.312V737.044H313.336V735.178H311.871V733.934H313.336V732.067H314.312V733.934H315.776Z" fill="white"/>
<path d="M315.776 748.864V750.108H314.312V751.974H313.336V750.108H311.871V748.864H313.336V746.998H314.312V748.864H315.776Z" fill="white"/>
<path d="M315.776 763.795V765.039H314.312V766.905H313.336V765.039H311.871V763.795H313.336V761.928H314.312V763.795H315.776Z" fill="white"/>
<path d="M315.776 778.725V779.969H314.312V781.835H313.336V779.969H311.871V778.725H313.336V776.858H314.312V778.725H315.776Z" fill="white"/>
<path d="M315.776 793.655V794.899H314.312V796.765H313.336V794.899H311.871V793.655H313.336V791.789H314.312V793.655H315.776Z" fill="white"/>
<path d="M315.776 808.585V809.829H314.312V811.696H313.336V809.829H311.871V808.585H313.336V806.719H314.312V808.585H315.776Z" fill="white"/>
<path d="M315.776 823.516V824.76H314.312V826.626H313.336V824.76H311.871V823.516H313.336V821.649H314.312V823.516H315.776Z" fill="white"/>
<path d="M315.776 838.446V839.69H314.312V841.556H313.336V839.69H311.871V838.446H313.336V836.58H314.312V838.446H315.776Z" fill="white"/>
<path d="M315.776 853.377V854.621H314.312V856.487H313.336V854.621H311.871V853.377H313.336V851.51H314.312V853.377H315.776Z" fill="white"/>
<path d="M315.776 868.307V869.551H314.312V871.417H313.336V869.551H311.871V868.307H313.336V866.44H314.312V868.307H315.776Z" fill="white"/>
<path d="M315.776 883.237V884.481H314.312V886.347H313.336V884.481H311.871V883.237H313.336V881.371H314.312V883.237H315.776Z" fill="white"/>
<path d="M304.06 599.561V600.805H302.596V602.671H301.62V600.805H300.155V599.561H301.62V597.694H302.596V599.561H304.06Z" fill="white"/>
<path d="M304.06 614.491V615.735H302.596V617.601H301.62V615.735H300.155V614.491H301.62V612.625H302.596V614.491H304.06Z" fill="white"/>
<path d="M304.06 629.421V630.666H302.596V632.532H301.62V630.666H300.155V629.421H301.62V627.555H302.596V629.421H304.06Z" fill="white"/>
<path d="M304.06 644.352V645.596H302.596V647.462H301.62V645.596H300.155V644.352H301.62V642.485H302.596V644.352H304.06Z" fill="white"/>
<path d="M304.06 659.282V660.526H302.596V662.392H301.62V660.526H300.155V659.282H301.62V657.416H302.596V659.282H304.06Z" fill="white"/>
<path d="M304.06 674.212V675.456H302.596V677.322H301.62V675.456H300.155V674.212H301.62V672.346H302.596V674.212H304.06Z" fill="white"/>
<path d="M304.06 689.143V690.387H302.596V692.253H301.62V690.387H300.155V689.143H301.62V687.276H302.596V689.143H304.06Z" fill="white"/>
<path d="M304.06 704.073V705.317H302.596V707.183H301.62V705.317H300.155V704.073H301.62V702.207H302.596V704.073H304.06Z" fill="white"/>
<path d="M304.06 719.003V720.247H302.596V722.114H301.62V720.247H300.155V719.003H301.62V717.137H302.596V719.003H304.06Z" fill="white"/>
<path d="M304.06 733.934V735.178H302.596V737.044H301.62V735.178H300.155V733.934H301.62V732.067H302.596V733.934H304.06Z" fill="white"/>
<path d="M304.06 748.864V750.108H302.596V751.974H301.62V750.108H300.155V748.864H301.62V746.998H302.596V748.864H304.06Z" fill="white"/>
<path d="M304.06 763.795V765.039H302.596V766.905H301.62V765.039H300.155V763.795H301.62V761.928H302.596V763.795H304.06Z" fill="white"/>
<path d="M304.06 778.725V779.969H302.596V781.835H301.62V779.969H300.155V778.725H301.62V776.858H302.596V778.725H304.06Z" fill="white"/>
<path d="M304.06 793.655V794.899H302.596V796.765H301.62V794.899H300.155V793.655H301.62V791.789H302.596V793.655H304.06Z" fill="white"/>
<path d="M304.06 808.585V809.829H302.596V811.696H301.62V809.829H300.155V808.585H301.62V806.719H302.596V808.585H304.06Z" fill="white"/>
<path d="M304.06 823.516V824.76H302.596V826.626H301.62V824.76H300.155V823.516H301.62V821.649H302.596V823.516H304.06Z" fill="white"/>
<path d="M304.06 838.446V839.69H302.596V841.556H301.62V839.69H300.155V838.446H301.62V836.58H302.596V838.446H304.06Z" fill="white"/>
<path d="M304.06 853.377V854.621H302.596V856.487H301.62V854.621H300.155V853.377H301.62V851.51H302.596V853.377H304.06Z" fill="white"/>
<path d="M304.06 868.307V869.551H302.596V871.417H301.62V869.551H300.155V868.307H301.62V866.44H302.596V868.307H304.06Z" fill="white"/>
<path d="M304.06 883.237V884.481H302.596V886.347H301.62V884.481H300.155V883.237H301.62V881.371H302.596V883.237H304.06Z" fill="white"/>
<path d="M292.345 599.561V600.805H290.88V602.671H289.904V600.805H288.439V599.561H289.904V597.694H290.88V599.561H292.345Z" fill="white"/>
<path d="M292.345 614.491V615.735H290.88V617.601H289.904V615.735H288.439V614.491H289.904V612.625H290.88V614.491H292.345Z" fill="white"/>
<path d="M292.345 629.421V630.666H290.88V632.532H289.904V630.666H288.439V629.421H289.904V627.555H290.88V629.421H292.345Z" fill="white"/>
<path d="M292.345 644.352V645.596H290.88V647.462H289.904V645.596H288.439V644.352H289.904V642.485H290.88V644.352H292.345Z" fill="white"/>
<path d="M292.345 659.282V660.526H290.88V662.392H289.904V660.526H288.439V659.282H289.904V657.416H290.88V659.282H292.345Z" fill="white"/>
<path d="M292.345 674.212V675.456H290.88V677.322H289.904V675.456H288.439V674.212H289.904V672.346H290.88V674.212H292.345Z" fill="white"/>
<path d="M292.345 689.143V690.387H290.88V692.253H289.904V690.387H288.439V689.143H289.904V687.276H290.88V689.143H292.345Z" fill="white"/>
<path d="M292.345 704.073V705.317H290.88V707.183H289.904V705.317H288.439V704.073H289.904V702.207H290.88V704.073H292.345Z" fill="white"/>
<path d="M292.345 719.003V720.247H290.88V722.114H289.904V720.247H288.439V719.003H289.904V717.137H290.88V719.003H292.345Z" fill="white"/>
<path d="M292.345 733.934V735.178H290.88V737.044H289.904V735.178H288.439V733.934H289.904V732.067H290.88V733.934H292.345Z" fill="white"/>
<path d="M292.345 748.864V750.108H290.88V751.974H289.904V750.108H288.439V748.864H289.904V746.998H290.88V748.864H292.345Z" fill="white"/>
<path d="M292.345 763.795V765.039H290.88V766.905H289.904V765.039H288.439V763.795H289.904V761.928H290.88V763.795H292.345Z" fill="white"/>
<path d="M292.345 778.725V779.969H290.88V781.835H289.904V779.969H288.439V778.725H289.904V776.858H290.88V778.725H292.345Z" fill="white"/>
<path d="M292.345 793.655V794.899H290.88V796.765H289.904V794.899H288.439V793.655H289.904V791.789H290.88V793.655H292.345Z" fill="white"/>
<path d="M292.345 808.585V809.829H290.88V811.696H289.904V809.829H288.439V808.585H289.904V806.719H290.88V808.585H292.345Z" fill="white"/>
<path d="M292.345 823.516V824.76H290.88V826.626H289.904V824.76H288.439V823.516H289.904V821.649H290.88V823.516H292.345Z" fill="white"/>
<path d="M292.345 838.446V839.69H290.88V841.556H289.904V839.69H288.439V838.446H289.904V836.58H290.88V838.446H292.345Z" fill="white"/>
<path d="M292.345 853.377V854.621H290.88V856.487H289.904V854.621H288.439V853.377H289.904V851.51H290.88V853.377H292.345Z" fill="white"/>
<path d="M292.345 868.307V869.551H290.88V871.417H289.904V869.551H288.439V868.307H289.904V866.44H290.88V868.307H292.345Z" fill="white"/>
<path d="M292.345 883.237V884.481H290.88V886.347H289.904V884.481H288.439V883.237H289.904V881.371H290.88V883.237H292.345Z" fill="white"/>
<path d="M280.63 599.561V600.805H279.165V602.671H278.189V600.805H276.725V599.561H278.189V597.694H279.165V599.561H280.63Z" fill="white"/>
<path d="M280.63 614.491V615.735H279.165V617.601H278.189V615.735H276.725V614.491H278.189V612.625H279.165V614.491H280.63Z" fill="white"/>
<path d="M280.63 629.421V630.666H279.165V632.532H278.189V630.666H276.725V629.421H278.189V627.555H279.165V629.421H280.63Z" fill="white"/>
<path d="M280.63 644.352V645.596H279.165V647.462H278.189V645.596H276.725V644.352H278.189V642.485H279.165V644.352H280.63Z" fill="white"/>
<path d="M280.63 659.282V660.526H279.165V662.392H278.189V660.526H276.725V659.282H278.189V657.416H279.165V659.282H280.63Z" fill="white"/>
<path d="M280.63 674.212V675.456H279.165V677.322H278.189V675.456H276.725V674.212H278.189V672.346H279.165V674.212H280.63Z" fill="white"/>
<path d="M280.63 689.143V690.387H279.165V692.253H278.189V690.387H276.725V689.143H278.189V687.276H279.165V689.143H280.63Z" fill="white"/>
<path d="M280.63 704.073V705.317H279.165V707.183H278.189V705.317H276.725V704.073H278.189V702.207H279.165V704.073H280.63Z" fill="white"/>
<path d="M280.63 719.003V720.247H279.165V722.114H278.189V720.247H276.725V719.003H278.189V717.137H279.165V719.003H280.63Z" fill="white"/>
<path d="M280.63 733.934V735.178H279.165V737.044H278.189V735.178H276.725V733.934H278.189V732.067H279.165V733.934H280.63Z" fill="white"/>
<path d="M280.63 748.864V750.108H279.165V751.974H278.189V750.108H276.725V748.864H278.189V746.998H279.165V748.864H280.63Z" fill="white"/>
<path d="M280.63 763.795V765.039H279.165V766.905H278.189V765.039H276.725V763.795H278.189V761.928H279.165V763.795H280.63Z" fill="white"/>
<path d="M280.63 778.725V779.969H279.165V781.835H278.189V779.969H276.725V778.725H278.189V776.858H279.165V778.725H280.63Z" fill="white"/>
<path d="M280.63 793.655V794.899H279.165V796.765H278.189V794.899H276.725V793.655H278.189V791.789H279.165V793.655H280.63Z" fill="white"/>
<path d="M280.63 808.585V809.829H279.165V811.696H278.189V809.829H276.725V808.585H278.189V806.719H279.165V808.585H280.63Z" fill="white"/>
<path d="M280.63 823.516V824.76H279.165V826.626H278.189V824.76H276.725V823.516H278.189V821.649H279.165V823.516H280.63Z" fill="white"/>
<path d="M280.63 838.446V839.69H279.165V841.556H278.189V839.69H276.725V838.446H278.189V836.58H279.165V838.446H280.63Z" fill="white"/>
<path d="M280.63 853.377V854.621H279.165V856.487H278.189V854.621H276.725V853.377H278.189V851.51H279.165V853.377H280.63Z" fill="white"/>
<path d="M280.63 868.307V869.551H279.165V871.417H278.189V869.551H276.725V868.307H278.189V866.44H279.165V868.307H280.63Z" fill="white"/>
<path d="M280.63 883.237V884.481H279.165V886.347H278.189V884.481H276.725V883.237H278.189V881.371H279.165V883.237H280.63Z" fill="white"/>
<path d="M268.914 599.561V600.805H267.45V602.671H266.473V600.805H265.009V599.561H266.473V597.694H267.45V599.561H268.914Z" fill="white"/>
<path d="M268.914 614.491V615.735H267.45V617.601H266.473V615.735H265.009V614.491H266.473V612.625H267.45V614.491H268.914Z" fill="white"/>
<path d="M268.914 629.421V630.666H267.45V632.532H266.473V630.666H265.009V629.421H266.473V627.555H267.45V629.421H268.914Z" fill="white"/>
<path d="M268.914 644.352V645.596H267.45V647.462H266.473V645.596H265.009V644.352H266.473V642.485H267.45V644.352H268.914Z" fill="white"/>
<path d="M268.914 659.282V660.526H267.45V662.392H266.473V660.526H265.009V659.282H266.473V657.416H267.45V659.282H268.914Z" fill="white"/>
<path d="M268.914 674.212V675.456H267.45V677.322H266.473V675.456H265.009V674.212H266.473V672.346H267.45V674.212H268.914Z" fill="white"/>
<path d="M268.914 689.143V690.387H267.45V692.253H266.473V690.387H265.009V689.143H266.473V687.276H267.45V689.143H268.914Z" fill="white"/>
<path d="M268.914 704.073V705.317H267.45V707.183H266.473V705.317H265.009V704.073H266.473V702.207H267.45V704.073H268.914Z" fill="white"/>
<path d="M268.914 719.003V720.247H267.45V722.114H266.473V720.247H265.009V719.003H266.473V717.137H267.45V719.003H268.914Z" fill="white"/>
<path d="M268.914 733.934V735.178H267.45V737.044H266.473V735.178H265.009V733.934H266.473V732.067H267.45V733.934H268.914Z" fill="white"/>
<path d="M268.914 748.864V750.108H267.45V751.974H266.473V750.108H265.009V748.864H266.473V746.998H267.45V748.864H268.914Z" fill="white"/>
<path d="M268.914 763.795V765.039H267.45V766.905H266.473V765.039H265.009V763.795H266.473V761.928H267.45V763.795H268.914Z" fill="white"/>
<path d="M268.914 778.725V779.969H267.45V781.835H266.473V779.969H265.009V778.725H266.473V776.858H267.45V778.725H268.914Z" fill="white"/>
<path d="M268.914 793.655V794.899H267.45V796.765H266.473V794.899H265.009V793.655H266.473V791.789H267.45V793.655H268.914Z" fill="white"/>
<path d="M268.914 808.585V809.829H267.45V811.696H266.473V809.829H265.009V808.585H266.473V806.719H267.45V808.585H268.914Z" fill="white"/>
<path d="M268.914 823.516V824.76H267.45V826.626H266.473V824.76H265.009V823.516H266.473V821.649H267.45V823.516H268.914Z" fill="white"/>
<path d="M268.914 838.446V839.69H267.45V841.556H266.473V839.69H265.009V838.446H266.473V836.58H267.45V838.446H268.914Z" fill="white"/>
<path d="M268.914 853.377V854.621H267.45V856.487H266.473V854.621H265.009V853.377H266.473V851.51H267.45V853.377H268.914Z" fill="white"/>
<path d="M268.914 868.307V869.551H267.45V871.417H266.473V869.551H265.009V868.307H266.473V866.44H267.45V868.307H268.914Z" fill="white"/>
<path d="M268.914 883.237V884.481H267.45V886.347H266.473V884.481H265.009V883.237H266.473V881.371H267.45V883.237H268.914Z" fill="white"/>
<path d="M257.198 599.561V600.805H255.734V602.671H254.757V600.805H253.293V599.561H254.757V597.694H255.734V599.561H257.198Z" fill="white"/>
<path d="M257.198 614.491V615.735H255.734V617.601H254.757V615.735H253.293V614.491H254.757V612.625H255.734V614.491H257.198Z" fill="white"/>
<path d="M257.198 629.421V630.666H255.734V632.532H254.757V630.666H253.293V629.421H254.757V627.555H255.734V629.421H257.198Z" fill="white"/>
<path d="M257.198 644.352V645.596H255.734V647.462H254.757V645.596H253.293V644.352H254.757V642.485H255.734V644.352H257.198Z" fill="white"/>
<path d="M257.198 659.282V660.526H255.734V662.392H254.757V660.526H253.293V659.282H254.757V657.416H255.734V659.282H257.198Z" fill="white"/>
<path d="M257.198 674.212V675.456H255.734V677.322H254.757V675.456H253.293V674.212H254.757V672.346H255.734V674.212H257.198Z" fill="white"/>
<path d="M257.198 689.143V690.387H255.734V692.253H254.757V690.387H253.293V689.143H254.757V687.276H255.734V689.143H257.198Z" fill="white"/>
<path d="M257.198 704.073V705.317H255.734V707.183H254.757V705.317H253.293V704.073H254.757V702.207H255.734V704.073H257.198Z" fill="white"/>
<path d="M257.198 719.003V720.247H255.734V722.114H254.757V720.247H253.293V719.003H254.757V717.137H255.734V719.003H257.198Z" fill="white"/>
<path d="M257.198 733.934V735.178H255.734V737.044H254.757V735.178H253.293V733.934H254.757V732.067H255.734V733.934H257.198Z" fill="white"/>
<path d="M257.198 748.864V750.108H255.734V751.974H254.757V750.108H253.293V748.864H254.757V746.998H255.734V748.864H257.198Z" fill="white"/>
<path d="M257.198 763.795V765.039H255.734V766.905H254.757V765.039H253.293V763.795H254.757V761.928H255.734V763.795H257.198Z" fill="white"/>
<path d="M257.198 778.725V779.969H255.734V781.835H254.757V779.969H253.293V778.725H254.757V776.858H255.734V778.725H257.198Z" fill="white"/>
<path d="M257.198 793.655V794.899H255.734V796.765H254.757V794.899H253.293V793.655H254.757V791.789H255.734V793.655H257.198Z" fill="white"/>
<path d="M257.198 808.585V809.829H255.734V811.696H254.757V809.829H253.293V808.585H254.757V806.719H255.734V808.585H257.198Z" fill="white"/>
<path d="M257.198 823.516V824.76H255.734V826.626H254.757V824.76H253.293V823.516H254.757V821.649H255.734V823.516H257.198Z" fill="white"/>
<path d="M257.198 838.446V839.69H255.734V841.556H254.757V839.69H253.293V838.446H254.757V836.58H255.734V838.446H257.198Z" fill="white"/>
<path d="M257.198 853.377V854.621H255.734V856.487H254.757V854.621H253.293V853.377H254.757V851.51H255.734V853.377H257.198Z" fill="white"/>
<path d="M257.198 868.307V869.551H255.734V871.417H254.757V869.551H253.293V868.307H254.757V866.44H255.734V868.307H257.198Z" fill="white"/>
<path d="M257.198 883.237V884.481H255.734V886.347H254.757V884.481H253.293V883.237H254.757V881.371H255.734V883.237H257.198Z" fill="white"/>
<path d="M245.483 599.561V600.805H244.019V602.671H243.043V600.805H241.578V599.561H243.043V597.694H244.019V599.561H245.483Z" fill="white"/>
<path d="M245.483 614.491V615.735H244.019V617.601H243.043V615.735H241.578V614.491H243.043V612.625H244.019V614.491H245.483Z" fill="white"/>
<path d="M245.483 629.421V630.666H244.019V632.532H243.043V630.666H241.578V629.421H243.043V627.555H244.019V629.421H245.483Z" fill="white"/>
<path d="M245.483 644.352V645.596H244.019V647.462H243.043V645.596H241.578V644.352H243.043V642.485H244.019V644.352H245.483Z" fill="white"/>
<path d="M245.483 659.282V660.526H244.019V662.392H243.043V660.526H241.578V659.282H243.043V657.416H244.019V659.282H245.483Z" fill="white"/>
<path d="M245.483 674.212V675.456H244.019V677.322H243.043V675.456H241.578V674.212H243.043V672.346H244.019V674.212H245.483Z" fill="white"/>
<path d="M245.483 689.143V690.387H244.019V692.253H243.043V690.387H241.578V689.143H243.043V687.276H244.019V689.143H245.483Z" fill="white"/>
<path d="M245.483 704.073V705.317H244.019V707.183H243.043V705.317H241.578V704.073H243.043V702.207H244.019V704.073H245.483Z" fill="white"/>
<path d="M245.483 719.003V720.247H244.019V722.114H243.043V720.247H241.578V719.003H243.043V717.137H244.019V719.003H245.483Z" fill="white"/>
<path d="M245.483 733.934V735.178H244.019V737.044H243.043V735.178H241.578V733.934H243.043V732.067H244.019V733.934H245.483Z" fill="white"/>
<path d="M245.483 748.864V750.108H244.019V751.974H243.043V750.108H241.578V748.864H243.043V746.998H244.019V748.864H245.483Z" fill="white"/>
<path d="M245.483 763.795V765.039H244.019V766.905H243.043V765.039H241.578V763.795H243.043V761.928H244.019V763.795H245.483Z" fill="white"/>
<path d="M245.483 778.725V779.969H244.019V781.835H243.043V779.969H241.578V778.725H243.043V776.858H244.019V778.725H245.483Z" fill="white"/>
<path d="M245.483 793.655V794.899H244.019V796.765H243.043V794.899H241.578V793.655H243.043V791.789H244.019V793.655H245.483Z" fill="white"/>
<path d="M245.483 808.585V809.829H244.019V811.696H243.043V809.829H241.578V808.585H243.043V806.719H244.019V808.585H245.483Z" fill="white"/>
<path d="M245.483 823.516V824.76H244.019V826.626H243.043V824.76H241.578V823.516H243.043V821.649H244.019V823.516H245.483Z" fill="white"/>
<path d="M245.483 838.446V839.69H244.019V841.556H243.043V839.69H241.578V838.446H243.043V836.58H244.019V838.446H245.483Z" fill="white"/>
<path d="M245.483 853.377V854.621H244.019V856.487H243.043V854.621H241.578V853.377H243.043V851.51H244.019V853.377H245.483Z" fill="white"/>
<path d="M245.483 868.307V869.551H244.019V871.417H243.043V869.551H241.578V868.307H243.043V866.44H244.019V868.307H245.483Z" fill="white"/>
<path d="M245.483 883.237V884.481H244.019V886.347H243.043V884.481H241.578V883.237H243.043V881.371H244.019V883.237H245.483Z" fill="white"/>
<path d="M233.767 599.561V600.805H232.303V602.671H231.327V600.805H229.862V599.561H231.327V597.694H232.303V599.561H233.767Z" fill="white"/>
<path d="M233.767 614.491V615.735H232.303V617.601H231.327V615.735H229.862V614.491H231.327V612.625H232.303V614.491H233.767Z" fill="white"/>
<path d="M233.767 629.421V630.666H232.303V632.532H231.327V630.666H229.862V629.421H231.327V627.555H232.303V629.421H233.767Z" fill="white"/>
<path d="M233.767 644.352V645.596H232.303V647.462H231.327V645.596H229.862V644.352H231.327V642.485H232.303V644.352H233.767Z" fill="white"/>
<path d="M233.767 659.282V660.526H232.303V662.392H231.327V660.526H229.862V659.282H231.327V657.416H232.303V659.282H233.767Z" fill="white"/>
<path d="M233.767 674.212V675.456H232.303V677.322H231.327V675.456H229.862V674.212H231.327V672.346H232.303V674.212H233.767Z" fill="white"/>
<path d="M233.767 689.143V690.387H232.303V692.253H231.327V690.387H229.862V689.143H231.327V687.276H232.303V689.143H233.767Z" fill="white"/>
<path d="M233.767 704.073V705.317H232.303V707.183H231.327V705.317H229.862V704.073H231.327V702.207H232.303V704.073H233.767Z" fill="white"/>
<path d="M233.767 719.003V720.247H232.303V722.114H231.327V720.247H229.862V719.003H231.327V717.137H232.303V719.003H233.767Z" fill="white"/>
<path d="M233.767 733.934V735.178H232.303V737.044H231.327V735.178H229.862V733.934H231.327V732.067H232.303V733.934H233.767Z" fill="white"/>
<path d="M233.767 748.864V750.108H232.303V751.974H231.327V750.108H229.862V748.864H231.327V746.998H232.303V748.864H233.767Z" fill="white"/>
<path d="M233.767 763.795V765.039H232.303V766.905H231.327V765.039H229.862V763.795H231.327V761.928H232.303V763.795H233.767Z" fill="white"/>
<path d="M233.767 778.725V779.969H232.303V781.835H231.327V779.969H229.862V778.725H231.327V776.858H232.303V778.725H233.767Z" fill="white"/>
<path d="M233.767 793.655V794.899H232.303V796.765H231.327V794.899H229.862V793.655H231.327V791.789H232.303V793.655H233.767Z" fill="white"/>
<path d="M233.767 808.585V809.829H232.303V811.696H231.327V809.829H229.862V808.585H231.327V806.719H232.303V808.585H233.767Z" fill="white"/>
<path d="M233.767 823.516V824.76H232.303V826.626H231.327V824.76H229.862V823.516H231.327V821.649H232.303V823.516H233.767Z" fill="white"/>
<path d="M233.767 838.446V839.69H232.303V841.556H231.327V839.69H229.862V838.446H231.327V836.58H232.303V838.446H233.767Z" fill="white"/>
<path d="M233.767 853.377V854.621H232.303V856.487H231.327V854.621H229.862V853.377H231.327V851.51H232.303V853.377H233.767Z" fill="white"/>
<path d="M233.767 868.307V869.551H232.303V871.417H231.327V869.551H229.862V868.307H231.327V866.44H232.303V868.307H233.767Z" fill="white"/>
<path d="M233.767 883.237V884.481H232.303V886.347H231.327V884.481H229.862V883.237H231.327V881.371H232.303V883.237H233.767Z" fill="white"/>
<path d="M222.052 599.561V600.805H220.587V602.671H219.611V600.805H218.146V599.561H219.611V597.694H220.587V599.561H222.052Z" fill="white"/>
<path d="M222.052 614.491V615.735H220.587V617.601H219.611V615.735H218.146V614.491H219.611V612.625H220.587V614.491H222.052Z" fill="white"/>
<path d="M222.052 629.421V630.666H220.587V632.532H219.611V630.666H218.146V629.421H219.611V627.555H220.587V629.421H222.052Z" fill="white"/>
<path d="M222.052 644.352V645.596H220.587V647.462H219.611V645.596H218.146V644.352H219.611V642.485H220.587V644.352H222.052Z" fill="white"/>
<path d="M222.052 659.282V660.526H220.587V662.392H219.611V660.526H218.146V659.282H219.611V657.416H220.587V659.282H222.052Z" fill="white"/>
<path d="M222.052 674.212V675.456H220.587V677.322H219.611V675.456H218.146V674.212H219.611V672.346H220.587V674.212H222.052Z" fill="white"/>
<path d="M222.052 689.143V690.387H220.587V692.253H219.611V690.387H218.146V689.143H219.611V687.276H220.587V689.143H222.052Z" fill="white"/>
<path d="M222.052 704.073V705.317H220.587V707.183H219.611V705.317H218.146V704.073H219.611V702.207H220.587V704.073H222.052Z" fill="white"/>
<path d="M222.052 719.003V720.247H220.587V722.114H219.611V720.247H218.146V719.003H219.611V717.137H220.587V719.003H222.052Z" fill="white"/>
<path d="M222.052 733.934V735.178H220.587V737.044H219.611V735.178H218.146V733.934H219.611V732.067H220.587V733.934H222.052Z" fill="white"/>
<path d="M222.052 748.864V750.108H220.587V751.974H219.611V750.108H218.146V748.864H219.611V746.998H220.587V748.864H222.052Z" fill="white"/>
<path d="M222.052 763.795V765.039H220.587V766.905H219.611V765.039H218.146V763.795H219.611V761.928H220.587V763.795H222.052Z" fill="white"/>
<path d="M222.052 778.725V779.969H220.587V781.835H219.611V779.969H218.146V778.725H219.611V776.858H220.587V778.725H222.052Z" fill="white"/>
<path d="M222.052 793.655V794.899H220.587V796.765H219.611V794.899H218.146V793.655H219.611V791.789H220.587V793.655H222.052Z" fill="white"/>
<path d="M222.052 808.585V809.829H220.587V811.696H219.611V809.829H218.146V808.585H219.611V806.719H220.587V808.585H222.052Z" fill="white"/>
<path d="M222.052 823.516V824.76H220.587V826.626H219.611V824.76H218.146V823.516H219.611V821.649H220.587V823.516H222.052Z" fill="white"/>
<path d="M222.052 838.446V839.69H220.587V841.556H219.611V839.69H218.146V838.446H219.611V836.58H220.587V838.446H222.052Z" fill="white"/>
<path d="M222.052 853.377V854.621H220.587V856.487H219.611V854.621H218.146V853.377H219.611V851.51H220.587V853.377H222.052Z" fill="white"/>
<path d="M222.052 868.307V869.551H220.587V871.417H219.611V869.551H218.146V868.307H219.611V866.44H220.587V868.307H222.052Z" fill="white"/>
<path d="M222.052 883.237V884.481H220.587V886.347H219.611V884.481H218.146V883.237H219.611V881.371H220.587V883.237H222.052Z" fill="white"/>
<path d="M210.336 599.561V600.805H208.871V602.671H207.895V600.805H206.431V599.561H207.895V597.694H208.871V599.561H210.336Z" fill="white"/>
<path d="M210.337 614.491V615.735H208.872V617.601H207.896V615.735H206.432V614.491H207.896V612.625H208.872V614.491H210.337Z" fill="white"/>
<path d="M210.337 629.421V630.666H208.872V632.532H207.896V630.666H206.432V629.421H207.896V627.555H208.872V629.421H210.337Z" fill="white"/>
<path d="M210.337 644.352V645.596H208.872V647.462H207.896V645.596H206.432V644.352H207.896V642.485H208.872V644.352H210.337Z" fill="white"/>
<path d="M210.337 659.282V660.526H208.872V662.392H207.896V660.526H206.432V659.282H207.896V657.416H208.872V659.282H210.337Z" fill="white"/>
<path d="M210.337 674.212V675.456H208.872V677.322H207.896V675.456H206.432V674.212H207.896V672.346H208.872V674.212H210.337Z" fill="white"/>
<path d="M210.337 689.143V690.387H208.872V692.253H207.896V690.387H206.432V689.143H207.896V687.276H208.872V689.143H210.337Z" fill="white"/>
<path d="M210.337 704.073V705.317H208.872V707.183H207.896V705.317H206.432V704.073H207.896V702.207H208.872V704.073H210.337Z" fill="white"/>
<path d="M210.337 719.003V720.247H208.872V722.114H207.896V720.247H206.432V719.003H207.896V717.137H208.872V719.003H210.337Z" fill="white"/>
<path d="M210.337 733.934V735.178H208.872V737.044H207.896V735.178H206.432V733.934H207.896V732.067H208.872V733.934H210.337Z" fill="white"/>
<path d="M210.337 748.864V750.108H208.872V751.974H207.896V750.108H206.432V748.864H207.896V746.998H208.872V748.864H210.337Z" fill="white"/>
<path d="M210.337 763.795V765.039H208.872V766.905H207.896V765.039H206.432V763.795H207.896V761.928H208.872V763.795H210.337Z" fill="white"/>
<path d="M210.337 778.725V779.969H208.872V781.835H207.896V779.969H206.432V778.725H207.896V776.858H208.872V778.725H210.337Z" fill="white"/>
<path d="M210.337 793.655V794.899H208.872V796.765H207.896V794.899H206.432V793.655H207.896V791.789H208.872V793.655H210.337Z" fill="white"/>
<path d="M210.337 808.585V809.829H208.872V811.696H207.896V809.829H206.432V808.585H207.896V806.719H208.872V808.585H210.337Z" fill="white"/>
<path d="M210.337 823.516V824.76H208.872V826.626H207.896V824.76H206.432V823.516H207.896V821.649H208.872V823.516H210.337Z" fill="white"/>
<path d="M210.337 838.446V839.69H208.872V841.556H207.896V839.69H206.432V838.446H207.896V836.58H208.872V838.446H210.337Z" fill="white"/>
<path d="M210.337 853.377V854.621H208.872V856.487H207.896V854.621H206.432V853.377H207.896V851.51H208.872V853.377H210.337Z" fill="white"/>
<path d="M210.337 868.307V869.551H208.872V871.417H207.896V869.551H206.432V868.307H207.896V866.44H208.872V868.307H210.337Z" fill="white"/>
<path d="M210.337 883.237V884.481H208.872V886.347H207.896V884.481H206.432V883.237H207.896V881.371H208.872V883.237H210.337Z" fill="white"/>
<path d="M198.62 599.561V600.805H197.156V602.671H196.179V600.805H194.715V599.561H196.179V597.694H197.156V599.561H198.62Z" fill="white"/>
<path d="M198.62 614.491V615.735H197.156V617.601H196.179V615.735H194.715V614.491H196.179V612.625H197.156V614.491H198.62Z" fill="white"/>
<path d="M198.62 629.421V630.666H197.156V632.532H196.179V630.666H194.715V629.421H196.179V627.555H197.156V629.421H198.62Z" fill="white"/>
<path d="M198.62 644.352V645.596H197.156V647.462H196.179V645.596H194.715V644.352H196.179V642.485H197.156V644.352H198.62Z" fill="white"/>
<path d="M198.62 659.282V660.526H197.156V662.392H196.179V660.526H194.715V659.282H196.179V657.416H197.156V659.282H198.62Z" fill="white"/>
<path d="M198.62 674.212V675.456H197.156V677.322H196.179V675.456H194.715V674.212H196.179V672.346H197.156V674.212H198.62Z" fill="white"/>
<path d="M198.62 689.143V690.387H197.156V692.253H196.179V690.387H194.715V689.143H196.179V687.276H197.156V689.143H198.62Z" fill="white"/>
<path d="M198.62 704.073V705.317H197.156V707.183H196.179V705.317H194.715V704.073H196.179V702.207H197.156V704.073H198.62Z" fill="white"/>
<path d="M198.62 719.003V720.247H197.156V722.114H196.179V720.247H194.715V719.003H196.179V717.137H197.156V719.003H198.62Z" fill="white"/>
<path d="M198.62 733.934V735.178H197.156V737.044H196.179V735.178H194.715V733.934H196.179V732.067H197.156V733.934H198.62Z" fill="white"/>
<path d="M198.62 748.864V750.108H197.156V751.974H196.179V750.108H194.715V748.864H196.179V746.998H197.156V748.864H198.62Z" fill="white"/>
<path d="M198.62 763.795V765.039H197.156V766.905H196.179V765.039H194.715V763.795H196.179V761.928H197.156V763.795H198.62Z" fill="white"/>
<path d="M198.62 778.725V779.969H197.156V781.835H196.179V779.969H194.715V778.725H196.179V776.858H197.156V778.725H198.62Z" fill="white"/>
<path d="M198.62 793.655V794.899H197.156V796.765H196.179V794.899H194.715V793.655H196.179V791.789H197.156V793.655H198.62Z" fill="white"/>
<path d="M198.62 808.585V809.829H197.156V811.696H196.179V809.829H194.715V808.585H196.179V806.719H197.156V808.585H198.62Z" fill="white"/>
<path d="M198.62 823.516V824.76H197.156V826.626H196.179V824.76H194.715V823.516H196.179V821.649H197.156V823.516H198.62Z" fill="white"/>
<path d="M198.62 838.446V839.69H197.156V841.556H196.179V839.69H194.715V838.446H196.179V836.58H197.156V838.446H198.62Z" fill="white"/>
<path d="M198.62 853.377V854.621H197.156V856.487H196.179V854.621H194.715V853.377H196.179V851.51H197.156V853.377H198.62Z" fill="white"/>
<path d="M198.62 868.307V869.551H197.156V871.417H196.179V869.551H194.715V868.307H196.179V866.44H197.156V868.307H198.62Z" fill="white"/>
<path d="M198.62 883.237V884.481H197.156V886.347H196.179V884.481H194.715V883.237H196.179V881.371H197.156V883.237H198.62Z" fill="white"/>
<path d="M186.905 599.561V600.805H185.441V602.671H184.464V600.805H183V599.561H184.464V597.694H185.441V599.561H186.905Z" fill="white"/>
<path d="M186.905 614.491V615.735H185.441V617.601H184.464V615.735H183V614.491H184.464V612.625H185.441V614.491H186.905Z" fill="white"/>
<path d="M186.905 629.421V630.666H185.441V632.532H184.464V630.666H183V629.421H184.464V627.555H185.441V629.421H186.905Z" fill="white"/>
<path d="M186.905 644.352V645.596H185.441V647.462H184.464V645.596H183V644.352H184.464V642.485H185.441V644.352H186.905Z" fill="white"/>
<path d="M186.905 659.282V660.526H185.441V662.392H184.464V660.526H183V659.282H184.464V657.416H185.441V659.282H186.905Z" fill="white"/>
<path d="M186.905 674.212V675.456H185.441V677.322H184.464V675.456H183V674.212H184.464V672.346H185.441V674.212H186.905Z" fill="white"/>
<path d="M186.905 689.143V690.387H185.441V692.253H184.464V690.387H183V689.143H184.464V687.276H185.441V689.143H186.905Z" fill="white"/>
<path d="M186.905 704.073V705.317H185.441V707.183H184.464V705.317H183V704.073H184.464V702.207H185.441V704.073H186.905Z" fill="white"/>
<path d="M186.905 719.003V720.247H185.441V722.114H184.464V720.247H183V719.003H184.464V717.137H185.441V719.003H186.905Z" fill="white"/>
<path d="M186.905 733.934V735.178H185.441V737.044H184.464V735.178H183V733.934H184.464V732.067H185.441V733.934H186.905Z" fill="white"/>
<path d="M186.905 748.864V750.108H185.441V751.974H184.464V750.108H183V748.864H184.464V746.998H185.441V748.864H186.905Z" fill="white"/>
<path d="M186.905 763.795V765.039H185.441V766.905H184.464V765.039H183V763.795H184.464V761.928H185.441V763.795H186.905Z" fill="white"/>
<path d="M186.905 778.725V779.969H185.441V781.835H184.464V779.969H183V778.725H184.464V776.858H185.441V778.725H186.905Z" fill="white"/>
<path d="M186.905 793.655V794.899H185.441V796.765H184.464V794.899H183V793.655H184.464V791.789H185.441V793.655H186.905Z" fill="white"/>
<path d="M186.905 808.585V809.829H185.441V811.696H184.464V809.829H183V808.585H184.464V806.719H185.441V808.585H186.905Z" fill="white"/>
<path d="M186.905 823.516V824.76H185.441V826.626H184.464V824.76H183V823.516H184.464V821.649H185.441V823.516H186.905Z" fill="white"/>
<path d="M186.905 838.446V839.69H185.441V841.556H184.464V839.69H183V838.446H184.464V836.58H185.441V838.446H186.905Z" fill="white"/>
<path d="M186.905 853.377V854.621H185.441V856.487H184.464V854.621H183V853.377H184.464V851.51H185.441V853.377H186.905Z" fill="white"/>
<path d="M186.905 868.307V869.551H185.441V871.417H184.464V869.551H183V868.307H184.464V866.44H185.441V868.307H186.905Z" fill="white"/>
<path d="M186.905 883.237V884.481H185.441V886.347H184.464V884.481H183V883.237H184.464V881.371H185.441V883.237H186.905Z" fill="white"/>
</g>
</g>
<defs>
<linearGradient id="paint0_linear_952_8302" x1="-6.34766" y1="-31.0199" x2="509.397" y2="24.7915" gradientUnits="userSpaceOnUse">
<stop/>
<stop offset="1"/>
</linearGradient>
<linearGradient id="paint1_linear_952_8302" x1="-6.34766" y1="-31.0199" x2="509.397" y2="24.7915" gradientUnits="userSpaceOnUse">
<stop stop-color="#1E3C72"/>
<stop offset="1" stop-color="#2A5298"/>
</linearGradient>
</defs>
</svg>
