<svg width="96" height="96" viewBox="0 0 96 96" fill="none" xmlns="http://www.w3.org/2000/svg">
<rect width="96" height="96" rx="48" fill="#F4F5F7"/>
<path opacity="0.4" d="M38.8613 62.1372C40.5213 62.1372 41.8813 63.4972 41.8813 65.1772C41.8813 66.8372 40.5213 68.1972 38.8613 68.1972C37.1813 68.1972 35.8213 66.8372 35.8213 65.1772C35.8213 63.4972 37.1813 62.1372 38.8613 62.1372ZM61.3613 62.1372C63.0213 62.1372 64.3813 63.4972 64.3813 65.1772C64.3813 66.8372 63.0213 68.1972 61.3613 68.1972C59.6813 68.1972 58.3213 66.8372 58.3213 65.1772C58.3213 63.4972 59.6813 62.1372 61.3613 62.1372Z" fill="#9A05EB"/>
<path d="M29.5577 28.9997L29.7615 29.0162L34.5315 29.7362C35.2115 29.8582 35.7115 30.4162 35.7715 31.0962L36.1515 35.5762C36.2115 36.2182 36.7315 36.6982 37.3715 36.6982H64.3815C65.6015 36.6982 66.4015 37.1182 67.2015 38.0382C68.0015 38.9582 68.1415 40.2782 67.9615 41.4762L66.0615 54.5962C65.7015 57.1182 63.5415 58.9762 61.0015 58.9762H39.1815C36.5215 58.9762 34.3215 56.9362 34.1015 54.2982L32.2615 32.4962L29.2415 31.9762C28.4415 31.8362 27.8815 31.0562 28.0215 30.2562C28.1615 29.4362 28.9415 28.8962 29.7615 29.0162L29.5577 28.9997ZM57.8015 44.0962H52.2615C51.4215 44.0962 50.7615 44.7562 50.7615 45.5962C50.7615 46.4162 51.4215 47.0962 52.2615 47.0962H57.8015C58.6415 47.0962 59.3015 46.4162 59.3015 45.5962C59.3015 44.7562 58.6415 44.0962 57.8015 44.0962Z" fill="#9A05EB"/>
</svg>
