<svg width="489" height="454" viewBox="0 0 489 454" fill="none" xmlns="http://www.w3.org/2000/svg">
<path fill-rule="evenodd" clip-rule="evenodd" d="M14.3828 20C14.3828 8.95432 23.3371 0 34.3828 0H468.468C479.513 0 488.468 8.95431 488.468 20V310.428L488.467 433.702C488.467 444.748 479.513 453.702 468.467 453.702H34.3828C23.3371 453.702 14.3828 444.748 14.3828 433.702V20Z" fill="#F6F8FB"/>
<path d="M30.832 366.118L91.793 365.832L152.742 365.724L274.64 365.533L396.538 365.724L457.499 365.832L518.448 366.118L457.499 366.417L396.538 366.524L274.64 366.715L152.742 366.524L91.793 366.417L30.832 366.118Z" fill="#263238"/>
<path d="M425.15 231.548L423.001 252.939C422.798 255.028 422.583 257.236 422.332 259.54C422.273 260.137 422.213 260.734 422.165 261.342L422.094 261.891C421.998 262.966 421.879 264.076 421.759 265.186C421.568 267.156 421.366 269.185 421.151 271.25C420.936 273.315 420.733 275.44 420.518 277.6C420.518 278.09 420.411 278.591 420.363 279.104H367.447C370.682 253.906 373.272 233.745 373.523 231.656C373.523 231.56 373.523 231.5 373.523 231.5L425.15 231.548Z" fill="#F7A9A0"/>
<path d="M425.139 231.548C425.139 231.548 424.291 239.988 423.002 252.939C422.787 255.028 422.572 257.236 422.333 259.54C422.274 260.137 422.214 260.734 422.166 261.342C422.166 261.533 422.166 261.724 422.095 261.915C421.987 263.014 421.88 264.124 421.76 265.258C421.558 267.227 421.355 269.257 421.152 271.322C420.949 273.387 420.734 275.511 420.519 277.672C420.519 278.161 420.412 278.663 420.364 279.176H381.319L379.349 267.144L379.278 266.666L375.35 242.614V242.447L374.98 240.131C374.98 240.131 374.98 240.131 374.98 240.023L373.596 231.548H425.139Z" fill="#263238"/>
<path d="M450.623 279.176H384.78C382.87 273.924 381.199 268.099 379.719 262.357L379.647 262.047C377.844 254.885 376.4 247.89 375.374 242.423V242.267C375.242 241.527 375.111 240.811 374.992 240.131C374.992 240.131 374.992 240.131 374.992 240.023C374.204 235.643 373.726 232.575 373.583 231.727C373.583 231.584 373.583 231.524 373.583 231.524H441.969C451.267 249.525 451.363 269.221 450.623 279.176Z" fill="#F7A9A0"/>
<path d="M451.936 279.176H366.553C370.432 252.402 373.5 231.5 373.5 231.5H389.996H412.676H443.282C450.799 246.193 453.809 262.779 451.936 279.176V279.176Z" fill="#37474F"/>
<path d="M376.615 231.512V231.548L375.373 242.422L375.349 242.613L371.184 279.176H371.028L375.326 242.446L375.337 242.267L376.603 231.548V231.512H376.615Z" fill="#455A64"/>
<path d="M439.188 231.501C439.343 231.895 439.462 232.289 439.617 232.694C439.462 232.301 439.331 231.907 439.176 231.501C439.181 231.477 439.181 231.453 439.176 231.429V231.429C439.185 231.452 439.189 231.476 439.188 231.501V231.501Z" fill="#455A64"/>
<path d="M439.581 232.682C439.903 233.554 440.214 234.437 440.512 235.32C440.25 234.413 439.939 233.554 439.581 232.682Z" fill="#455A64"/>
<path d="M447.508 271.047C447.526 273.763 447.382 276.477 447.078 279.176H446.923C447.225 276.477 447.373 273.763 447.365 271.047C447.253 266.296 446.819 261.558 446.064 256.866C445.268 252.183 444.224 247.545 442.936 242.972C442.208 240.393 441.42 237.851 440.549 235.32C441.432 237.839 442.256 240.381 442.936 242.948C444.238 247.524 445.298 252.166 446.111 256.854C446.892 261.549 447.359 266.29 447.508 271.047V271.047Z" fill="#455A64"/>
<path d="M397.899 231.489V231.548L396.013 279.176H395.857L397.887 231.548V231.489H397.899Z" fill="#455A64"/>
<path d="M440.191 279.176H440.035C440.035 276.478 439.88 273.792 439.713 271.095C439.403 266.392 438.818 261.712 438.161 257.045C437.505 252.378 436.705 247.746 435.834 243.103C435.094 239.224 434.318 235.344 433.446 231.5C434.342 235.344 435.129 239.224 435.834 243.103C436.729 247.723 437.541 252.366 438.221 257.033C438.901 261.7 439.486 266.38 439.832 271.083C440.035 273.804 440.179 276.478 440.191 279.176Z" fill="#455A64"/>
<path d="M382.105 231.5V231.548L379.718 262.357L379.348 267.144L378.429 279.176H378.262L379.276 266.666L379.646 262.035L382.093 231.548V231.5H382.105Z" fill="#455A64"/>
<path d="M389.996 231.489V231.548L387.084 279.176H386.929L389.985 231.548V231.489H389.996Z" fill="#455A64"/>
<path d="M405.216 231.477V231.548L404.953 279.176H404.798L405.204 231.548V231.477H405.216Z" fill="#455A64"/>
<path d="M426.547 231.453H426.535V231.5H426.547V231.453Z" fill="#455A64"/>
<path d="M431.763 279.176H431.608C431.433 276.789 431.234 274.401 431.011 272.014C430.558 267.239 430.08 262.465 429.567 257.69C428.624 248.94 427.597 240.179 426.547 231.429C427.633 240.179 428.684 248.928 429.639 257.69C430.176 262.465 430.677 267.239 431.131 272.014C431.369 274.425 431.572 276.813 431.763 279.176Z" fill="#455A64"/>
<path d="M423.3 279.176H423.157L422.978 276.287L422.095 261.963V261.915L420.221 231.548V231.453H420.233V231.5L420.245 231.548L422.154 261.342V261.366L423.121 276.287L423.3 279.176Z" fill="#455A64"/>
<path d="M413.93 279.176H413.774L412.7 231.548L413.93 279.176Z" fill="#455A64"/>
<path d="M372.903 153.959C372.712 170.349 372.795 187.203 375.123 203.449C376.925 216.09 382.727 226.32 396.06 228.862C408.439 231.25 425.902 230.235 435.881 221.7C440.548 217.702 441.993 212.282 441.408 206.314C440.596 197.958 432.014 152.718 429.471 138.597C427.907 129.99 426.367 121.265 423.276 113.016C416.818 95.7081 408.14 96.2333 406.923 95.9349C405.848 95.3142 399.056 92.6403 389.698 96.0662C387.254 96.961 385.027 98.3612 383.161 100.175C381.296 101.99 379.834 104.177 378.871 106.594C372.616 120.942 373.094 138.621 372.903 153.959Z" fill="#263238"/>
<path d="M409.741 98.215C420.4 102.644 423.396 113.936 426.368 124.046C430.511 138.12 434.414 152.277 437.625 166.589C439.177 173.472 440.549 180.396 441.743 187.359C442.877 194.019 444.5 201.098 444.345 207.89C444.083 219.098 434.08 224.601 424.232 226.666C424.132 226.69 424.027 226.673 423.94 226.62C423.852 226.566 423.79 226.48 423.766 226.38C423.743 226.28 423.759 226.175 423.813 226.088C423.867 226 423.953 225.938 424.053 225.914C429.651 224.554 435.345 222.739 439.368 218.358C444.524 212.76 443.593 205.777 442.65 198.818C441.039 186.989 438.771 175.243 436.073 163.616C433.375 151.99 430.26 140.411 426.965 128.928C423.838 117.982 421.283 103.515 409.693 98.3941C409.526 98.3344 409.573 98.1673 409.741 98.215Z" fill="#263238"/>
<path d="M374.539 118.711C376.15 110.08 380.221 101.557 389.114 98.6807C377.642 102.894 375.363 115.726 374.276 126.41C373.13 137.654 372.406 148.93 372.104 160.238C371.805 171.101 371.722 182.047 372.414 192.897C373.154 204.607 375.756 215.494 383.098 224.864C383.132 224.902 383.151 224.952 383.148 225.004C383.146 225.055 383.124 225.104 383.086 225.139C383.048 225.173 382.997 225.192 382.946 225.189C382.894 225.187 382.846 225.165 382.811 225.127C375.649 217.606 372.927 206.935 371.937 196.884C370.636 183.635 370.91 170.098 371.376 156.813C371.817 144.219 372.211 131.149 374.539 118.711Z" fill="#263238"/>
<path d="M399.414 169.955C383.276 189.782 361.217 208.522 351.977 208.152C344.529 207.902 299.909 181.127 296.758 177.117C294.048 173.619 315.033 146.559 319.438 148.468C326.731 151.596 352.67 173.046 354.878 172.724C357.086 172.402 375.266 164.476 393.35 156.013C410.599 147.812 410.611 156.215 399.414 169.955Z" fill="#F7A9A0"/>
<path d="M301.7 180.865C298.119 178.847 282.518 168.14 278.841 164.153C275.165 160.166 265.413 148.074 268.098 144.959C270.784 141.843 273.983 145.162 273.983 145.162C273.983 145.162 270.677 139.384 273.721 136.496C276.764 133.607 281.468 138.883 281.468 138.883C281.468 138.883 278.507 132.712 281.754 130.038C285.001 127.364 288.832 133.524 288.832 133.524C288.832 133.524 285.86 128.009 289.453 126.934C293.774 125.645 298.107 136.484 302.5 140.495C303.491 141.414 323.986 157.719 323.986 157.719L301.7 180.865Z" fill="#F7A9A0"/>
<path d="M288.546 133.094C291.745 141.02 294.514 143.944 301.354 148.862C301.485 148.958 301.354 149.173 301.235 149.089C294.073 144.875 290.086 141.724 288.104 133.225C288.056 132.807 288.391 132.712 288.546 133.094Z" fill="#263238"/>
<path d="M281.276 138.334C285.323 146.284 288.307 149.471 295.087 155.153C295.182 155.236 295.087 155.403 294.956 155.332C287.794 150.318 283.914 147.072 280.906 138.62C280.823 138.214 281.097 137.964 281.276 138.334Z" fill="#263238"/>
<path d="M274.377 145.473C278.853 152.885 281.981 156.526 289.262 161.193C289.299 161.214 289.325 161.248 289.337 161.288C289.348 161.329 289.343 161.372 289.322 161.408C289.301 161.445 289.267 161.471 289.227 161.482C289.187 161.494 289.143 161.488 289.107 161.468C281.217 157.433 277.29 152.921 274.174 145.628C273.959 145.138 274.103 145.007 274.377 145.473Z" fill="#263238"/>
<path d="M330.862 157.768C330.862 157.768 327.4 147.621 324.893 143.443C322.387 139.266 307.43 127.424 304.696 130.564C301.115 134.551 308.409 143.145 312.527 146.893C312.527 146.893 304.267 156.108 308.158 163.402C312.049 170.695 330.862 157.768 330.862 157.768Z" fill="#F7A9A0"/>
<path d="M304.052 131.924C303.419 137.893 309.137 142.476 312.861 146.404C312.919 146.46 312.963 146.529 312.988 146.606C313.014 146.682 313.02 146.764 313.007 146.844C312.994 146.923 312.962 146.999 312.914 147.063C312.866 147.128 312.803 147.18 312.73 147.215C309.531 151.31 306.2 158.018 307.812 163.258C307.825 163.288 307.825 163.322 307.812 163.352C307.8 163.383 307.776 163.407 307.746 163.419C307.716 163.432 307.682 163.432 307.652 163.42C307.622 163.408 307.598 163.384 307.585 163.354C305.09 157.958 307.824 151.107 311.62 146.845C307.74 142.87 302.202 138.048 303.992 131.924C304.004 131.889 304.052 131.889 304.052 131.924Z" fill="#263238"/>
<path d="M334.419 156.908L306.702 191.214C306.702 191.214 343.515 210.993 353.088 209.191C362.662 207.388 374.575 199.068 398.448 171.721C417.332 150.068 402.387 149.889 390.618 155.798C380.996 160.632 356.55 171.65 354.616 170.79C352.683 169.931 334.419 156.908 334.419 156.908Z" fill="#9A05EB"/>
<path d="M306.714 191.214C306.714 191.214 339.994 209.119 351.489 209.31C352.024 209.32 352.559 209.284 353.088 209.203C362.638 207.388 374.574 199.056 398.448 171.721C406.804 162.172 408.546 156.765 406.863 154.258C404.726 151.106 397.182 152.503 390.605 155.798C380.996 160.632 356.55 171.65 354.604 170.79C352.658 169.931 334.467 156.908 334.467 156.908L306.714 191.214Z" fill="#9A05EB"/>
<path d="M340.304 163.616C336.556 168.928 332.545 174.073 328.451 179.134C326.433 181.617 324.416 184.1 322.315 186.499C320.214 188.898 317.779 191.369 315.607 193.888C315.511 193.995 315.332 193.888 315.428 193.745C317.505 191.178 319.414 188.445 321.396 185.831C323.377 183.216 325.383 180.841 327.364 178.358C331.459 173.309 335.589 168.248 339.85 163.342C339.887 163.282 339.945 163.238 340.014 163.222C340.082 163.205 340.154 163.216 340.214 163.252C340.274 163.289 340.318 163.347 340.334 163.416C340.351 163.484 340.34 163.556 340.304 163.616V163.616Z" fill="#263238"/>
<path d="M373.512 219.027V231.501C373.512 231.501 389.101 231.429 443.294 231.429C443.294 231.429 437.326 182.13 418.967 160.584C409.8 149.841 398.519 150.152 391.071 157.147C389.185 158.925 371.709 188.182 369.012 199.045C366.636 208.606 373.512 219.027 373.512 219.027Z" fill="#9A05EB"/>
<path d="M394.651 163.234L390.092 177.188C388.587 181.844 387.163 186.519 385.818 191.214C384.624 195.917 383.037 200.656 383.944 205.395C384.775 210.147 386.557 214.682 389.184 218.728L389.292 218.884V219.051C389.184 221.116 388.981 223.181 388.826 225.246C388.671 227.311 388.444 229.364 388.205 231.429C388.146 229.352 388.122 227.275 388.146 225.21C388.17 223.145 388.146 221.068 388.253 219.003L388.349 219.313C385.574 215.162 383.681 210.486 382.786 205.574C382.378 203.085 382.442 200.542 382.977 198.078C383.479 195.69 384.171 193.303 384.803 190.916C386.164 186.141 387.8 181.569 389.423 176.95C391.046 172.33 392.813 167.77 394.651 163.234Z" fill="#263238"/>
<path d="M384.136 181.652C384.087 181.959 384.159 182.272 384.338 182.526C384.516 182.78 384.786 182.955 385.091 183.013C385.387 183.033 385.678 182.935 385.902 182.74C386.126 182.545 386.263 182.27 386.285 181.975C386.334 181.668 386.261 181.355 386.083 181.101C385.905 180.847 385.635 180.672 385.33 180.614C385.034 180.594 384.742 180.692 384.519 180.887C384.295 181.081 384.157 181.357 384.136 181.652V181.652Z" fill="#263238"/>
<path d="M379.898 195.261C379.849 195.567 379.921 195.88 380.099 196.135C380.278 196.389 380.548 196.563 380.853 196.621C381 196.634 381.148 196.618 381.289 196.572C381.429 196.526 381.559 196.453 381.67 196.356C381.782 196.259 381.873 196.141 381.937 196.008C382.002 195.875 382.039 195.73 382.046 195.583C382.095 195.276 382.023 194.963 381.845 194.709C381.666 194.455 381.396 194.28 381.091 194.222C380.945 194.211 380.797 194.229 380.657 194.275C380.517 194.321 380.388 194.395 380.277 194.491C380.166 194.588 380.075 194.706 380.01 194.838C379.945 194.97 379.907 195.114 379.898 195.261V195.261Z" fill="#263238"/>
<path d="M379.898 208.94C379.849 209.247 379.921 209.56 380.099 209.814C380.278 210.068 380.548 210.243 380.853 210.301C381 210.314 381.148 210.297 381.289 210.252C381.429 210.206 381.559 210.133 381.67 210.036C381.782 209.939 381.873 209.82 381.937 209.687C382.002 209.555 382.039 209.41 382.046 209.263C382.095 208.956 382.023 208.643 381.845 208.389C381.666 208.135 381.396 207.96 381.091 207.902C380.945 207.89 380.797 207.908 380.657 207.955C380.517 208.001 380.388 208.074 380.277 208.171C380.166 208.268 380.075 208.385 380.01 208.518C379.945 208.65 379.907 208.793 379.898 208.94Z" fill="#263238"/>
<path d="M384.135 220.089C384.09 220.393 384.164 220.704 384.342 220.955C384.519 221.206 384.788 221.379 385.09 221.438C385.237 221.449 385.385 221.431 385.524 221.385C385.664 221.338 385.793 221.265 385.904 221.168C386.016 221.072 386.106 220.954 386.171 220.822C386.237 220.69 386.275 220.546 386.284 220.399C386.329 220.093 386.254 219.781 386.073 219.529C385.893 219.277 385.622 219.106 385.317 219.05C385.171 219.039 385.024 219.057 384.885 219.103C384.746 219.15 384.617 219.223 384.507 219.32C384.397 219.417 384.307 219.535 384.243 219.667C384.18 219.799 384.143 219.942 384.135 220.089V220.089Z" fill="#263238"/>
<path d="M380.208 174.729C378.358 177.833 376.627 181.008 374.968 184.207C375.374 182.703 375.875 181.211 376.376 179.731C376.376 179.623 376.233 179.552 376.174 179.659C375.328 181.443 374.734 183.335 374.407 185.281C373.87 186.32 373.309 187.358 372.783 188.397C371.745 190.486 370.683 192.563 369.835 194.735C369.009 196.926 368.538 199.235 368.438 201.575C368.438 201.694 368.641 201.718 368.653 201.575C369.039 199.207 369.776 196.91 370.838 194.759C371.781 192.61 372.843 190.498 373.87 188.385C376.066 183.873 378.25 179.349 380.327 174.765C380.363 174.729 380.256 174.622 380.208 174.729Z" fill="#263238"/>
<path d="M426.559 167.209C449.429 192.408 475.225 234.915 464.207 244.01C454.156 252.366 417.391 244.452 394.27 235.44C389.877 233.721 399.582 194.509 404.464 195.798C412.891 198.03 426.201 203.521 426.797 203.688C428.063 204.022 421.82 188.898 414.156 170.564C405.598 150.116 413.488 152.802 426.559 167.209Z" fill="#F7A9A0"/>
<path d="M355.367 195.297C355.469 196.278 355.812 197.22 356.366 198.036C356.92 198.853 357.668 199.519 358.543 199.976C357.016 201.168 355.955 202.857 355.547 204.751C354.986 208.141 360.059 210.504 360.059 210.504C358.717 212.082 357.884 214.03 357.671 216.09C357.456 219.397 362.243 222.501 362.243 222.501C361.82 224.628 362.18 226.837 363.258 228.72C366.337 233.626 395.57 237.075 399.522 237.362L406.158 196.586C406.158 196.586 381.175 184.458 374.55 185.341C368.916 186.081 354.83 189.304 355.367 195.297Z" fill="#F7A9A0"/>
<path d="M358.627 199.796C364.369 197.588 370.636 196.764 376.675 196.024C376.704 196.024 376.731 196.036 376.751 196.056C376.772 196.076 376.783 196.103 376.783 196.132C376.783 196.16 376.772 196.188 376.751 196.208C376.731 196.228 376.704 196.239 376.675 196.239C370.707 196.896 364.655 199.188 358.675 200.083C358.644 200.077 358.616 200.061 358.594 200.039C358.572 200.016 358.557 199.987 358.552 199.956C358.547 199.925 358.551 199.893 358.565 199.865C358.578 199.836 358.6 199.812 358.627 199.796V199.796Z" fill="#263238"/>
<path d="M360.178 210.074C361.531 209.694 362.928 209.498 364.332 209.489C365.824 209.382 367.305 209.298 368.785 209.25C371.769 209.131 374.753 209.083 377.713 209.131C377.845 209.131 377.881 209.334 377.713 209.346C374.753 209.449 371.793 209.62 368.833 209.859C367.352 209.979 365.872 210.122 364.392 210.265C363.007 210.486 361.602 210.558 360.202 210.48C360.159 210.468 360.121 210.443 360.093 210.408C360.064 210.373 360.048 210.33 360.045 210.286C360.043 210.241 360.054 210.196 360.078 210.158C360.102 210.121 360.137 210.091 360.178 210.074V210.074Z" fill="#263238"/>
<path d="M362.398 222.536C363.627 222.209 364.903 222.096 366.17 222.201L370.229 222.118C372.95 222.034 375.66 221.963 378.37 221.784C378.398 221.784 378.426 221.795 378.446 221.815C378.466 221.835 378.477 221.863 378.477 221.891C378.477 221.92 378.466 221.947 378.446 221.967C378.426 221.987 378.398 221.999 378.37 221.999C375.624 222.19 372.879 222.404 370.133 222.572L366.075 222.786C364.848 222.968 363.599 222.928 362.386 222.667C362.374 222.66 362.364 222.65 362.357 222.638C362.351 222.625 362.348 222.611 362.349 222.597C362.35 222.583 362.356 222.57 362.364 222.559C362.373 222.548 362.385 222.54 362.398 222.536V222.536Z" fill="#263238"/>
<path d="M415.303 156.108C431.835 166.027 474.772 225.114 467.204 241.599C459.636 258.083 406.481 240.68 406.481 240.68L410.623 196.096C410.623 196.096 424.637 203.759 425.091 203.055C425.544 202.351 417.201 182.106 413.787 173.882C410.373 165.657 406.505 150.856 415.303 156.108Z" fill="#9A05EB"/>
<path d="M416.209 239.856C417.092 233.959 419.85 209.704 420.088 204.428C420.088 204.058 419.885 203.962 419.814 204.332C416.722 221.939 416.555 233.983 415.97 239.809C415.958 239.964 416.185 240.011 416.209 239.856Z" fill="#263238"/>
<path d="M410.934 196.144C412.48 196.69 413.981 197.356 415.422 198.137C416.747 198.782 418.06 199.414 419.361 200.083C422.202 201.515 425.008 203.007 427.813 204.523C430.618 206.039 433.375 207.591 436.168 209.179C438.962 210.766 441.576 212.497 444.321 214.097C444.453 214.168 444.321 214.347 444.202 214.276C441.409 212.736 438.508 211.387 435.679 209.907L427.323 205.574C424.554 204.13 421.773 202.709 418.968 201.253L414.909 199.104C413.425 198.412 411.993 197.614 410.624 196.717C410.548 196.676 410.491 196.606 410.467 196.523C410.442 196.44 410.451 196.351 410.492 196.275C410.534 196.199 410.603 196.143 410.686 196.118C410.769 196.093 410.858 196.103 410.934 196.144V196.144Z" fill="#263238"/>
<path d="M415.47 183.3C416.341 184.374 417.188 185.46 418 186.594C418.155 186.797 418.287 187.012 418.43 187.227C418.215 186.642 417.988 186.033 417.761 185.484C416.891 183.474 416.129 181.418 415.481 179.325C415.481 179.229 415.601 179.194 415.649 179.325C416.713 181.344 417.665 183.42 418.501 185.544C419.397 187.585 420.316 189.626 421.163 191.679C422.011 193.732 422.906 195.786 423.73 197.863C424.61 199.875 425.34 201.95 425.914 204.07C425.914 204.189 425.771 204.237 425.711 204.141C424.576 202.157 423.59 200.09 422.763 197.958C421.88 195.905 421.056 193.828 420.208 191.775C419.85 190.903 419.516 190.032 419.17 189.173L418.74 188.588C418.334 188.051 417.952 187.49 417.547 186.929C416.783 185.735 416.066 184.541 415.374 183.348C415.386 183.3 415.446 183.264 415.47 183.3Z" fill="#263238"/>
<path d="M406.373 239.701C406.373 239.403 406.54 239.343 406.6 239.701C406.66 240.059 406.66 240.203 406.684 240.37C408.498 240.835 415.111 242.757 416.723 243.223C420.113 244.19 423.526 245.025 426.976 245.753C430.426 246.481 433.911 247.078 437.409 247.592C440.906 248.105 444.416 248.618 447.913 248.785C447.937 248.793 447.958 248.808 447.973 248.829C447.987 248.849 447.995 248.873 447.995 248.899C447.995 248.924 447.987 248.948 447.973 248.969C447.958 248.989 447.937 249.004 447.913 249.012C444.332 248.869 440.751 248.809 437.17 248.439C433.589 248.069 430.199 247.544 426.749 246.863C423.3 246.183 419.766 245.312 416.329 244.321C414.61 243.819 412.915 243.27 411.22 242.697C409.571 242.23 407.972 241.602 406.445 240.823C406.391 240.789 406.347 240.742 406.318 240.685C406.288 240.628 406.274 240.565 406.278 240.501L406.373 239.701Z" fill="#263238"/>
<path d="M407.639 155.308C407.412 156.741 401.396 166.385 394.938 166.564C392.837 166.624 392.014 155.165 392.014 155.165L391.751 154.329L388.17 142.679L401.42 132.688L403.342 131.351C403.342 131.351 404.094 134.61 405.001 138.668C405.001 138.847 405.096 139.038 405.132 139.241C405.168 139.444 405.251 139.683 405.287 139.898C405.43 140.507 405.574 141.091 405.705 141.736C405.836 142.381 405.908 142.667 406.003 143.168L406.29 144.649C406.983 148.167 407.433 151.728 407.639 155.308V155.308Z" fill="#F7A9A0"/>
<path d="M405.037 138.668C404.093 142.087 402.415 145.259 400.121 147.964C397.826 150.669 394.97 152.841 391.751 154.329L388.17 142.679L401.42 132.688L403.342 131.351C403.342 131.351 404.129 134.61 405.037 138.668Z" fill="#263238"/>
<path d="M371.03 123.163C368.368 144.374 380.77 148.361 385.354 148.934C389.508 149.448 403.712 150.689 408.559 129.836C413.405 108.982 404.381 101.068 394.951 99.3849C385.521 97.7018 373.703 101.915 371.03 123.163Z" fill="#F7A9A0"/>
<path d="M378.453 118.066C378.967 118.066 379.432 117.982 379.933 117.934C380.459 117.962 380.98 117.815 381.414 117.516C381.532 117.396 381.608 117.239 381.63 117.071C381.652 116.903 381.617 116.732 381.533 116.585C381.318 116.325 381.038 116.127 380.721 116.01C380.405 115.892 380.063 115.86 379.73 115.917C379.036 115.94 378.374 116.216 377.868 116.693C377.764 116.809 377.695 116.953 377.669 117.108C377.644 117.263 377.663 117.421 377.724 117.565C377.785 117.709 377.887 117.833 378.016 117.922C378.145 118.01 378.297 118.06 378.453 118.066V118.066Z" fill="#263238"/>
<path d="M392.909 119.94C392.429 119.807 391.959 119.643 391.5 119.45C390.982 119.35 390.512 119.081 390.163 118.686C390.076 118.543 390.039 118.375 390.059 118.208C390.078 118.042 390.153 117.886 390.271 117.767C390.54 117.563 390.86 117.436 391.196 117.398C391.532 117.36 391.872 117.413 392.181 117.552C392.852 117.733 393.431 118.159 393.804 118.746C393.878 118.884 393.91 119.04 393.898 119.197C393.886 119.353 393.83 119.502 393.736 119.627C393.642 119.753 393.514 119.849 393.368 119.904C393.221 119.959 393.062 119.972 392.909 119.94V119.94Z" fill="#263238"/>
<path d="M389.041 124.965C389.041 124.965 389.149 125.048 389.137 125.108C388.874 126.552 388.826 128.247 390.068 128.928C390.068 128.928 390.068 129.011 390.068 128.999C388.468 128.546 388.564 126.29 389.041 124.965Z" fill="#263238"/>
<path d="M390.558 123.64C392.945 123.807 392.408 128.511 390.235 128.415C388.063 128.32 388.588 123.509 390.558 123.64Z" fill="#263238"/>
<path d="M391.453 123.986C391.835 124.297 392.193 124.81 392.647 124.917C393.101 125.025 393.698 124.583 394.127 124.154C394.127 124.154 394.199 124.153 394.199 124.213C394.115 125.12 393.674 126.004 392.683 126.04C391.692 126.075 391.25 125.204 391.119 124.273C391.131 124.094 391.298 123.867 391.453 123.986Z" fill="#263238"/>
<path d="M380.614 123.724C380.614 123.724 380.494 123.724 380.494 123.843C380.387 125.311 380.029 126.97 378.668 127.317V127.4C380.303 127.34 380.757 125.132 380.614 123.724Z" fill="#263238"/>
<path d="M379.468 122.076C377.141 121.67 376.484 126.35 378.645 126.732C380.805 127.113 381.414 122.422 379.468 122.076Z" fill="#263238"/>
<path d="M378.442 122.208C378.036 122.399 377.606 122.805 377.164 122.769C376.723 122.733 376.341 122.172 376.078 121.635C376.078 121.635 376.007 121.635 375.995 121.635C375.851 122.53 375.995 123.497 376.854 123.783C377.714 124.07 378.298 123.366 378.633 122.506C378.704 122.446 378.609 122.208 378.442 122.208Z" fill="#263238"/>
<path d="M380.972 130.564C380.972 130.564 380.411 132.7 380.291 133.727C380.291 133.822 380.518 133.894 380.864 133.966C381.72 134.239 382.635 134.273 383.508 134.062C384.382 133.852 385.181 133.406 385.818 132.772C385.901 132.677 385.818 132.557 385.675 132.605C384.265 133.349 382.652 133.612 381.079 133.357C381.079 133.058 382.165 129.776 381.998 129.692C381.195 129.676 380.393 129.76 379.611 129.943C380.649 125.467 382.392 121.181 383.347 116.705C383.347 116.538 383.156 116.466 383.096 116.598C381.088 121.132 379.533 125.854 378.453 130.695C378.334 131.256 380.542 130.743 380.972 130.564Z" fill="#263238"/>
<path d="M381.092 133.762C381.57 134.635 382.265 135.371 383.109 135.899C383.578 136.171 384.12 136.292 384.661 136.245C385.855 136.114 386.034 135.051 385.962 134.156C385.917 133.669 385.817 133.188 385.664 132.724C384.289 133.548 382.687 133.912 381.092 133.762V133.762Z" fill="#263238"/>
<path d="M383.145 135.899C383.614 136.171 384.156 136.292 384.696 136.245C385.89 136.114 386.069 135.051 385.997 134.156C385.395 134.084 384.786 134.216 384.268 134.532C383.751 134.849 383.355 135.33 383.145 135.899Z" fill="#FF98B9"/>
<path d="M407.054 129.8C403.043 130.098 402.494 120.895 402.494 120.895C402.494 120.895 388.087 118.591 387.37 104.673C387.37 104.673 382.476 114.139 372.438 115.416C372.438 115.416 373.822 100.268 385.998 97.9523C385.998 97.9523 401.217 93.285 409 105.58C416.783 117.875 409.74 129.597 407.054 129.8Z" fill="#263238"/>
<path d="M387.359 103.646C387.054 105.773 387.201 107.941 387.789 110.008C388.356 112.107 389.351 114.066 390.713 115.762C391.05 116.182 391.413 116.58 391.799 116.955L392.36 117.54L392.981 118.066C393.411 118.4 393.817 118.746 394.258 119.068L395.631 119.904C395.87 120.035 396.097 120.19 396.335 120.31L397.063 120.644L398.532 121.289C399.546 121.635 400.573 121.921 401.587 122.184C400.633 121.706 399.654 121.336 398.723 120.859L397.35 120.107L396.67 119.725C396.443 119.582 396.24 119.426 396.025 119.271L394.76 118.388C394.354 118.066 393.972 117.707 393.566 117.373L392.993 116.872L392.468 116.299C392.103 115.924 391.764 115.525 391.453 115.105C390.161 113.499 389.155 111.682 388.481 109.734C388.135 108.755 387.871 107.749 387.693 106.726C387.495 105.71 387.383 104.68 387.359 103.646V103.646Z" fill="#263238"/>
<path d="M404.965 129.131C404.965 129.131 409.883 122.649 412.855 124.428C415.828 126.207 411.936 135.732 408.331 136.914C407.88 137.104 407.394 137.2 406.905 137.195C406.415 137.191 405.931 137.085 405.484 136.886C405.036 136.687 404.634 136.398 404.303 136.037C403.971 135.677 403.717 135.252 403.557 134.789L404.965 129.131Z" fill="#F7A9A0"/>
<path d="M411.673 127.125V127.221C409.143 128.14 407.746 130.396 406.731 132.76C406.886 132.516 407.091 132.308 407.333 132.151C407.575 131.994 407.849 131.891 408.134 131.849C408.42 131.807 408.711 131.827 408.988 131.908C409.265 131.989 409.521 132.129 409.74 132.318C409.748 132.323 409.756 132.329 409.762 132.337C409.768 132.344 409.773 132.353 409.775 132.363C409.778 132.372 409.779 132.382 409.778 132.392C409.777 132.401 409.774 132.411 409.769 132.419C409.765 132.428 409.758 132.436 409.751 132.442C409.743 132.448 409.734 132.453 409.725 132.455C409.715 132.458 409.705 132.459 409.696 132.458C409.686 132.457 409.677 132.454 409.668 132.449C409.234 132.296 408.764 132.279 408.32 132.401C407.876 132.522 407.48 132.777 407.185 133.13C406.723 133.733 406.323 134.381 405.991 135.063C405.86 135.29 405.466 135.147 405.562 134.896C405.609 131.661 408.247 127.316 411.673 127.125Z" fill="#263238"/>
<path d="M391.632 153.959L394.819 163.771L407.508 152.491L410.611 156.597C410.611 156.597 397.696 175.004 397.684 174.133L394.306 165.634L388.254 170.981L389.698 156.657L391.632 153.959Z" fill="#9A05EB"/>
<path d="M388.54 163.843C388.863 161.456 389.113 159.069 389.543 156.753C389.543 156.669 389.686 156.633 389.698 156.753C390.02 159.069 388.755 168.093 388.624 170.277C388.874 170.038 394.234 165.586 394.282 165.67C395.046 167.03 397.529 173.226 397.684 173.787C399.725 170.862 408.343 159.367 410.707 156.633C410.719 156.617 410.737 156.606 410.757 156.602C410.777 156.598 410.798 156.602 410.815 156.612C410.833 156.622 410.846 156.639 410.853 156.658C410.859 156.677 410.858 156.698 410.85 156.717C409.012 159.832 397.863 175.016 397.72 174.968C396.392 172.035 395.216 169.035 394.198 165.98C393.267 166.971 387.824 172.032 387.836 171.674C387.938 169.053 388.173 166.44 388.54 163.843V163.843Z" fill="#263238"/>
<path d="M362.508 132.099C364.346 129.371 365.339 126.161 365.361 122.872C365.361 111.186 352.529 101.708 336.713 101.708C320.896 101.708 308.064 111.186 308.064 122.872C308.064 134.558 320.885 144.036 336.713 144.036C343.745 144.151 350.643 142.11 356.48 138.187L366.352 140.693L362.508 132.099Z" fill="#FFFEFD"/>
<path d="M362.508 132.099C364.19 129.493 365.123 126.474 365.206 123.373C365.252 120.29 364.424 117.256 362.818 114.624C359.414 109.468 354.285 105.694 348.351 103.976C342.487 102.128 336.263 101.718 330.207 102.782C327.194 103.283 324.268 104.211 321.517 105.54C318.764 106.83 316.25 108.577 314.081 110.708C311.93 112.826 310.321 115.43 309.389 118.3C308.473 121.163 308.432 124.234 309.27 127.121C310.154 130.01 311.727 132.64 313.854 134.785C315.991 136.95 318.481 138.734 321.219 140.061C323.971 141.397 326.896 142.345 329.909 142.878C332.916 143.452 335.982 143.665 339.04 143.51C345.209 143.277 351.193 141.349 356.337 137.936L356.444 137.864H356.564L366.399 140.502L366.232 140.705L362.508 132.099ZM362.508 132.099L366.471 140.634L366.602 140.908L366.304 140.837L356.396 138.449H356.623C351.437 142.029 345.357 144.095 339.064 144.418C332.769 144.881 326.46 143.722 320.741 141.052C317.884 139.684 315.28 137.839 313.042 135.596C310.769 133.337 309.084 130.554 308.136 127.491C307.208 124.371 307.242 121.043 308.232 117.942C309.226 114.894 310.952 112.136 313.257 109.909C315.519 107.692 318.143 105.88 321.016 104.549C323.864 103.195 326.891 102.255 330.004 101.756C336.219 100.658 342.611 101.142 348.59 103.164C351.581 104.144 354.4 105.586 356.945 107.438C359.508 109.277 361.659 111.631 363.26 114.349C364.857 117.061 365.636 120.177 365.505 123.321C365.374 126.466 364.337 129.505 362.52 132.075L362.508 132.099Z" fill="#263238"/>
<path d="M326.411 122.872C326.411 123.46 326.237 124.034 325.91 124.523C325.584 125.012 325.12 125.393 324.576 125.618C324.033 125.843 323.436 125.901 322.859 125.787C322.283 125.672 321.753 125.389 321.337 124.973C320.922 124.558 320.639 124.028 320.524 123.452C320.409 122.875 320.468 122.277 320.693 121.734C320.918 121.191 321.299 120.727 321.788 120.4C322.277 120.074 322.851 119.899 323.439 119.899C324.226 119.903 324.981 120.217 325.537 120.773C326.094 121.33 326.408 122.084 326.411 122.872V122.872Z" fill="#263238"/>
<path d="M339.673 122.872C339.673 123.46 339.499 124.034 339.172 124.523C338.846 125.012 338.381 125.393 337.838 125.618C337.295 125.843 336.697 125.901 336.121 125.787C335.544 125.672 335.015 125.389 334.599 124.973C334.183 124.558 333.9 124.028 333.786 123.452C333.671 122.875 333.73 122.277 333.955 121.734C334.18 121.191 334.561 120.727 335.049 120.4C335.538 120.074 336.113 119.899 336.701 119.899C337.489 119.899 338.245 120.213 338.802 120.77C339.36 121.327 339.673 122.083 339.673 122.872V122.872Z" fill="#263238"/>
<path d="M352.958 122.872C352.958 123.46 352.784 124.034 352.457 124.523C352.131 125.012 351.666 125.393 351.123 125.618C350.58 125.843 349.983 125.901 349.406 125.787C348.83 125.672 348.3 125.389 347.884 124.973C347.469 124.558 347.185 124.028 347.071 123.452C346.956 122.875 347.015 122.277 347.24 121.734C347.465 121.191 347.846 120.727 348.335 120.4C348.823 120.074 349.398 119.899 349.986 119.899C350.773 119.903 351.527 120.217 352.084 120.773C352.641 121.33 352.955 122.084 352.958 122.872V122.872Z" fill="#263238"/>
<path d="M125.956 379.749V377.386L251.853 374.593L302.883 395.84V398.192L178.335 411L125.956 379.749Z" fill="#9A05EB"/>
<path opacity="0.1" d="M125.956 379.749V377.386L251.853 374.593L302.883 395.84V398.192L178.335 411L125.956 379.749Z" fill="black"/>
<path d="M125.956 377.386L251.853 369.842L302.883 395.84L178.335 408.636L125.956 377.386Z" fill="#9A05EB"/>
<path d="M133.523 377.863L181.461 406.512L298.167 394.575L248.785 369.615C248.785 369.615 214.98 368.827 213.356 368.971C211.733 369.114 196.132 371.489 196.132 371.489C196.132 371.489 175.075 371.561 173.607 371.716C172.139 371.871 133.523 377.863 133.523 377.863Z" fill="#EBEBEB"/>
<path d="M196.132 371.525L201.981 375.046L207.782 378.603L219.301 385.777L230.725 393.023L236.395 396.676L242.017 400.352L236.168 396.831L230.366 393.274L218.847 386.1L207.424 378.854L201.754 375.201L196.132 371.525Z" fill="#C7C7C7"/>
<path d="M202.16 389.227C203.628 389.084 205.109 388.989 206.601 388.893C208.093 388.798 209.561 388.738 211.053 388.678C212.545 388.618 214.025 388.583 215.517 388.571C217.009 388.559 218.502 388.571 219.994 388.571C218.514 388.714 217.033 388.809 215.553 388.905C214.073 389 212.593 389.06 211.101 389.12C209.609 389.179 208.14 389.215 206.648 389.227C205.156 389.239 203.664 389.263 202.16 389.227Z" fill="#C7C7C7"/>
<path d="M175.088 395.972C179.015 395.231 182.966 394.539 186.929 393.859C190.892 393.178 194.855 392.534 198.866 391.889C200.847 391.555 202.841 391.257 204.834 390.97C205.353 390.902 205.875 390.862 206.398 390.851L207.938 390.791L210.994 390.684C215.076 390.576 219.17 390.481 223.253 390.445C219.182 390.672 215.1 390.851 211.029 391.042L207.974 391.173C206.959 391.245 205.909 391.233 204.966 391.376C202.984 391.662 201.003 391.997 198.997 392.307L187.06 394.169C183.062 394.79 179.146 395.399 175.088 395.972Z" fill="#C7C7C7"/>
<path d="M178.43 398.013C182.249 397.272 186.081 396.58 189.913 395.888C193.745 395.195 197.612 394.563 201.456 393.906C203.381 393.58 205.315 393.27 207.257 392.975L208.749 392.772C209.25 392.772 209.752 392.772 210.253 392.689L213.225 392.581C217.2 392.474 221.175 392.378 225.162 392.354C221.199 392.593 217.236 392.772 213.225 392.963L210.253 393.095C209.764 393.095 209.262 393.095 208.785 393.178L207.364 393.381L201.575 394.324C197.719 394.933 193.876 395.601 190.008 396.198C186.141 396.795 182.309 397.428 178.43 398.013Z" fill="#C7C7C7"/>
<path d="M181.82 399.767C185.688 399.135 189.567 398.574 193.447 397.953C197.326 397.332 201.218 396.819 205.109 396.258C207.067 395.983 208.988 395.697 211.006 395.494L216.974 395.076C220.949 394.825 224.912 394.575 228.911 394.384C224.984 394.778 221.033 395.112 217.081 395.446L211.113 395.912C209.191 396.127 207.234 396.425 205.288 396.676C201.385 397.189 197.493 397.75 193.59 398.263C189.687 398.777 185.736 399.29 181.82 399.767Z" fill="#C7C7C7"/>
<path d="M238.973 393.99C242.593 393.281 246.242 392.657 249.919 392.116L252.676 391.722C253.154 391.722 253.607 391.614 254.108 391.578L255.517 391.483L261.139 391.149C264.887 390.91 268.635 390.707 272.384 390.492C276.132 390.277 279.892 390.086 283.64 389.907C279.904 390.194 276.168 390.48 272.419 390.743C268.671 391.005 264.935 391.292 261.187 391.531L255.565 391.901L254.168 391.996C253.726 391.996 253.261 392.092 252.807 392.151L250.05 392.521C246.373 393.047 242.685 393.548 238.973 393.99Z" fill="#C7C7C7"/>
<path d="M235.822 391.71C239.403 391.161 242.984 390.671 246.565 390.265C248.368 390.051 250.146 389.824 251.997 389.716L257.428 389.358C261.009 389.108 264.685 388.893 268.314 388.678C271.943 388.463 275.572 388.248 279.2 388.057C275.619 388.367 272.038 388.666 268.35 388.928C264.661 389.191 261.116 389.49 257.487 389.74L252.056 390.122C251.149 390.182 250.278 390.289 249.37 390.385L246.673 390.659C243.044 391.101 239.439 391.411 235.822 391.71Z" fill="#C7C7C7"/>
<path d="M232.742 389.657C236.323 389.132 239.821 388.642 243.378 388.237C245.168 388.034 246.959 387.807 248.761 387.664L254.181 387.401C257.762 387.234 261.343 387.091 265.007 386.935C268.672 386.78 272.241 386.661 275.846 386.542C272.265 386.78 268.684 387.007 265.103 387.198C261.522 387.389 257.941 387.616 254.288 387.795C252.486 387.89 250.707 387.974 248.893 388.081L243.545 388.63C239.916 389.024 236.335 389.359 232.742 389.657Z" fill="#C7C7C7"/>
<path d="M230.057 388.093C233.518 387.329 237.028 386.696 240.573 386.147C241.015 386.075 241.468 386.016 241.922 385.968C242.385 385.913 242.852 385.881 243.318 385.872L246.04 385.777L251.495 385.622C258.765 385.443 266.034 385.276 273.315 385.18C266.05 385.491 258.784 385.765 251.519 386.004L246.076 386.183L243.354 386.29C242.47 386.329 241.589 386.42 240.716 386.565C237.171 387.078 233.638 387.651 230.057 388.093Z" fill="#C7C7C7"/>
<path d="M227.155 386.231C230.605 385.455 234.114 384.835 237.672 384.274C238.113 384.202 238.567 384.142 239.02 384.094C239.484 384.039 239.95 384.007 240.417 383.999L243.139 383.915L248.594 383.76C255.859 383.569 263.133 383.418 270.414 383.307C263.145 383.629 255.887 383.88 248.618 384.142L243.174 384.321L240.453 384.417C239.569 384.459 238.688 384.555 237.815 384.703C234.27 385.205 230.736 385.789 227.155 386.231Z" fill="#C7C7C7"/>
<path d="M224.255 384.357C227.705 383.593 231.214 382.96 234.771 382.411C235.213 382.34 235.654 382.28 236.12 382.232C236.584 382.177 237.05 382.145 237.517 382.137L240.238 382.053L245.693 381.886C252.963 381.707 260.232 381.54 267.502 381.444C260.244 381.755 252.983 382.029 245.717 382.268L240.274 382.447L237.552 382.554C236.668 382.593 235.787 382.684 234.914 382.829C231.369 383.342 227.836 383.939 224.255 384.357Z" fill="#C7C7C7"/>
<path d="M221.354 382.495C224.804 381.719 228.314 381.098 231.871 380.537L233.22 380.358C233.673 380.298 234.163 380.287 234.604 380.263L237.338 380.179L242.793 380.024C250.062 379.845 257.332 379.678 264.601 379.57C257.344 379.893 250.074 380.143 242.817 380.406L237.362 380.585L234.64 380.68C233.76 380.723 232.883 380.818 232.014 380.967C228.469 381.468 224.936 382.053 221.354 382.495Z" fill="#C7C7C7"/>
<path d="M217.416 380.812C220.878 380.048 224.387 379.415 227.932 378.866C228.386 378.795 228.828 378.735 229.281 378.687C229.745 378.632 230.211 378.6 230.678 378.592L233.411 378.508L238.854 378.341C246.124 378.162 253.405 377.995 260.675 377.899C253.417 378.21 246.156 378.484 238.89 378.723L233.435 378.902L230.714 379.01C229.829 379.048 228.949 379.14 228.076 379.284C224.506 379.797 221.009 380.358 217.416 380.812Z" fill="#C7C7C7"/>
<path d="M213.607 379.164C217.057 378.388 220.567 377.767 224.112 377.218L225.461 377.027C225.926 377.027 226.416 376.956 226.857 376.944L229.591 376.848L235.034 376.693C242.315 376.514 249.585 376.347 256.854 376.251C249.597 376.562 242.335 376.836 235.07 377.075L229.615 377.254L226.893 377.35C226.009 377.398 225.129 377.494 224.255 377.636C220.71 378.137 217.188 378.722 213.607 379.164Z" fill="#C7C7C7"/>
<path d="M210.694 377.302C214.144 376.526 217.653 375.906 221.199 375.345C221.64 375.285 222.082 375.213 222.548 375.166C223.011 375.11 223.477 375.078 223.944 375.07H226.666L232.109 374.975C239.374 374.871 246.64 374.808 253.905 374.784C246.648 375.01 239.39 375.178 232.133 375.345L226.69 375.464L223.968 375.536C223.088 375.578 222.211 375.674 221.342 375.822C217.797 376.276 214.275 376.861 210.694 377.302Z" fill="#C7C7C7"/>
<path d="M207.794 375.428C211.244 374.664 214.741 374.032 218.274 373.483C218.716 373.411 219.17 373.351 219.623 373.303C220.087 373.248 220.553 373.216 221.02 373.208H223.741H229.185C236.442 373.208 243.688 373.208 250.945 373.327C243.688 373.447 236.442 373.518 229.185 373.59H223.753H221.044C220.163 373.633 219.287 373.729 218.418 373.876C214.884 374.39 211.375 374.987 207.794 375.428Z" fill="#C7C7C7"/>
<path d="M204.895 373.566C208.332 372.79 211.818 372.169 215.351 371.62C215.793 371.548 216.246 371.489 216.7 371.441C217.163 371.377 217.63 371.349 218.097 371.357H220.818L226.249 371.441C229.83 371.513 233.483 371.62 237.1 371.704C240.717 371.787 244.334 371.919 247.95 372.05C240.705 372.05 233.471 371.907 226.237 371.823L220.806 371.751H218.109C217.232 371.781 216.359 371.869 215.494 372.014C211.973 372.551 208.464 373.124 204.895 373.566Z" fill="#C7C7C7"/>
<path d="M185.115 402.286C189.042 401.713 192.993 401.176 196.933 400.651C200.872 400.125 204.835 399.648 208.798 399.147C210.779 398.908 212.737 398.681 214.766 398.466L220.734 397.977C224.733 397.667 228.732 397.356 232.671 397.105C228.708 397.559 224.721 397.941 220.734 398.299L214.766 398.848C212.808 399.051 210.815 399.314 208.798 399.541L197.052 400.973C193.053 401.427 189.09 401.844 185.115 402.286Z" fill="#C7C7C7"/>
<path d="M241.217 396.127C245.168 395.601 249.143 395.124 253.154 394.658C257.164 394.193 261.115 393.763 265.09 393.321C267.084 393.095 269.065 392.904 271.059 392.725L277.087 392.307C281.097 392.056 285.12 391.805 289.143 391.603C285.156 391.996 281.145 392.331 277.134 392.665L271.166 393.13C269.197 393.309 267.191 393.548 265.198 393.751L253.261 394.945C249.214 395.375 245.216 395.768 241.217 396.127Z" fill="#C7C7C7"/>
<path d="M125.932 229.741C134.92 270.206 153.768 318.765 161.909 326.679C172.21 336.694 240.691 355.411 244.093 355.817C252.569 356.724 269.244 300.215 260.232 298.843C246.505 296.766 197.325 289.293 194.353 286.237C191.381 283.182 170.384 256.264 148.922 226.076C134.12 205.211 120.357 204.638 125.932 229.741Z" fill="#D3766A"/>
<path d="M237.409 353.668C238.34 354.158 251.638 360.962 259.874 363.409C266.01 365.247 283.843 370.034 286.529 363.468C288.367 358.992 278.173 354.946 271.095 351.926C267.347 350.326 262.739 346.363 263.873 343.952C265.843 339.738 275.487 344.047 281.778 347.795C294.025 355.029 310.331 368.028 317.887 361.833C320.74 359.446 317.481 355.172 312.682 350.923C320.477 355.889 328.809 359.983 332.08 357.512C333.954 356.103 334.061 354.146 333.035 351.914C335.422 352.713 337.582 352.57 339.086 351.006C341.653 348.368 340.435 344.429 337.678 340.371C338.158 340.323 338.619 340.162 339.024 339.9C339.428 339.639 339.765 339.284 340.006 338.867C345.461 330.69 318.639 306.9 309.328 304.62C281.874 297.9 252.975 298.903 252.975 298.903C242.184 307.437 237.385 353.656 237.409 353.668Z" fill="#D3766A"/>
<path d="M277.958 328.685C284.486 329.748 290.712 332.189 296.221 335.847C303.145 340.49 307.728 345.897 313.53 351.364C313.685 351.508 313.458 351.758 313.315 351.615C310.546 349.013 299.086 339.261 296.126 337.04C290.769 332.942 284.547 330.121 277.934 328.792C277.925 328.785 277.917 328.776 277.913 328.765C277.909 328.754 277.908 328.742 277.911 328.73C277.913 328.719 277.919 328.708 277.928 328.7C277.936 328.692 277.947 328.687 277.958 328.685V328.685Z" fill="#263238"/>
<path d="M283.163 317.094C290.325 319.123 297.737 321.176 304.41 324.638C311.715 328.422 317.409 334.557 323.008 340.454C326.362 344.035 329.656 347.616 332.855 351.304C332.987 351.46 332.772 351.698 332.629 351.543C326.963 345.447 321.106 339.527 315.058 333.781C309.482 328.424 302.907 324.214 295.708 321.391C291.59 319.791 287.352 318.502 283.127 317.225C283.114 317.217 283.105 317.205 283.099 317.191C283.094 317.176 283.093 317.161 283.097 317.146C283.101 317.132 283.11 317.119 283.121 317.109C283.133 317.1 283.148 317.095 283.163 317.094V317.094Z" fill="#263238"/>
<path d="M290.946 306.947C297.941 308.428 304.076 309.705 310.235 313.513C318.412 318.538 326.29 326.977 329.048 329.973C332.104 333.28 335.016 336.682 337.929 340.12C338.048 340.263 337.797 340.478 337.678 340.334C331.06 332.772 323.959 325.647 316.419 319.004C312.874 315.776 308.846 313.121 304.482 311.137C300.073 309.369 295.52 307.983 290.874 306.995C290.874 306.995 290.91 306.935 290.946 306.947Z" fill="#263238"/>
<path d="M249.369 291.108L227.788 357.798C227.788 357.798 170.79 341.087 160.429 329.747C150.068 318.407 131.231 260.144 125.812 231.937C120.393 203.731 134.586 204.483 147.549 222.388C160.512 240.293 192.801 283.528 194.616 284.459C196.43 285.39 249.369 291.108 249.369 291.108Z" fill="#9A05EB"/>
<path d="M221.521 327.264C223.908 319.815 226.463 312.391 228.683 304.847C229.877 300.561 231.166 296.288 232.347 291.991C232.347 291.836 232.121 291.728 232.061 291.883C229.316 299.26 226.582 306.661 224.171 314.157C221.76 321.654 219.313 329.066 217.009 336.563C215.696 340.824 214.526 345.109 213.428 349.454C213.428 349.538 213.547 349.585 213.583 349.454C216.579 342.221 219.05 334.76 221.521 327.264Z" fill="#263238"/>
<path opacity="0.1" d="M199.045 348.404L196.514 347.496C191.739 345.766 186.965 343.915 182.381 342.006L180.65 341.277L177.929 340.084C177.475 339.893 177.045 339.678 176.604 339.487C176.449 339.415 176.293 339.356 176.138 339.272L174.765 338.627C172.963 337.792 171.184 336.944 169.645 336.085L168.546 335.488C166.049 334.179 163.697 332.61 161.528 330.809L160.955 330.26C160.771 330.094 160.595 329.918 160.429 329.735C150.068 318.395 131.22 260.131 125.813 231.853C125.813 231.531 125.693 231.209 125.622 230.886C125.628 230.815 125.628 230.743 125.622 230.671C125.252 228.535 124.941 225.897 124.679 223.008C123.998 208.982 130.647 206.75 138.8 212.969C158.925 257.04 189.71 329.723 199.045 348.404Z" fill="black"/>
<path d="M173.356 366.321L33.0039 366.094C33.3381 363.325 72.9085 232.223 99.8497 209.866C111.321 200.316 132.389 207.323 135.075 209.52C161.037 230.755 175.314 364.697 173.356 366.321Z" fill="#9A05EB"/>
<path d="M89.6208 226.78C58.9672 264.071 23.3838 338.234 32.6228 352.116C42.9242 367.634 85.2281 317.01 84.7864 314.229C84.4641 312.128 97.0335 266.888 106.69 233.942C116.347 200.997 97.2245 217.565 89.6208 226.78Z" fill="#D3766A"/>
<path d="M85.1321 314.253C86.1467 309.478 103.419 249.735 108.194 230.91C112.969 212.086 106.499 207.037 89.6442 225.36C72.7895 243.683 38.2923 300.382 31.7271 330.797C25.4603 360.138 39.486 361.642 57.6776 346.733C72.5627 334.521 85.1321 314.253 85.1321 314.253Z" fill="#9A05EB"/>
<path d="M82.9355 321.964C84.2605 316.306 85.7168 310.684 87.185 305.062C88.6532 299.439 90.2289 293.853 91.7449 288.243C93.2608 282.632 94.92 277.058 96.5196 271.531L99.0382 263.176C99.9096 260.394 100.745 257.613 101.664 254.82C101.008 257.661 100.28 260.466 99.5992 263.295L97.4626 271.734C95.9824 277.344 94.4187 282.943 92.8908 288.553C91.3629 294.163 89.7276 299.726 88.1161 305.265C86.5046 310.803 84.738 316.437 82.9355 321.964Z" fill="#263238"/>
<path d="M98.3105 267.89C98.7594 266.42 99.3594 265 100.101 263.653C100.814 262.295 101.637 260.998 102.56 259.773C102.217 261.28 101.653 262.728 100.889 264.071C100.176 265.437 99.3113 266.718 98.3105 267.89V267.89Z" fill="#263238"/>
<path d="M33.0045 352.737C41.8735 363.301 61.3304 364.172 115.881 369.794C123.425 370.582 144.792 317.822 136.783 316.58C126.696 315.017 87.2093 311.113 84.2609 311.185C59.5638 311.854 26.9645 345.575 33.0045 352.737Z" fill="#D3766A"/>
<path d="M165.801 302.006C165.801 302.006 159.832 291.442 167.4 287.992C174.968 284.542 179.074 295.906 179.074 295.906L165.801 302.006Z" fill="#455A64"/>
<path d="M214.407 372.862L213.798 384.692L213.619 388.595L210.504 386.208L201.121 378.95L165.598 301.576L178.883 295.488L214.395 372.874L214.407 372.862Z" fill="#455A64"/>
<path d="M213.798 384.704L213.619 388.619L210.504 386.22L213.798 384.704Z" fill="#37474F"/>
<path d="M179.815 294.545L164.313 301.662L165.728 304.743L181.23 297.626L179.815 294.545Z" fill="#37474F"/>
<path d="M181.374 297.94L165.872 305.057L167.287 308.138L182.788 301.021L181.374 297.94Z" fill="#37474F"/>
<path d="M167.27 308.141L172.271 305.85L182.37 335.107L180.472 335.847L167.27 308.141Z" fill="#37474F"/>
<path d="M204.034 348.512C201.647 355.029 186.129 347.819 186.129 347.819C187.9 350.231 188.77 353.188 188.588 356.175C188.027 361.415 179.564 362.836 179.564 362.836C180.877 365.718 181.293 368.929 180.757 372.051C179.719 377.017 171.375 379.667 171.375 379.667C171.122 382.982 169.686 386.096 167.328 388.44C160.763 394.408 147.681 390.827 139.349 388.583C131.017 386.339 108.218 370.296 103.837 368.028L118.877 316.318C118.877 316.318 159.104 315.662 168.534 319.672C176.448 323.063 207.663 338.58 204.034 348.512Z" fill="#D3766A"/>
<path d="M186.022 347.58C178.442 341.958 169.526 338.174 160.871 334.617C160.68 334.533 160.561 334.832 160.752 334.915C169.394 338.353 177.32 344.19 185.819 347.974C185.869 347.987 185.922 347.983 185.969 347.962C186.017 347.941 186.055 347.905 186.079 347.859C186.103 347.813 186.11 347.76 186.1 347.709C186.089 347.659 186.062 347.613 186.022 347.58V347.58Z" fill="#263238"/>
<path d="M179.54 362.072C177.673 360.959 175.666 360.1 173.572 359.517C171.423 358.721 169.263 357.993 167.09 357.333C162.733 355.948 158.352 354.659 153.96 353.513C153.769 353.453 153.637 353.74 153.84 353.811C158.173 355.196 162.483 356.652 166.756 358.216C168.889 359.012 171.021 359.808 173.154 360.603C175.113 361.496 177.162 362.177 179.266 362.633C179.333 362.639 179.401 362.624 179.46 362.591C179.519 362.558 179.566 362.508 179.596 362.447C179.626 362.386 179.636 362.317 179.626 362.25C179.616 362.183 179.586 362.121 179.54 362.072Z" fill="#263238"/>
<path d="M171.16 379.583C169.679 378.473 167.483 378.079 165.716 377.566C163.723 376.981 161.729 376.372 159.748 375.763C155.773 374.569 151.786 373.376 147.811 371.955C147.62 371.884 147.489 372.182 147.692 372.254C151.679 373.662 155.642 375.119 159.629 376.479C161.586 377.164 163.552 377.824 165.525 378.461C167.266 379.227 169.13 379.676 171.028 379.786C171.207 379.786 171.231 379.643 171.16 379.583Z" fill="#263238"/>
<path d="M130.528 314.706L88.3554 371.179C88.3554 371.179 40.5129 364.375 32.4198 352.904C27.096 345.312 59.2775 309.848 86.5888 311.185L130.528 314.706Z" fill="#9A05EB"/>
<path d="M55.194 322.537C59.2525 318.956 70.8312 310.54 86.6235 311.077C86.7548 311.077 86.7787 311.304 86.6235 311.316C74.818 312.056 59.4913 319.672 55.2895 322.728C55.206 322.811 55.0866 322.632 55.194 322.537Z" fill="#263238"/>
<path d="M74.7348 363.647C79.044 357.189 83.6874 350.97 88.3427 344.763C92.998 338.556 97.6653 332.313 102.488 326.213C105.209 322.776 107.919 319.314 110.76 315.96C110.832 315.864 110.999 315.96 110.927 316.067C106.63 322.525 102.01 328.78 97.4027 335.011C92.7951 341.242 88.0801 347.449 83.3293 353.608C80.6554 357.082 77.91 360.52 75.0571 363.862C74.9258 363.969 74.6154 363.778 74.7348 363.647Z" fill="#263238"/>
<path d="M130.552 313.99C127.589 313.395 124.59 312.996 121.575 312.796C118.567 312.51 115.551 312.267 112.527 312.068C106.559 311.65 93.8699 310.098 82.9478 311.113C82.8284 311.113 83.4969 311.662 83.6163 311.638C88.7968 310.886 126.72 314.921 129.8 314.861C129.698 315.07 129.61 315.285 129.537 315.506C129.537 315.661 129.656 315.852 129.8 315.721C130.158 315.434 130.408 315.088 130.743 314.766C130.808 314.713 130.856 314.643 130.883 314.563C130.91 314.484 130.913 314.399 130.893 314.317C130.873 314.236 130.83 314.162 130.77 314.104C130.709 314.046 130.634 314.006 130.552 313.99V313.99Z" fill="#263238"/>
<path d="M61.8677 366.142C57.2656 365.321 52.7471 364.087 48.3672 362.453C43.9399 360.927 39.7459 358.794 35.9053 356.115C38.0181 357.117 40.1667 357.989 42.3034 358.872C44.44 359.755 46.6245 360.543 48.797 361.343C53.1181 362.955 57.5108 364.459 61.8677 366.142Z" fill="#263238"/>
<path d="M132.401 235.506C132.401 235.506 105.531 218.544 91.2432 222.125L81.3596 235.59C81.3596 235.59 77.6234 237.774 75.8448 235.494C71.4282 229.872 67.5488 214.796 78.5067 202.131C88.5455 190.528 108.349 186.983 125.561 187.807C142.165 188.583 158.029 196.079 155.403 207.359C152.777 218.64 132.401 235.506 132.401 235.506Z" fill="#9A05EB"/>
<path opacity="0.1" d="M132.939 230.349C132.939 230.349 148.194 213.638 148.457 205.593C148.719 197.547 131.841 193.56 121.372 192.82C105.162 191.627 94.9802 194.885 88.1762 204.864C81.3723 214.844 132.939 230.349 132.939 230.349Z" fill="black"/>
<path d="M134.049 228.762C126.815 232.116 111.369 223.151 104.302 214.796C103.825 214.211 103.419 207.204 102.536 198.717C101.975 193.56 101.235 187.843 100.148 182.662C99.9336 181.6 134.204 183.927 134.204 183.927C134.204 183.927 133.237 195.422 135.135 204.423C135.287 205.134 135.507 205.83 135.792 206.5C135.792 206.595 135.875 206.715 135.911 206.846C137.367 210.737 141.044 225.503 134.049 228.762Z" fill="#D3766A"/>
<path d="M102.202 182.376C105.485 190.815 115.249 210.845 132.641 207.694C133.758 207.503 134.856 207.215 135.923 206.834C135.895 206.715 135.855 206.599 135.804 206.488C135.527 205.82 135.307 205.129 135.148 204.423C133.25 195.399 134.228 183.904 134.228 183.904C134.228 183.904 109.507 182.209 102.202 182.376Z" fill="#263238"/>
<path d="M89.883 142.209C87.8896 154.324 98.5252 187.115 107.788 193.537C121.241 202.8 141.032 201.212 148.373 185.551C155.464 170.367 140.829 127.861 130.671 122.286C115.69 114.05 92.8314 124.315 89.883 142.209Z" fill="#D3766A"/>
<path d="M125.55 158.335C125.55 158.252 125.419 158.502 125.455 158.586C126.302 160.746 126.923 163.361 125.216 164.805C125.216 164.805 125.216 164.948 125.276 164.912C127.567 163.719 126.708 160.257 125.55 158.335Z" fill="#263238"/>
<path d="M122.769 156.771C119.188 157.774 121.432 164.912 124.774 163.933C128.116 162.954 125.8 155.948 122.769 156.771Z" fill="#263238"/>
<path d="M137.952 154.467C137.952 154.384 138.167 154.527 138.191 154.61C138.824 156.855 139.922 159.302 142.166 159.385C142.166 159.385 142.261 159.505 142.166 159.516C139.635 159.958 138.203 156.687 137.952 154.467Z" fill="#263238"/>
<path d="M139.205 151.531C142.679 150.134 145.174 157.177 141.998 158.478C138.823 159.779 136.293 152.713 139.205 151.531Z" fill="#263238"/>
<path d="M119.008 155.291C119.947 154.874 120.863 154.407 121.753 153.895C122.787 153.534 123.676 152.847 124.284 151.937C124.415 151.613 124.436 151.256 124.343 150.919C124.25 150.582 124.049 150.286 123.771 150.075C123.159 149.737 122.467 149.569 121.769 149.588C121.07 149.607 120.389 149.812 119.796 150.182C118.479 150.752 117.42 151.79 116.824 153.095C116.705 153.401 116.678 153.734 116.745 154.055C116.812 154.376 116.971 154.67 117.202 154.903C117.433 155.135 117.727 155.296 118.048 155.365C118.368 155.434 118.702 155.408 119.008 155.291V155.291Z" fill="#263238"/>
<path d="M140.817 145.276C139.798 145.385 138.774 145.441 137.749 145.443C136.672 145.652 135.557 145.501 134.574 145.013C134.297 144.799 134.099 144.499 134.011 144.16C133.922 143.821 133.948 143.462 134.085 143.139C134.447 142.542 134.963 142.053 135.577 141.721C136.192 141.39 136.884 141.228 137.582 141.253C139.009 141.084 140.448 141.455 141.617 142.292C141.874 142.496 142.066 142.771 142.169 143.082C142.273 143.394 142.282 143.729 142.197 144.047C142.112 144.364 141.936 144.649 141.691 144.868C141.446 145.086 141.142 145.228 140.817 145.276V145.276Z" fill="#263238"/>
<path d="M128.391 180.084C129.042 180.575 129.844 180.824 130.659 180.788C131.48 180.511 132.232 180.064 132.868 179.475C132.881 179.465 132.897 179.46 132.914 179.459C132.931 179.458 132.948 179.463 132.962 179.472C132.976 179.481 132.987 179.494 132.994 179.51C133 179.525 133.002 179.542 132.999 179.559C132.825 180.09 132.512 180.566 132.092 180.935C131.672 181.305 131.161 181.555 130.611 181.66C130.118 181.69 129.627 181.573 129.202 181.322C128.776 181.07 128.436 180.698 128.224 180.251C128.129 180.132 128.284 180.036 128.391 180.084Z" fill="#263238"/>
<path d="M128.606 172.719C129.447 173.415 130.423 173.93 131.472 174.232C132.522 174.534 133.623 174.616 134.705 174.473C135.651 174.358 136.575 174.109 137.451 173.733C137.625 173.678 137.792 173.606 137.952 173.518L138.418 173.28C138.528 173.22 138.616 173.126 138.668 173.012C138.719 172.897 138.732 172.769 138.704 172.647V172.647C138.683 172.567 138.65 172.491 138.609 172.42V172.42L138.549 172.229C138.048 170.51 137.057 167.968 137.057 167.968C137.785 168.087 141.414 168.505 141.079 167.622C138.298 160.4 135.207 152.355 130.909 145.742C130.897 145.716 130.879 145.693 130.858 145.673C130.836 145.654 130.811 145.64 130.784 145.63C130.757 145.621 130.728 145.617 130.7 145.619C130.671 145.62 130.643 145.628 130.617 145.64C130.591 145.653 130.568 145.67 130.549 145.692C130.53 145.713 130.515 145.738 130.506 145.765C130.496 145.792 130.492 145.821 130.494 145.85C130.496 145.879 130.503 145.907 130.515 145.933C132.903 152.987 136.544 159.576 139.062 166.619C137.767 166.438 136.454 166.438 135.159 166.619C134.944 166.774 137.164 171.501 137.319 172.289C137.324 172.317 137.324 172.345 137.319 172.372C134.574 173.65 132.139 173.471 128.749 172.432C128.546 172.384 128.415 172.587 128.606 172.719Z" fill="#263238"/>
<path d="M136.173 173.197C135.627 174.709 134.697 176.054 133.475 177.1C132.799 177.657 131.963 177.983 131.088 178.031C129.178 178.126 128.617 176.527 128.498 175.035C128.444 174.237 128.484 173.436 128.617 172.647C131.014 173.625 133.66 173.818 136.173 173.197Z" fill="#263238"/>
<path d="M133.476 177.1C132.8 177.657 131.963 177.983 131.088 178.031C129.178 178.126 128.617 176.527 128.498 175.034C130.444 174.629 132.724 175.309 133.476 177.1Z" fill="#FF98B9"/>
<path d="M102.846 160.066C104.278 152.904 98.9184 142.054 101.926 138.58C108.444 131.024 125.143 141.791 135.493 140.526C145.531 139.332 148.062 132.421 145.209 124.518C142.356 116.616 134.741 112.009 123.269 111.782C111.404 111.531 101.389 117.583 96.1013 122.012C96.1013 122.012 98.1067 117.631 96.9966 116.485C95.8865 115.339 91.4818 119.875 90.1926 121.737C89.2729 123.326 88.65 125.07 88.3544 126.882C86.8089 126.698 85.245 126.738 83.711 127.001C81.1685 127.383 78.2201 129.795 78.1126 130.415C78.0052 131.036 81.6937 131.036 84.2839 130.845C84.2839 130.845 80.3329 137.792 81.1207 143.199C81.9085 148.607 93.6543 173.28 95.7193 173.304C98.3693 173.316 102.261 162.955 102.846 160.066Z" fill="#263238"/>
<path d="M85.2037 130.045C85.2753 129.985 85.4185 130.045 85.3469 130.176C83.1135 132.493 81.5714 135.387 80.8945 138.532C80.3338 142.312 80.7911 146.173 82.2195 149.717C84.7143 156.64 89.0234 162.644 92.8909 168.816C92.9984 168.995 92.7 169.186 92.5806 169.019C88.0566 162.728 83.4132 155.888 81.0616 148.428C79.0563 142.113 79.6053 134.462 85.2037 130.045Z" fill="#263238"/>
<path d="M101.198 135.977C104.191 135.215 107.301 135.02 110.366 135.404C113.29 135.763 115.94 137.219 118.721 138.269C124.809 140.657 131.374 142.244 137.904 140.991C137.916 140.996 137.927 141.006 137.935 141.017C137.943 141.029 137.947 141.043 137.947 141.056C137.947 141.07 137.943 141.084 137.935 141.096C137.927 141.107 137.916 141.117 137.904 141.122C131.935 142.65 125.859 141.612 120.178 139.63C117.313 138.639 114.52 137.04 111.547 136.395C108.181 135.667 104.708 136.156 101.329 136.515C101.258 136.532 101.183 136.52 101.12 136.482C101.058 136.444 101.013 136.383 100.995 136.312C100.978 136.24 100.989 136.165 101.027 136.102C101.066 136.04 101.127 135.995 101.198 135.977V135.977Z" fill="#263238"/>
<path d="M101.915 118.359C105.72 115.818 109.868 113.833 114.234 112.462C118.385 111.018 122.755 110.304 127.149 110.349C134.741 110.612 142.178 114.467 144.887 121.88C146.35 125.671 146.35 129.871 144.887 133.662C144.861 133.705 144.82 133.737 144.772 133.754C144.724 133.77 144.672 133.768 144.625 133.75C144.578 133.731 144.539 133.697 144.515 133.652C144.491 133.608 144.483 133.556 144.493 133.507C145.652 130.048 145.66 126.308 144.518 122.844C143.376 119.38 141.144 116.379 138.155 114.288C131.387 109.788 122.78 110.469 115.332 112.653C110.688 114.101 106.207 116.03 101.963 118.407C101.963 118.407 101.891 118.383 101.915 118.359Z" fill="#263238"/>
<path d="M124.368 173.722C122.478 174.082 120.525 173.904 118.731 173.209C116.937 172.514 115.374 171.329 114.22 169.789C113.066 168.249 112.368 166.417 112.204 164.5C112.041 162.582 112.418 160.658 113.295 158.945C114.171 157.232 115.511 155.799 117.161 154.81C118.811 153.821 120.706 153.315 122.63 153.35C124.554 153.385 126.429 153.959 128.043 155.007C129.656 156.055 130.943 157.535 131.757 159.278V159.278C132.902 161.748 133.023 164.572 132.092 167.131C131.162 169.689 129.256 171.776 126.792 172.934C126.02 173.298 125.206 173.562 124.368 173.722ZM120.787 154.885C120.061 155.021 119.355 155.25 118.686 155.566C116.637 156.525 115.03 158.229 114.193 160.331C113.356 162.434 113.353 164.776 114.182 166.881C115.012 168.986 116.613 170.696 118.659 171.662C120.705 172.628 123.043 172.778 125.196 172.081C127.348 171.383 129.154 169.892 130.246 167.91C131.337 165.927 131.632 163.604 131.07 161.412C130.508 159.22 129.132 157.325 127.221 156.112C125.311 154.9 123.01 154.461 120.787 154.885V154.885Z" fill="#9A05EB"/>
<path d="M146.821 166.524C142.954 167.264 138.704 163.969 137.093 158.86C136.279 156.428 136.249 153.802 137.009 151.352C137.269 150.282 137.8 149.296 138.553 148.492C139.305 147.687 140.252 147.09 141.302 146.759C142.353 146.427 143.471 146.373 144.549 146.6C145.626 146.828 146.627 147.33 147.454 148.058C149.477 149.634 150.955 151.805 151.679 154.265C153.386 159.66 151.5 165.091 147.478 166.357C147.262 166.423 147.043 166.479 146.821 166.524V166.524ZM142.226 147.938C142.051 147.969 141.88 148.013 141.712 148.069C140.89 148.371 140.151 148.866 139.56 149.512C138.968 150.158 138.539 150.936 138.31 151.782C137.645 153.957 137.678 156.287 138.406 158.442C139.874 163.122 143.753 166.094 147.06 165.043C150.366 163.993 151.835 159.35 150.378 154.67C149.738 152.491 148.432 150.567 146.642 149.168C146.033 148.665 145.325 148.296 144.564 148.084C143.803 147.873 143.007 147.823 142.226 147.938V147.938Z" fill="#9A05EB"/>
<path d="M131.781 160.507L130.587 159.779C131.673 158.06 134.586 155.291 137.749 157.105L137.08 158.299C134.287 156.676 131.876 160.352 131.781 160.507Z" fill="#9A05EB"/>
<path d="M88.9035 176.778L87.5547 176.551C87.6621 175.918 88.7484 170.344 91.4819 168.947C94.0722 167.646 112.156 163.767 112.968 163.6L113.266 164.948C108.074 166.047 94.1677 169.162 92.1384 170.177C90.2643 171.096 89.1662 175.262 88.9035 176.778Z" fill="#9A05EB"/>
<path d="M100.734 168.648C100.734 168.648 91.4826 158.98 86.9824 162.441C82.4823 165.903 90.5634 180.74 96.7109 181.994C97.4823 182.204 98.2883 182.258 99.0809 182.151C99.8734 182.044 100.636 181.779 101.325 181.372C102.013 180.964 102.612 180.422 103.087 179.779C103.561 179.135 103.902 178.403 104.088 177.625L100.734 168.648Z" fill="#D3766A"/>
<path d="M89.4178 166.691C89.4023 166.697 89.389 166.708 89.3796 166.721C89.3702 166.735 89.3652 166.752 89.3652 166.768C89.3652 166.785 89.3702 166.801 89.3796 166.815C89.389 166.829 89.4023 166.84 89.4178 166.846C93.715 167.86 96.4366 171.298 98.5255 174.951C97.0931 173.638 95.3265 173.077 93.536 174.82C93.4405 174.903 93.536 175.058 93.6792 175.011C94.3563 174.676 95.1204 174.559 95.8665 174.677C96.6125 174.794 97.3038 175.14 97.8451 175.667C98.7488 176.549 99.5497 177.53 100.232 178.592C100.483 178.914 101.104 178.592 100.901 178.234C100.905 178.202 100.905 178.17 100.901 178.138C100.161 172.898 95.04 166.297 89.4178 166.691Z" fill="#263238"/>
<path d="M132.939 230.349C132.939 230.349 108.72 204.029 85.7891 205.819L91.2442 222.125C91.2442 222.125 104.518 219.32 132.402 235.506L132.939 230.349Z" fill="#9A05EB"/>
<path d="M85.3105 223.724C89.2878 222.523 93.4772 222.194 97.5935 222.758C101.692 223.215 105.725 224.14 109.614 225.515C113.527 226.852 117.347 228.447 121.049 230.29L126.528 233.19L131.888 236.354L132.485 236.7L132.986 236.294C136.687 233.274 140.173 229.999 143.419 226.494C145.067 224.766 146.609 222.94 148.038 221.027C149.482 219.132 150.737 217.101 151.786 214.963C149.107 218.848 146 222.419 142.523 225.61C140.828 227.246 139.062 228.798 137.259 230.325C135.457 231.853 133.678 233.381 131.816 234.79H132.914L127.519 231.495C125.681 230.469 123.818 229.49 121.944 228.511C120.07 227.532 118.113 226.744 116.155 225.945C114.197 225.145 112.204 224.417 110.187 223.88C106.132 222.588 101.927 221.821 97.677 221.6C96.6146 221.528 95.5523 221.6 94.5018 221.6C93.4514 221.6 92.3771 221.755 91.3386 221.934C89.242 222.183 87.2033 222.789 85.3105 223.724V223.724Z" fill="#263238"/>
<path d="M81.3604 235.59C85.1916 231.521 88.5108 226.999 91.244 222.125C87.4101 226.191 84.0906 230.713 81.3604 235.59Z" fill="#263238"/>
<path d="M122.041 225.181C121.572 232.394 121.724 239.635 122.494 246.822C122.996 251.836 127.102 269.502 132.581 268.213C138.06 266.924 127.603 256.419 124.858 247.144C122.112 237.87 123.807 230.636 123.461 224.93L122.041 225.181Z" fill="#9A05EB"/>
<g opacity="0.1">
<path opacity="0.1" d="M122.04 225.181C121.571 232.395 121.723 239.635 122.493 246.823C122.995 251.836 127.101 269.502 132.58 268.213C138.059 266.924 127.602 256.42 124.857 247.145C122.111 237.87 123.806 230.636 123.46 224.931L122.04 225.181Z" fill="black"/>
</g>
<path d="M142.226 221.6C144.901 227.583 147.058 233.785 148.672 240.137C149.865 244.554 151.942 260.907 146.869 261.516C141.796 262.125 147.37 249.902 146.774 241.152C146.177 232.402 142.452 226.828 140.937 221.826L142.226 221.6Z" fill="#9A05EB"/>
<g opacity="0.1">
<path opacity="0.1" d="M142.225 221.6C144.9 227.583 147.057 233.785 148.671 240.138C149.864 244.554 151.941 260.908 146.868 261.517C141.795 262.125 147.369 249.902 146.773 241.152C146.176 232.403 142.452 226.828 140.936 221.827L142.225 221.6Z" fill="black"/>
</g>
<path d="M374.276 360.626H241.552V366.583H374.276V360.626Z" fill="#455A64"/>
<path d="M308.362 360.639H241.552V366.595H308.362V360.639Z" fill="#263238"/>
<path d="M306.811 366.571L436.169 366.547L454.42 278.693L325.074 278.717L306.811 366.571Z" fill="#37474F"/>
<path d="M370.588 324.602C370.443 325.692 370.536 326.8 370.86 327.851C371.184 328.902 371.732 329.87 372.466 330.689C373.199 331.508 374.102 332.158 375.111 332.595C376.12 333.032 377.212 333.245 378.311 333.22C380.674 333.174 382.941 332.277 384.695 330.694C386.449 329.111 387.573 326.947 387.861 324.602C388.005 323.511 387.913 322.402 387.589 321.351C387.265 320.299 386.717 319.331 385.983 318.511C385.25 317.691 384.347 317.04 383.338 316.601C382.329 316.163 381.237 315.948 380.137 315.971C377.774 316.02 375.507 316.92 373.752 318.505C371.998 320.09 370.875 322.255 370.588 324.602V324.602Z" fill="white"/>
</svg>
