<svg width="22" height="21" viewBox="0 0 22 21" fill="none" xmlns="http://www.w3.org/2000/svg">
<path d="M11.0868 5.4308C8.09768 5.4308 5.68662 7.70597 5.68662 10.5266C5.68662 13.3473 8.09768 15.6225 11.0868 15.6225C14.076 15.6225 16.487 13.3473 16.487 10.5266C16.487 7.70597 14.076 5.4308 11.0868 5.4308ZM11.0868 13.8396C9.15516 13.8396 7.57598 12.3539 7.57598 10.5266C7.57598 8.69941 9.15046 7.21368 11.0868 7.21368C13.0232 7.21368 14.5977 8.69941 14.5977 10.5266C14.5977 12.3539 13.0185 13.8396 11.0868 13.8396ZM17.9675 5.22235C17.9675 5.88317 17.4035 6.41094 16.7079 6.41094C16.0076 6.41094 15.4483 5.87874 15.4483 5.22235C15.4483 4.56597 16.0123 4.03377 16.7079 4.03377C17.4035 4.03377 17.9675 4.56597 17.9675 5.22235ZM21.5441 6.42868C21.4642 4.83651 21.0788 3.42617 19.8428 2.2642C18.6114 1.10222 17.1168 0.738549 15.4295 0.658719C13.6906 0.565583 8.47837 0.565583 6.7394 0.658719C5.05683 0.734114 3.56225 1.09779 2.32618 2.25976C1.0901 3.42174 0.709403 4.83207 0.624805 6.42424C0.526107 8.0652 0.526107 12.9836 0.624805 14.6246C0.704704 16.2168 1.0901 17.6271 2.32618 18.7891C3.56225 19.9511 5.05213 20.3147 6.7394 20.3946C8.47837 20.4877 13.6906 20.4877 15.4295 20.3946C17.1168 20.3192 18.6114 19.9555 19.8428 18.7891C21.0742 17.6271 21.4595 16.2168 21.5441 14.6246C21.6428 12.9836 21.6428 8.06964 21.5441 6.42868ZM19.2976 16.3853C18.931 17.2546 18.2213 17.9243 17.2954 18.2746C15.9089 18.7935 12.619 18.6738 11.0868 18.6738C9.55465 18.6738 6.26001 18.7891 4.87823 18.2746C3.95705 17.9287 3.24736 17.259 2.87607 16.3853C2.32618 15.077 2.45307 11.9725 2.45307 10.5266C2.45307 9.08082 2.33088 5.97187 2.87607 4.66798C3.24266 3.79871 3.95235 3.12902 4.87823 2.77866C6.26471 2.25976 9.55465 2.37951 11.0868 2.37951C12.619 2.37951 15.9136 2.2642 17.2954 2.77866C18.2166 3.12459 18.9263 3.79428 19.2976 4.66798C19.8475 5.97631 19.7206 9.08082 19.7206 10.5266C19.7206 11.9725 19.8475 15.0814 19.2976 16.3853Z" fill="white"/>
</svg>
