<svg width="26" height="20" viewBox="0 0 26 20" fill="none" xmlns="http://www.w3.org/2000/svg">
<path d="M22.8502 5.21142C22.8663 5.42328 22.8663 5.63519 22.8663 5.84705C22.8663 12.3091 17.6529 19.7549 8.12442 19.7549C5.18886 19.7549 2.46187 18.9528 0.167969 17.5606C0.585056 17.6059 0.986046 17.6211 1.41918 17.6211C3.84136 17.6211 6.07113 16.8493 7.85171 15.5326C5.57385 15.4872 3.66494 14.0798 3.00724 12.1427C3.32809 12.188 3.64889 12.2183 3.98579 12.2183C4.45097 12.2183 4.9162 12.1578 5.34929 12.0519C2.97519 11.5978 1.19456 9.63047 1.19456 7.25448V7.19396C1.88431 7.55718 2.68644 7.78418 3.53656 7.81441C2.14097 6.93664 1.22666 5.43842 1.22666 3.74343C1.22666 2.83543 1.48327 2.00308 1.93245 1.27665C4.48302 4.24286 8.31689 6.17994 12.6159 6.39184C12.5357 6.02863 12.4876 5.65033 12.4876 5.27198C12.4876 2.57815 14.7975 0.383789 17.6689 0.383789C19.1607 0.383789 20.5082 0.974002 21.4546 1.92743C22.6256 1.71556 23.7485 1.30693 24.7431 0.747C24.358 1.88205 23.5399 2.83548 22.4652 3.44078C23.5079 3.3349 24.5185 3.06243 25.4489 2.68413C24.7432 3.65264 23.8608 4.51523 22.8502 5.21142Z" fill="white"/>
</svg>
