<svg width="26" height="15" viewBox="0 0 26 15" fill="none" xmlns="http://www.w3.org/2000/svg">
<path d="M25.4235 1.72984C25.5971 1.17638 25.4235 0.769043 24.5881 0.769043H21.8238C21.1199 0.769043 20.796 1.11883 20.6224 1.50846C20.6224 1.50846 19.2144 4.74506 17.2245 6.84375C16.5816 7.45034 16.2859 7.64515 15.9339 7.64515C15.7603 7.64515 15.4928 7.45034 15.4928 6.89688V1.72984C15.4928 1.06569 15.2957 0.769043 14.7137 0.769043H10.3679C9.9267 0.769043 9.66388 1.07898 9.66388 1.36677C9.66388 1.9955 10.6588 2.14161 10.7621 3.91266V7.75584C10.7621 8.59709 10.6025 8.75206 10.2505 8.75206C9.3119 8.75206 7.03103 5.50218 5.6794 1.78297C5.4072 1.06127 5.13969 0.769043 4.43103 0.769043H1.66677C0.878317 0.769043 0.71875 1.11883 0.71875 1.50846C0.71875 2.19917 1.65738 5.63058 5.08807 10.1645C7.37363 13.2594 10.5931 14.9375 13.5216 14.9375C15.2816 14.9375 15.4975 14.5655 15.4975 13.9235C15.4975 10.9659 15.3379 10.6869 16.2202 10.6869C16.6285 10.6869 17.3325 10.8818 18.9751 12.3739C20.8523 14.1449 21.1621 14.9375 22.2134 14.9375H24.9776C25.7661 14.9375 26.165 14.5655 25.935 13.8306C25.4094 12.2853 21.8567 9.10627 21.6971 8.89375C21.2888 8.39785 21.4061 8.17647 21.6971 7.73371C21.7018 7.72928 25.0762 3.24852 25.4235 1.72984Z" fill="white"/>
</svg>
