<svg width="96" height="96" viewBox="0 0 96 96" fill="none" xmlns="http://www.w3.org/2000/svg">
<rect width="96" height="96" rx="48" fill="#F4F5F7"/>
<path opacity="0.4" d="M28 46.1572C28.1 50.8332 28.38 58.8312 28.42 59.7132C28.562 61.5992 29.284 63.5052 30.408 64.8492C31.972 66.7352 33.898 67.5772 36.584 67.5772C40.296 67.5972 44.388 67.5972 48.362 67.5972C52.352 67.5972 56.224 67.5972 59.494 67.5772C62.142 67.5772 64.128 66.7132 65.672 64.8492C66.796 63.5052 67.518 61.5792 67.62 59.7132C67.66 58.9712 67.86 50.2892 67.98 46.1572H28Z" fill="#9A05EB"/>
<path d="M46.4902 54.7686V57.3566C46.4902 58.1846 47.1622 58.8566 47.9902 58.8566C48.8182 58.8566 49.4902 58.1846 49.4902 57.3566V54.7686C49.4902 53.9406 48.8182 53.2686 47.9902 53.2686C47.1622 53.2686 46.4902 53.9406 46.4902 54.7686Z" fill="#9A05EB"/>
<path d="M50.572 28.001C53.574 28.001 56.036 30.259 56.412 33.163H60.366C64.564 33.163 67.98 36.579 67.98 40.779V47.711C67.98 48.215 67.726 48.685 67.308 48.963C63.184 51.693 58.288 53.511 53.152 54.221C53.082 54.231 53.014 54.235 52.946 54.235C52.268 54.235 51.662 53.777 51.492 53.105C51.088 51.513 49.642 50.399 47.98 50.399C46.296 50.399 44.866 51.489 44.422 53.113C44.222 53.839 43.524 54.303 42.768 54.203C37.666 53.491 32.79 51.681 28.674 48.963C28.252 48.687 28 48.215 28 47.711V40.779C28 36.579 31.424 33.163 35.634 33.163H39.568C39.944 30.259 42.404 28.001 45.408 28.001H50.572ZM50.572 31.001H45.408C44.062 31.001 42.938 31.921 42.602 33.163H53.376C53.04 31.921 51.916 31.001 50.572 31.001Z" fill="#9A05EB"/>
</svg>
